<?xml version="1.0" encoding="utf-8" standalone="no"?>
<!DOCTYPE svg PUBLIC "-//W3C//DTD SVG 1.1//EN"
  "http://www.w3.org/Graphics/SVG/1.1/DTD/svg11.dtd">
<!-- Created with matplotlib (http://matplotlib.org/) -->
<svg height="134.375414pt" version="1.1" viewBox="0 0 334.068663 134.375414" width="334.068663pt" xmlns="http://www.w3.org/2000/svg" xmlns:xlink="http://www.w3.org/1999/xlink">
 <defs>
  <style type="text/css">
*{stroke-linecap:butt;stroke-linejoin:round;}
  </style>
 </defs>
 <g id="figure_1">
  <g id="patch_1">
   <path d="M 0 134.375414 
L 334.068663 134.375414 
L 334.068663 0 
L 0 0 
z
" style="fill:#ffffff;"/>
  </g>
  <g id="axes_1">
   <g id="patch_2">
    <path d="M 22.92625 98.220472 
L 152.42875 98.220472 
L 152.42875 0 
L 22.92625 0 
z
" style="fill:#ffffff;"/>
   </g>
   <g id="matplotlib.axis_1">
    <g id="xtick_1">
     <g id="line2d_1">
      <defs>
       <path d="M 0 0 
L 0 -3.5 
" id="m2b1e540a70" style="stroke:#000000;stroke-width:0.8;"/>
      </defs>
      <g>
       <use style="stroke:#000000;stroke-width:0.8;" x="28.812727" xlink:href="#m2b1e540a70" y="98.220472"/>
      </g>
     </g>
     <g id="text_1">
      <!-- 0.00 -->
      <defs>
       <path d="M 45.90625 31.90625 
Q 45.90625 38.703125 45 45.390625 
Q 44.09375 52.09375 40.59375 57.90625 
Q 38.09375 62.09375 33.890625 64.390625 
Q 29.703125 66.703125 24.90625 66.703125 
Q 20.09375 66.703125 15.890625 64.390625 
Q 11.703125 62.09375 9.203125 57.90625 
Q 5.703125 52.09375 4.796875 45.390625 
Q 3.90625 38.703125 3.90625 31.90625 
Q 3.90625 25.296875 4.796875 18.6875 
Q 5.703125 12.09375 9.203125 6.40625 
Q 11.703125 2.296875 15.890625 0.046875 
Q 20.09375 -2.203125 24.90625 -2.203125 
Q 29.703125 -2.203125 33.890625 0.046875 
Q 38.09375 2.296875 40.59375 6.40625 
Q 44.09375 12.09375 45 18.6875 
Q 45.90625 25.296875 45.90625 31.90625 
z
M 37.59375 33.5 
Q 37.59375 30.296875 37.546875 26.6875 
Q 37.5 23.09375 37.296875 19.6875 
Q 37.09375 16.296875 36.640625 13.25 
Q 36.203125 10.203125 35.40625 8.09375 
Q 34.09375 4.59375 31.296875 2.296875 
Q 28.5 0 24.90625 0 
Q 21.296875 0 18.5 2.296875 
Q 15.703125 4.59375 14.40625 8.09375 
Q 13.59375 10.203125 13.140625 13.25 
Q 12.703125 16.296875 12.5 19.6875 
Q 12.296875 23.09375 12.25 26.6875 
Q 12.203125 30.296875 12.203125 33.5 
Q 12.203125 36.5 12.25 39.75 
Q 12.296875 43 12.5 46.140625 
Q 12.703125 49.296875 13.140625 52.09375 
Q 13.59375 54.90625 14.40625 56.90625 
Q 15.796875 60.09375 18.59375 62.25 
Q 21.40625 64.40625 24.90625 64.40625 
Q 28.40625 64.40625 31.203125 62.25 
Q 34 60.09375 35.40625 56.90625 
Q 36.203125 54.90625 36.640625 52.09375 
Q 37.09375 49.296875 37.296875 46.140625 
Q 37.5 43 37.546875 39.75 
Q 37.59375 36.5 37.59375 33.5 
z
" id="Euclid-30"/>
       <path d="M 19.09375 5.296875 
Q 19.09375 7.5 17.546875 9.046875 
Q 16 10.59375 13.796875 10.59375 
Q 11.59375 10.59375 10.046875 9.046875 
Q 8.5 7.5 8.5 5.296875 
Q 8.5 3.09375 10.046875 1.546875 
Q 11.59375 0 13.796875 0 
Q 16 0 17.546875 1.546875 
Q 19.09375 3.09375 19.09375 5.296875 
z
" id="Euclid-2e"/>
      </defs>
      <g transform="translate(22.589837 106.578909)scale(0.07 -0.07)">
       <use xlink:href="#Euclid-30"/>
       <use x="49.999985" xlink:href="#Euclid-2e"/>
       <use x="77.799973" xlink:href="#Euclid-30"/>
       <use x="127.799957" xlink:href="#Euclid-30"/>
      </g>
     </g>
    </g>
    <g id="xtick_2">
     <g id="line2d_2">
      <g>
       <use style="stroke:#000000;stroke-width:0.8;" x="52.358636" xlink:href="#m2b1e540a70" y="98.220472"/>
      </g>
     </g>
     <g id="text_2">
      <!-- 0.02 -->
      <defs>
       <path d="M 44.796875 17.40625 
L 42.296875 17.40625 
Q 42.09375 16.203125 41.84375 14.796875 
Q 41.59375 13.40625 41.296875 12.09375 
Q 41 10.796875 40.640625 9.75 
Q 40.296875 8.703125 39.90625 8.296875 
Q 39.703125 8.09375 37.84375 7.9375 
Q 36 7.796875 33.453125 7.75 
Q 30.90625 7.703125 28 7.703125 
Q 25.09375 7.703125 22.90625 7.703125 
L 12.796875 7.703125 
L 24.296875 18.90625 
Q 27.203125 21.703125 30.75 24.703125 
Q 34.296875 27.703125 37.4375 31.09375 
Q 40.59375 34.5 42.6875 38.453125 
Q 44.796875 42.40625 44.796875 47.203125 
Q 44.796875 51.40625 43.25 54.953125 
Q 41.703125 58.5 38.890625 61.140625 
Q 36.09375 63.796875 32.140625 65.25 
Q 28.203125 66.703125 23.5 66.703125 
Q 19.703125 66.703125 16.296875 65.25 
Q 12.90625 63.796875 10.40625 61.296875 
Q 7.90625 58.796875 6.453125 55.390625 
Q 5 52 5 48.203125 
Q 5 45.59375 6.640625 44.25 
Q 8.296875 42.90625 10.203125 42.90625 
Q 12.203125 42.90625 13.84375 44.25 
Q 15.5 45.59375 15.5 48.203125 
Q 15.5 49.703125 14.84375 50.796875 
Q 14.203125 51.90625 13.25 52.546875 
Q 12.296875 53.203125 11.09375 53.34375 
Q 9.90625 53.5 8.796875 53.203125 
Q 10.296875 57.703125 14 60.640625 
Q 17.703125 63.59375 22.5 63.59375 
Q 25.796875 63.59375 28.25 62.25 
Q 30.703125 60.90625 32.34375 58.65625 
Q 34 56.40625 34.84375 53.453125 
Q 35.703125 50.5 35.703125 47.203125 
Q 35.703125 43.203125 34.34375 39.546875 
Q 33 35.90625 30.796875 32.546875 
Q 28.59375 29.203125 25.84375 25.953125 
Q 23.09375 22.703125 20.296875 19.59375 
L 5.203125 2.703125 
Q 5 2.296875 5 2.09375 
L 5 0 
L 42 0 
z
" id="Euclid-32"/>
      </defs>
      <g transform="translate(46.135746 106.578909)scale(0.07 -0.07)">
       <use xlink:href="#Euclid-30"/>
       <use x="49.999985" xlink:href="#Euclid-2e"/>
       <use x="77.799973" xlink:href="#Euclid-30"/>
       <use x="127.799957" xlink:href="#Euclid-32"/>
      </g>
     </g>
    </g>
    <g id="xtick_3">
     <g id="line2d_3">
      <g>
       <use style="stroke:#000000;stroke-width:0.8;" x="75.904545" xlink:href="#m2b1e540a70" y="98.220472"/>
      </g>
     </g>
     <g id="text_3">
      <!-- 0.04 -->
      <defs>
       <path d="M 47 16.59375 
L 47 19.703125 
L 37 19.703125 
L 37 66.703125 
Q 37 67.796875 35.90625 67.796875 
L 34.90625 67.796875 
Q 34.203125 67.796875 33.796875 67.203125 
L 2.796875 19.703125 
L 2.796875 16.59375 
L 29.296875 16.59375 
L 29.296875 6.703125 
Q 29.296875 5.703125 28.890625 4.84375 
Q 28.5 4 27.703125 3.703125 
Q 26.40625 3.203125 24 3.140625 
Q 21.59375 3.09375 19.5 3.09375 
L 19.5 0 
Q 33.203125 0.59375 46.703125 0 
L 46.703125 3.09375 
Q 44.703125 3.09375 42.25 3.140625 
Q 39.796875 3.203125 38.59375 3.703125 
Q 37.796875 4 37.390625 4.84375 
Q 37 5.703125 37 6.703125 
L 37 16.59375 
z
M 29.796875 19.703125 
L 5.59375 19.703125 
L 29.796875 56.796875 
z
" id="Euclid-34"/>
      </defs>
      <g transform="translate(69.681655 106.578909)scale(0.07 -0.07)">
       <use xlink:href="#Euclid-30"/>
       <use x="49.999985" xlink:href="#Euclid-2e"/>
       <use x="77.799973" xlink:href="#Euclid-30"/>
       <use x="127.799957" xlink:href="#Euclid-34"/>
      </g>
     </g>
    </g>
    <g id="xtick_4">
     <g id="line2d_4">
      <g>
       <use style="stroke:#000000;stroke-width:0.8;" x="99.450455" xlink:href="#m2b1e540a70" y="98.220472"/>
      </g>
     </g>
     <g id="text_4">
      <!-- 0.06 -->
      <defs>
       <path d="M 45.59375 20.296875 
Q 45.59375 25.09375 44.296875 28.796875 
Q 43 32.5 39.796875 36.09375 
Q 36.796875 39.40625 33.5 41 
Q 30.203125 42.59375 25.59375 42.59375 
Q 21 42.59375 17.890625 39.796875 
Q 14.796875 37 13.09375 32.703125 
Q 13.203125 38.703125 13.75 44.390625 
Q 14.296875 50.09375 17.09375 55.09375 
Q 19.296875 59 22.75 61.59375 
Q 26.203125 64.203125 30.5 64.203125 
Q 33.59375 64.203125 35.9375 63.140625 
Q 38.296875 62.09375 39.5 60.09375 
Q 37.5 60.5 35.75 59.34375 
Q 34 58.203125 34 55.59375 
Q 34 53.296875 35.390625 52.140625 
Q 36.796875 51 38.5 51 
Q 40.296875 51 41.6875 52.140625 
Q 43.09375 53.296875 43.09375 55.59375 
Q 43.09375 61 39.5 63.84375 
Q 35.90625 66.703125 30.5 66.703125 
Q 24.796875 66.703125 20 63.84375 
Q 15.203125 61 11.796875 56.5 
Q 7.796875 51.203125 6 45 
Q 4.203125 38.796875 4.203125 32.296875 
Q 4.203125 25.796875 5.140625 19.296875 
Q 6.09375 12.796875 9.5 7 
Q 11.90625 2.796875 15.953125 0.296875 
Q 20 -2.203125 24.90625 -2.203125 
Q 29.59375 -2.203125 33 -0.59375 
Q 36.40625 1 39.59375 4.40625 
Q 42.90625 8 44.25 11.75 
Q 45.59375 15.5 45.59375 20.296875 
z
M 36.703125 20.296875 
Q 36.703125 15.90625 36.34375 12.40625 
Q 36 8.90625 34.296875 6 
Q 32.59375 3.203125 30.34375 1.890625 
Q 28.09375 0.59375 24.90625 0.59375 
Q 21.59375 0.59375 19 2.796875 
Q 16.40625 5 15.09375 8.40625 
Q 14.296875 10.40625 13.9375 13.453125 
Q 13.59375 16.5 13.40625 20 
L 13.40625 20.40625 
Q 13.09375 24.296875 13.796875 27.890625 
Q 14.5 31.5 16.046875 34.25 
Q 17.59375 37 19.9375 38.703125 
Q 22.296875 40.40625 25.5 40.40625 
Q 28.59375 40.40625 30.6875 39 
Q 32.796875 37.59375 34.5 34.796875 
Q 36.09375 32 36.390625 28.390625 
Q 36.703125 24.796875 36.703125 20.296875 
z
" id="Euclid-36"/>
      </defs>
      <g transform="translate(93.227564 106.578909)scale(0.07 -0.07)">
       <use xlink:href="#Euclid-30"/>
       <use x="49.999985" xlink:href="#Euclid-2e"/>
       <use x="77.799973" xlink:href="#Euclid-30"/>
       <use x="127.799957" xlink:href="#Euclid-36"/>
      </g>
     </g>
    </g>
    <g id="xtick_5">
     <g id="line2d_5">
      <g>
       <use style="stroke:#000000;stroke-width:0.8;" x="122.996364" xlink:href="#m2b1e540a70" y="98.220472"/>
      </g>
     </g>
     <g id="text_5">
      <!-- 0.08 -->
      <defs>
       <path d="M 45.59375 16.796875 
Q 45.59375 21.59375 43.1875 25.6875 
Q 40.796875 29.796875 36.796875 32.40625 
L 30.796875 36.296875 
Q 33.203125 37.5 35.390625 39.046875 
Q 37.59375 40.59375 39.25 42.546875 
Q 40.90625 44.5 41.90625 46.796875 
Q 42.90625 49.09375 42.90625 51.796875 
Q 42.90625 55.203125 41.40625 57.953125 
Q 39.90625 60.703125 37.34375 62.640625 
Q 34.796875 64.59375 31.546875 65.640625 
Q 28.296875 66.703125 24.90625 66.703125 
Q 21.296875 66.703125 18.046875 65.390625 
Q 14.796875 64.09375 12.296875 61.84375 
Q 9.796875 59.59375 8.34375 56.546875 
Q 6.90625 53.5 6.90625 49.90625 
Q 6.90625 45.59375 9.046875 42 
Q 11.203125 38.40625 14.703125 36.09375 
L 18.703125 33.5 
Q 15.703125 32.09375 13.09375 30.25 
Q 10.5 28.40625 8.5 26.09375 
Q 6.5 23.796875 5.34375 21.046875 
Q 4.203125 18.296875 4.203125 15 
Q 4.203125 11.09375 5.953125 7.890625 
Q 7.703125 4.703125 10.546875 2.453125 
Q 13.40625 0.203125 17.15625 -1 
Q 20.90625 -2.203125 24.90625 -2.203125 
Q 29.09375 -2.203125 32.84375 -0.75 
Q 36.59375 0.703125 39.4375 3.25 
Q 42.296875 5.796875 43.9375 9.25 
Q 45.59375 12.703125 45.59375 16.796875 
z
M 38.40625 51.796875 
Q 38.40625 47.203125 35.59375 43.640625 
Q 32.796875 40.09375 28.5 37.703125 
L 16.296875 45.59375 
Q 14.09375 47 12.75 49.09375 
Q 11.40625 51.203125 11.40625 53.703125 
Q 11.40625 56 12.5 57.953125 
Q 13.59375 59.90625 15.4375 61.296875 
Q 17.296875 62.703125 19.75 63.453125 
Q 22.203125 64.203125 24.90625 64.203125 
Q 27.59375 64.203125 30.046875 63.25 
Q 32.5 62.296875 34.34375 60.640625 
Q 36.203125 59 37.296875 56.703125 
Q 38.40625 54.40625 38.40625 51.796875 
z
M 40.59375 13.296875 
Q 40.59375 10.5 39.34375 8.140625 
Q 38.09375 5.796875 35.890625 4.140625 
Q 33.703125 2.5 30.84375 1.546875 
Q 28 0.59375 24.90625 0.59375 
Q 21.703125 0.59375 18.84375 1.6875 
Q 16 2.796875 13.84375 4.75 
Q 11.703125 6.703125 10.453125 9.34375 
Q 9.203125 12 9.203125 15 
Q 9.203125 20.59375 12.546875 25 
Q 15.90625 29.40625 21 32 
L 34.703125 23.203125 
Q 37.296875 21.5 38.9375 18.890625 
Q 40.59375 16.296875 40.59375 13.296875 
z
" id="Euclid-38"/>
      </defs>
      <g transform="translate(116.773473 106.578909)scale(0.07 -0.07)">
       <use xlink:href="#Euclid-30"/>
       <use x="49.999985" xlink:href="#Euclid-2e"/>
       <use x="77.799973" xlink:href="#Euclid-30"/>
       <use x="127.799957" xlink:href="#Euclid-38"/>
      </g>
     </g>
    </g>
    <g id="xtick_6">
     <g id="line2d_6">
      <g>
       <use style="stroke:#000000;stroke-width:0.8;" x="146.542273" xlink:href="#m2b1e540a70" y="98.220472"/>
      </g>
     </g>
     <g id="text_6">
      <!-- 0.10 -->
      <defs>
       <path d="M 41.90625 0 
L 41.90625 3.09375 
Q 40.59375 3.09375 39.09375 3.09375 
Q 37.59375 3.09375 36.140625 3.140625 
Q 34.703125 3.203125 33.5 3.34375 
Q 32.296875 3.5 31.5 3.703125 
Q 30.5 3.90625 29.953125 4.75 
Q 29.40625 5.59375 29.40625 6.703125 
L 29.40625 65.59375 
Q 29.40625 66.703125 28.296875 66.703125 
L 27.09375 66.703125 
Q 23.59375 63 18.796875 61.59375 
Q 14 60.203125 8.90625 60.203125 
L 8.90625 57.203125 
Q 12.40625 57.203125 15.75 57.796875 
Q 19.09375 58.40625 22 59.796875 
L 22 6.703125 
Q 22 5.59375 21.453125 4.75 
Q 20.90625 3.90625 19.90625 3.703125 
Q 19.09375 3.5 17.84375 3.34375 
Q 16.59375 3.203125 15.1875 3.140625 
Q 13.796875 3.09375 12.296875 3.09375 
Q 10.796875 3.09375 9.5 3.09375 
L 9.5 0 
Q 25.703125 0.59375 41.90625 0 
z
" id="Euclid-31"/>
      </defs>
      <g transform="translate(140.319382 106.578909)scale(0.07 -0.07)">
       <use xlink:href="#Euclid-30"/>
       <use x="49.999985" xlink:href="#Euclid-2e"/>
       <use x="77.799973" xlink:href="#Euclid-31"/>
       <use x="127.799957" xlink:href="#Euclid-30"/>
      </g>
     </g>
    </g>
    <g id="text_7">
     <!-- 光纤百公里故障概率 -->
     <defs>
      <path d="M 20.3125 69.921875 
L 21.09375 71.09375 
Q 33.984375 62.109375 36.328125 57.421875 
Q 38.671875 52.734375 35.9375 48.625 
Q 33.203125 44.53125 31.046875 51.75 
Q 28.90625 58.984375 20.3125 69.921875 
z
M 47.265625 42.1875 
L 47.265625 64.84375 
Q 47.265625 71.09375 46.875 80.46875 
L 56.25 76.5625 
L 52.734375 73.046875 
L 52.734375 42.1875 
L 59.375 42.1875 
Q 67.1875 55.078125 72.265625 70.3125 
L 80.46875 64.453125 
L 76.953125 62.5 
Q 68.359375 50.390625 61.71875 42.1875 
L 80.46875 42.1875 
L 85.9375 47.65625 
L 93.359375 39.84375 
L 61.328125 39.84375 
L 61.328125 5.078125 
Q 61.328125 -1.5625 67.1875 -1.5625 
L 82.8125 -1.5625 
Q 85.546875 -1.5625 86.328125 2.140625 
Q 87.109375 5.859375 87.890625 19.921875 
L 89.84375 19.921875 
Q 89.84375 9.765625 90.625 6.046875 
Q 91.40625 2.34375 95.3125 0 
Q 92.578125 -5.859375 85.546875 -6.25 
L 66.015625 -6.25 
Q 56.25 -6.25 56.25 3.125 
L 56.25 39.84375 
L 41.015625 39.84375 
Q 39.84375 17.96875 32.8125 7.609375 
Q 25.78125 -2.734375 5.078125 -10.15625 
L 4.6875 -8.59375 
Q 23.4375 0 29.09375 10.9375 
Q 34.765625 21.875 35.15625 39.84375 
L 18.75 39.84375 
Q 13.671875 39.84375 9.375 38.671875 
L 5.859375 42.1875 
z
" id="SimSun-5149"/>
      <path d="M 82.8125 80.859375 
L 89.0625 73.828125 
Q 85.9375 73.828125 80.65625 73.046875 
Q 75.390625 72.265625 69.53125 71.484375 
L 69.53125 41.015625 
L 83.984375 41.015625 
L 89.84375 46.484375 
L 95.703125 38.671875 
L 69.53125 38.671875 
L 69.53125 4.6875 
Q 69.53125 -2.34375 70.3125 -8.203125 
L 63.671875 -10.15625 
Q 64.0625 2.34375 64.0625 38.671875 
L 49.21875 38.671875 
Q 44.140625 38.671875 39.84375 37.5 
L 36.328125 41.015625 
L 64.0625 41.015625 
L 64.0625 70.3125 
Q 55.078125 69.140625 42.1875 67.578125 
L 42.1875 69.140625 
Q 54.6875 71.09375 67.1875 74.796875 
Q 79.6875 78.515625 82.8125 80.859375 
z
M 12.890625 50.390625 
L 30.46875 50.78125 
Q 35.546875 58.203125 38.28125 64.84375 
L 44.921875 60.15625 
Q 41.796875 58.59375 36.125 50.96875 
Q 30.46875 43.359375 16.796875 27.34375 
Q 32.03125 28.90625 43.359375 30.078125 
L 43.359375 28.515625 
Q 32.421875 26.5625 24.21875 24.40625 
Q 16.015625 22.265625 11.71875 19.140625 
L 7.03125 26.953125 
Q 11.71875 27.734375 16.203125 32.609375 
Q 20.703125 37.5 28.90625 48.4375 
Q 25 48.4375 18.75 47.265625 
Q 12.5 46.09375 9.765625 43.75 
L 6.25 50.390625 
Q 9.375 50.390625 16.40625 61.515625 
Q 23.4375 72.65625 25.78125 80.46875 
L 33.203125 75.390625 
Q 29.6875 74.21875 25.1875 67.578125 
Q 20.703125 60.9375 12.890625 50.390625 
z
M 6.25 4.6875 
Q 13.671875 5.859375 21.484375 7.8125 
Q 29.296875 9.765625 45.3125 14.453125 
L 45.703125 12.890625 
Q 32.8125 8.203125 22.265625 3.90625 
Q 11.71875 -0.390625 10.9375 -2.34375 
z
" id="SimSun-7ea4"/>
      <path d="M 22.65625 -8.59375 
Q 23.046875 1.5625 23.046875 23.828125 
Q 23.046875 46.09375 22.65625 55.859375 
L 29.296875 52.734375 
L 41.015625 52.734375 
Q 44.921875 66.015625 45.3125 71.09375 
L 20.3125 71.09375 
Q 15.234375 71.09375 10.9375 69.921875 
L 7.421875 73.4375 
L 80.46875 73.4375 
L 85.546875 78.515625 
L 92.96875 71.09375 
L 49.21875 71.09375 
L 54.296875 67.96875 
Q 51.171875 67.578125 43.359375 52.734375 
L 70.703125 52.734375 
L 74.609375 56.640625 
L 80.078125 51.171875 
L 76.953125 48.828125 
L 76.953125 10.9375 
Q 76.953125 -0.78125 77.34375 -5.859375 
L 71.09375 -7.8125 
L 71.09375 0 
L 28.90625 0 
L 28.90625 -5.859375 
z
M 28.90625 50.390625 
L 28.90625 28.515625 
L 71.09375 28.515625 
L 71.09375 50.390625 
z
M 28.90625 26.171875 
L 28.90625 2.34375 
L 71.09375 2.34375 
L 71.09375 26.171875 
z
" id="SimSun-767e"/>
      <path d="M 24.609375 2.734375 
L 70.703125 3.515625 
Q 66.40625 11.328125 58.203125 21.484375 
L 59.375 22.65625 
Q 73.828125 10.9375 78.125 4.484375 
Q 82.421875 -1.953125 79.09375 -6.046875 
Q 75.78125 -10.15625 74.21875 -5.65625 
Q 72.65625 -1.171875 71.484375 1.5625 
Q 33.984375 -1.171875 28.90625 -2.34375 
Q 23.828125 -3.515625 21.09375 -5.46875 
L 16.796875 2.734375 
Q 19.921875 2.734375 24.609375 7.8125 
Q 29.296875 12.890625 37.296875 25 
Q 45.3125 37.109375 48.046875 46.484375 
L 56.640625 39.84375 
L 52.34375 37.890625 
Q 37.890625 16.015625 24.609375 2.734375 
z
M 37.109375 78.125 
L 46.09375 72.265625 
L 41.796875 69.921875 
Q 28.90625 42.578125 8.203125 28.90625 
L 7.03125 30.078125 
Q 21.484375 43.75 28.703125 56.828125 
Q 35.9375 69.921875 37.109375 78.125 
z
M 63.28125 78.125 
L 59.765625 75.78125 
Q 63.28125 63.671875 72.0625 52.140625 
Q 80.859375 40.625 94.140625 36.328125 
L 94.140625 35.15625 
Q 87.890625 35.15625 85.15625 30.46875 
Q 74.21875 39.0625 66.203125 51.5625 
Q 58.203125 64.0625 55.46875 80.859375 
z
" id="SimSun-516c"/>
      <path d="M 26.5625 71.484375 
L 26.5625 55.078125 
L 46.875 55.078125 
L 46.875 71.484375 
z
M 51.953125 71.484375 
L 51.953125 55.078125 
L 73.046875 55.078125 
L 73.046875 71.484375 
z
M 26.5625 52.734375 
L 26.5625 35.9375 
L 46.875 35.9375 
L 46.875 52.734375 
z
M 51.953125 52.734375 
L 51.953125 35.9375 
L 73.046875 35.9375 
L 73.046875 52.734375 
z
M 21.09375 26.953125 
Q 21.484375 39.453125 21.484375 52.53125 
Q 21.484375 65.625 21.09375 77.34375 
L 26.5625 73.828125 
L 72.265625 73.828125 
L 75 77.734375 
L 81.640625 72.65625 
L 78.125 69.921875 
Q 78.125 41.40625 78.515625 30.859375 
L 73.046875 28.515625 
L 73.046875 33.59375 
L 51.953125 33.59375 
L 51.953125 17.1875 
L 73.046875 17.1875 
L 79.296875 23.046875 
L 86.71875 14.84375 
L 51.953125 14.84375 
L 51.953125 -3.125 
L 81.25 -3.125 
L 87.5 3.125 
L 95.3125 -5.46875 
L 17.96875 -5.46875 
Q 12.890625 -5.46875 8.59375 -6.640625 
L 5.078125 -3.125 
L 46.875 -3.125 
L 46.875 14.84375 
L 26.953125 14.84375 
Q 21.875 14.84375 17.578125 13.671875 
L 14.0625 17.1875 
L 46.875 17.1875 
L 46.875 33.59375 
L 26.5625 33.59375 
L 26.5625 29.296875 
z
" id="SimSun-91cc"/>
      <path d="M 61.71875 54.296875 
Q 63.28125 32.8125 70.703125 17.578125 
Q 77.734375 30.859375 79.296875 54.296875 
z
M 62.890625 81.25 
L 72.265625 76.5625 
L 68.359375 74.21875 
Q 67.1875 69.921875 62.109375 56.640625 
L 83.984375 56.640625 
L 88.28125 60.9375 
L 94.921875 54.296875 
L 85.15625 54.296875 
Q 82.421875 26.953125 73.828125 12.890625 
Q 83.984375 0.390625 95.703125 -1.5625 
L 95.703125 -3.125 
Q 89.453125 -3.90625 88.28125 -7.8125 
Q 77.734375 -1.171875 70.703125 8.984375 
Q 57.03125 -3.125 38.671875 -8.984375 
L 37.890625 -7.8125 
Q 55.859375 0 67.96875 13.28125 
Q 61.328125 26.953125 59.765625 51.5625 
Q 55.859375 41.796875 49.609375 33.59375 
L 48.4375 34.375 
Q 58.203125 53.90625 62.890625 81.25 
z
M 44.53125 30.859375 
Q 44.53125 9.375 44.921875 1.171875 
L 39.453125 -1.171875 
L 39.453125 4.6875 
L 19.140625 4.6875 
L 19.140625 -2.34375 
L 13.671875 -4.6875 
Q 14.0625 5.859375 14.0625 16.40625 
Q 14.0625 26.953125 13.671875 37.5 
L 19.53125 34.375 
L 27.734375 34.375 
L 27.734375 53.90625 
L 12.109375 53.90625 
L 8.59375 53.125 
L 5.46875 56.25 
L 27.734375 56.25 
Q 27.734375 68.359375 27.34375 80.078125 
L 35.9375 75.390625 
L 32.8125 73.046875 
L 32.8125 56.25 
L 42.578125 56.25 
L 46.875 60.546875 
L 53.515625 53.90625 
L 32.8125 53.90625 
L 32.8125 34.375 
L 39.0625 34.375 
L 42.1875 37.890625 
L 47.65625 32.8125 
z
M 19.140625 32.03125 
L 19.140625 7.03125 
L 39.453125 7.03125 
L 39.453125 32.03125 
z
" id="SimSun-6545"/>
      <path d="M 47.265625 40.625 
L 47.265625 32.03125 
L 79.6875 32.03125 
L 79.6875 40.625 
z
M 47.265625 29.6875 
L 47.265625 21.484375 
L 79.6875 21.484375 
L 79.6875 29.6875 
z
M 41.796875 46.09375 
L 47.265625 42.96875 
L 79.296875 42.96875 
L 82.03125 46.484375 
L 87.890625 41.40625 
L 84.765625 39.0625 
Q 84.765625 23.828125 85.15625 17.1875 
L 79.6875 15.234375 
L 79.6875 19.140625 
L 65.234375 19.140625 
L 65.234375 10.15625 
L 83.984375 10.15625 
L 89.0625 15.234375 
L 95.703125 7.8125 
L 65.234375 7.8125 
Q 65.234375 -3.515625 65.625 -7.8125 
L 59.765625 -10.15625 
Q 60.15625 -1.953125 60.15625 7.8125 
L 43.75 7.8125 
Q 38.671875 7.8125 34.375 6.640625 
L 30.859375 10.15625 
L 60.15625 10.15625 
L 60.15625 19.140625 
L 47.265625 19.140625 
L 47.265625 17.1875 
L 41.796875 15.234375 
Q 42.1875 22.65625 42.1875 31.25 
Q 42.1875 39.84375 41.796875 46.09375 
z
M 38.671875 69.140625 
L 60.546875 69.140625 
Q 60.15625 74.609375 55.46875 80.859375 
L 56.25 81.640625 
Q 62.890625 78.515625 65.03125 75.578125 
Q 67.1875 72.65625 63.28125 69.140625 
L 77.34375 69.140625 
L 81.640625 73.4375 
L 88.28125 66.796875 
L 51.5625 66.796875 
Q 46.484375 66.796875 42.1875 65.625 
z
M 47.265625 65.234375 
L 48.046875 66.015625 
Q 53.515625 62.890625 56.046875 59.765625 
Q 58.59375 56.640625 55.65625 53.3125 
Q 52.734375 50 51.75 55.265625 
Q 50.78125 60.546875 47.265625 65.234375 
z
M 72.65625 67.1875 
L 79.296875 62.5 
Q 76.171875 60.9375 73.625 58 
Q 71.09375 55.078125 68.359375 51.5625 
L 83.59375 51.5625 
L 88.671875 56.25 
L 95.3125 49.21875 
L 44.53125 49.21875 
Q 39.453125 49.21875 35.15625 48.046875 
L 31.640625 51.5625 
L 66.40625 51.5625 
Q 71.484375 62.890625 72.65625 67.1875 
z
M 22.65625 48.046875 
Q 28.90625 42.1875 32.03125 36.125 
Q 35.15625 30.078125 34.5625 25 
Q 33.984375 19.921875 31.4375 16.796875 
Q 28.90625 13.671875 23.046875 12.5 
Q 22.65625 17.1875 15.625 19.53125 
L 15.625 21.09375 
Q 21.484375 19.921875 24.796875 20.109375 
Q 28.125 20.3125 28.90625 25.96875 
Q 29.6875 31.640625 27.34375 36.90625 
Q 25 42.1875 20.703125 48.046875 
L 26.171875 71.09375 
L 14.453125 71.09375 
L 14.453125 -7.03125 
L 8.984375 -9.375 
Q 9.375 8.59375 9.375 33.59375 
Q 9.375 58.59375 8.984375 76.5625 
L 14.453125 73.4375 
L 26.171875 73.4375 
L 29.296875 76.953125 
L 35.15625 71.484375 
L 31.640625 69.53125 
z
" id="SimSun-969c"/>
      <path d="M 42.1875 70.3125 
L 42.1875 53.90625 
L 52.734375 53.90625 
L 52.734375 70.3125 
z
M 42.1875 51.5625 
L 42.1875 35.9375 
L 52.734375 35.9375 
L 52.734375 51.5625 
z
M 42.1875 11.328125 
L 53.515625 18.75 
Q 52.34375 21.484375 47.265625 27.734375 
L 47.65625 28.90625 
Q 55.46875 23.828125 58.78125 20.109375 
Q 62.109375 16.40625 59.765625 12.5 
Q 57.421875 8.59375 56.4375 11.328125 
Q 55.46875 14.0625 54.296875 17.1875 
Q 45.3125 9.375 40.234375 2.34375 
L 36.328125 7.421875 
Q 37.5 9.765625 37.5 14.84375 
L 37.5 54.296875 
Q 37.5 62.109375 37.109375 75.390625 
L 42.1875 72.65625 
L 52.34375 72.65625 
L 55.46875 75.78125 
L 60.546875 70.703125 
L 57.03125 68.75 
Q 57.03125 44.140625 57.421875 33.59375 
L 52.734375 30.859375 
L 52.734375 33.59375 
L 42.1875 33.59375 
z
M 78.515625 37.5 
L 77.34375 32.421875 
L 83.59375 28.90625 
L 80.859375 26.171875 
L 80.859375 1.5625 
Q 80.859375 -1.953125 83.59375 -1.953125 
L 86.328125 -1.953125 
Q 89.84375 -1.953125 90.03125 2.53125 
Q 90.234375 7.03125 90.234375 12.890625 
L 92.1875 12.890625 
Q 92.1875 7.03125 93.15625 3.515625 
Q 94.140625 0 96.09375 -1.171875 
Q 94.921875 -3.90625 92.96875 -5.078125 
Q 91.015625 -6.25 87.890625 -6.25 
L 81.640625 -6.25 
Q 76.171875 -6.25 76.171875 0 
L 76.171875 28.515625 
Q 67.96875 1.171875 41.40625 -10.15625 
L 41.015625 -8.984375 
Q 66.796875 5.46875 73.4375 37.5 
L 66.015625 37.5 
L 63.28125 35.15625 
L 58.984375 39.84375 
Q 61.328125 41.015625 62.6875 46.484375 
Q 64.0625 51.953125 66.015625 63.671875 
L 71.875 60.15625 
Q 69.921875 59.375 69.140625 55.65625 
Q 68.359375 51.953125 65.625 39.84375 
L 73.828125 39.84375 
Q 75 48.4375 75.78125 70.3125 
L 69.140625 70.3125 
L 65.625 69.53125 
L 62.5 72.65625 
L 84.375 72.65625 
L 88.28125 76.5625 
L 94.53125 70.3125 
L 80.859375 70.3125 
Q 79.6875 48.4375 78.90625 39.84375 
L 84.375 39.84375 
L 88.671875 44.140625 
L 95.3125 37.5 
z
M 24.21875 12.109375 
Q 24.21875 6.640625 24.609375 -7.03125 
L 19.140625 -9.765625 
Q 19.53125 13.28125 19.53125 37.5 
Q 14.453125 23.828125 4.6875 11.71875 
L 3.90625 12.890625 
Q 8.984375 21.875 12.890625 32.21875 
Q 16.796875 42.578125 19.140625 55.859375 
L 12.109375 55.859375 
L 8.59375 55.078125 
L 5.46875 58.203125 
L 19.53125 58.203125 
Q 19.53125 68.75 19.140625 82.421875 
L 27.34375 78.125 
L 24.21875 75.78125 
L 24.21875 58.203125 
L 26.171875 58.203125 
L 30.078125 62.109375 
L 36.328125 55.859375 
L 24.21875 55.859375 
L 24.21875 46.875 
Q 31.640625 43.75 34.5625 40.8125 
Q 37.5 37.890625 35.546875 33.203125 
Q 33.59375 28.515625 31.25 34.171875 
Q 28.90625 39.84375 24.21875 44.53125 
z
" id="SimSun-6982"/>
      <path d="M 13.671875 58.203125 
L 14.453125 59.375 
Q 21.484375 57.03125 24.796875 54.6875 
Q 28.125 52.34375 26.171875 47.65625 
Q 24.21875 42.96875 22.0625 47.453125 
Q 19.921875 51.953125 13.671875 58.203125 
z
M 8.59375 28.90625 
Q 13.671875 30.078125 31.25 40.234375 
L 32.03125 39.0625 
Q 26.171875 34.765625 20.890625 30.265625 
Q 15.625 25.78125 13.671875 22.265625 
z
M 81.25 53.90625 
Q 75 49.21875 66.796875 43.75 
L 66.015625 44.921875 
Q 74.609375 53.125 78.90625 61.328125 
L 85.15625 55.078125 
z
M 67.578125 39.0625 
L 67.96875 40.234375 
Q 81.640625 36.71875 84.5625 33.984375 
Q 87.5 31.25 85.9375 26.75 
Q 84.375 22.265625 81.046875 27.921875 
Q 77.734375 33.59375 67.578125 39.0625 
z
M 49.21875 60.9375 
Q 39.0625 51.5625 35.9375 49.21875 
Q 43.75 49.21875 53.125 49.609375 
Q 57.8125 54.6875 60.15625 59.765625 
L 66.40625 53.90625 
Q 63.28125 53.125 53.90625 44.140625 
Q 44.53125 35.15625 38.671875 30.46875 
Q 49.21875 30.859375 60.15625 31.25 
Q 58.59375 33.984375 55.46875 38.28125 
L 56.25 39.0625 
Q 63.28125 35.15625 66.203125 32.21875 
Q 69.140625 29.296875 66.59375 25.578125 
Q 64.0625 21.875 63.28125 24.21875 
Q 62.5 26.5625 60.9375 29.6875 
Q 57.03125 29.296875 48.046875 28.125 
L 54.6875 24.21875 
L 51.953125 22.265625 
L 51.953125 15.234375 
L 83.203125 15.234375 
L 88.28125 20.3125 
L 95.3125 12.890625 
L 51.953125 12.890625 
Q 51.953125 -4.296875 52.34375 -8.203125 
L 46.484375 -10.15625 
Q 46.875 0 46.875 12.890625 
L 17.578125 12.890625 
Q 12.5 12.890625 8.203125 11.71875 
L 4.6875 15.234375 
L 46.875 15.234375 
L 46.875 27.734375 
Q 38.28125 26.5625 34.375 23.828125 
L 30.46875 30.46875 
Q 35.546875 30.46875 41.796875 36.71875 
Q 48.046875 42.96875 51.953125 47.65625 
Q 37.5 46.09375 33.59375 43.359375 
L 30.46875 49.609375 
Q 33.59375 49.21875 38.671875 55.859375 
Q 43.75 62.5 45.3125 66.015625 
L 22.65625 66.015625 
Q 17.578125 66.015625 13.28125 64.84375 
L 9.765625 68.359375 
L 48.4375 68.359375 
Q 47.65625 75 41.796875 81.25 
L 42.578125 82.03125 
Q 50.390625 78.90625 52.921875 75.78125 
Q 55.46875 72.65625 50.78125 68.359375 
L 78.515625 68.359375 
L 83.59375 73.046875 
L 90.234375 66.015625 
L 47.65625 66.015625 
L 52.734375 61.71875 
z
" id="SimSun-7387"/>
     </defs>
     <g transform="translate(56.1775 117.515472)scale(0.07 -0.07)">
      <use xlink:href="#SimSun-5149"/>
      <use x="100" xlink:href="#SimSun-7ea4"/>
      <use x="200" xlink:href="#SimSun-767e"/>
      <use x="300" xlink:href="#SimSun-516c"/>
      <use x="400" xlink:href="#SimSun-91cc"/>
      <use x="500" xlink:href="#SimSun-6545"/>
      <use x="600" xlink:href="#SimSun-969c"/>
      <use x="700" xlink:href="#SimSun-6982"/>
      <use x="800" xlink:href="#SimSun-7387"/>
     </g>
    </g>
   </g>
   <g id="matplotlib.axis_2">
    <g id="ytick_1">
     <g id="line2d_7">
      <defs>
       <path d="M 0 0 
L 3.5 0 
" id="m124a5d834e" style="stroke:#000000;stroke-width:0.8;"/>
      </defs>
      <g>
       <use style="stroke:#000000;stroke-width:0.8;" x="22.92625" xlink:href="#m124a5d834e" y="93.755905"/>
      </g>
     </g>
     <g id="text_8">
      <!-- 0.0 -->
      <g transform="translate(10.480469 96.185124)scale(0.07 -0.07)">
       <use xlink:href="#Euclid-30"/>
       <use x="49.999985" xlink:href="#Euclid-2e"/>
       <use x="77.799973" xlink:href="#Euclid-30"/>
      </g>
     </g>
    </g>
    <g id="ytick_2">
     <g id="line2d_8">
      <g>
       <use style="stroke:#000000;stroke-width:0.8;" x="22.92625" xlink:href="#m124a5d834e" y="51.093002"/>
      </g>
     </g>
     <g id="text_9">
      <!-- 0.2 -->
      <g transform="translate(10.480469 53.522221)scale(0.07 -0.07)">
       <use xlink:href="#Euclid-30"/>
       <use x="49.999985" xlink:href="#Euclid-2e"/>
       <use x="77.799973" xlink:href="#Euclid-32"/>
      </g>
     </g>
    </g>
    <g id="ytick_3">
     <g id="line2d_9">
      <g>
       <use style="stroke:#000000;stroke-width:0.8;" x="22.92625" xlink:href="#m124a5d834e" y="8.430099"/>
      </g>
     </g>
     <g id="text_10">
      <!-- 0.4 -->
      <g transform="translate(10.480469 10.859318)scale(0.07 -0.07)">
       <use xlink:href="#Euclid-30"/>
       <use x="49.999985" xlink:href="#Euclid-2e"/>
       <use x="77.799973" xlink:href="#Euclid-34"/>
      </g>
     </g>
    </g>
    <g id="text_11">
     <!-- 故障出现概率 -->
     <defs>
      <path d="M 80.859375 62.109375 
L 80.859375 46.875 
Q 80.859375 42.96875 81.640625 35.9375 
L 75.390625 33.59375 
L 75.390625 38.28125 
L 52.34375 38.28125 
L 52.34375 0.390625 
L 79.296875 0.390625 
L 79.296875 17.578125 
Q 79.296875 23.046875 78.90625 29.6875 
L 87.890625 24.609375 
L 84.765625 22.265625 
L 84.765625 7.8125 
Q 84.765625 0.78125 85.15625 -6.25 
L 79.296875 -8.203125 
L 79.296875 -1.953125 
L 20.703125 -1.953125 
L 17.96875 -4.6875 
L 12.5 -0.390625 
L 15.234375 2.34375 
L 15.234375 17.578125 
Q 15.234375 23.4375 14.84375 30.46875 
L 23.828125 25.78125 
L 20.703125 23.046875 
L 20.703125 0.390625 
L 46.875 0.390625 
L 46.875 38.28125 
L 24.21875 38.28125 
L 21.09375 35.546875 
L 15.625 39.84375 
L 18.359375 42.1875 
L 18.359375 58.203125 
Q 18.359375 62.890625 17.96875 68.359375 
L 27.34375 63.671875 
L 23.828125 61.328125 
L 23.828125 40.625 
L 46.875 40.625 
L 46.875 66.40625 
Q 46.875 73.4375 46.484375 80.078125 
L 55.46875 75.78125 
L 52.34375 72.265625 
L 52.34375 40.625 
L 75.390625 40.625 
L 75.390625 58.203125 
Q 75.390625 62.890625 75 69.140625 
L 83.984375 64.84375 
z
" id="SimSun-51fa"/>
      <path d="M 43.75 19.921875 
Q 44.140625 26.953125 44.140625 48.625 
Q 44.140625 70.3125 43.75 77.734375 
L 49.21875 74.21875 
L 78.125 74.21875 
L 80.859375 78.125 
L 86.71875 73.4375 
L 83.984375 71.09375 
Q 83.984375 32.421875 84.375 26.171875 
L 78.90625 23.4375 
L 78.90625 71.875 
L 49.21875 71.875 
L 49.21875 22.265625 
z
M 60.15625 61.328125 
L 69.53125 57.421875 
L 66.015625 54.296875 
Q 65.625 23.4375 57.421875 11.328125 
Q 49.21875 -0.78125 26.5625 -9.765625 
L 25.78125 -8.59375 
Q 46.875 2.734375 53.703125 15.421875 
Q 60.546875 28.125 60.15625 61.328125 
z
M 66.796875 32.03125 
L 74.609375 28.125 
L 71.875 25.390625 
L 71.875 2.734375 
Q 71.875 -2.34375 76.171875 -1.953125 
L 85.15625 -1.953125 
Q 87.5 -1.953125 88.28125 3.3125 
Q 89.0625 8.59375 89.84375 17.578125 
L 91.40625 17.578125 
Q 91.40625 12.5 91.796875 5.859375 
Q 92.1875 -0.78125 96.09375 -1.5625 
Q 92.96875 -7.03125 87.890625 -6.640625 
L 73.4375 -6.640625 
Q 67.1875 -6.640625 66.796875 0.78125 
z
M 4.6875 71.09375 
L 28.90625 71.09375 
L 33.984375 75.78125 
L 40.234375 68.75 
L 24.21875 68.75 
L 24.21875 44.140625 
L 28.90625 44.140625 
L 33.203125 48.4375 
L 39.453125 41.796875 
L 24.21875 41.796875 
L 24.21875 15.625 
L 39.0625 21.09375 
L 39.453125 19.53125 
Q 13.671875 7.421875 9.375 1.953125 
L 4.6875 9.375 
Q 13.28125 11.71875 19.140625 14.0625 
L 19.140625 41.796875 
Q 14.0625 41.796875 9.765625 40.625 
L 6.25 44.140625 
L 19.140625 44.140625 
L 19.140625 68.75 
L 17.578125 68.75 
Q 12.5 68.75 8.203125 67.578125 
z
" id="SimSun-73b0"/>
     </defs>
     <g transform="translate(5.578125 70.110236)rotate(-90)scale(0.07 -0.07)">
      <use xlink:href="#SimSun-6545"/>
      <use x="100" xlink:href="#SimSun-969c"/>
      <use x="200" xlink:href="#SimSun-51fa"/>
      <use x="300" xlink:href="#SimSun-73b0"/>
      <use x="400" xlink:href="#SimSun-6982"/>
      <use x="500" xlink:href="#SimSun-7387"/>
     </g>
    </g>
   </g>
   <g id="line2d_10">
    <path clip-path="url(#p2b3c592354)" d="M 28.812727 93.755905 
L 40.585682 82.68891 
L 52.358636 72.154581 
L 64.131591 62.129888 
L 75.904545 52.59265 
L 87.6775 43.521512 
L 99.450455 34.895919 
L 111.223409 26.696091 
L 122.996364 18.903003 
L 134.769318 11.498358 
L 146.542273 4.464567 
" style="fill:none;stroke:#0000ff;stroke-linecap:square;stroke-width:0.5;"/>
    <defs>
     <path d="M -2 0 
L 2 0 
M 0 2 
L 0 -2 
" id="m4c732725b6" style="stroke:#0000ff;"/>
    </defs>
    <g clip-path="url(#p2b3c592354)">
     <use style="fill:#0000ff;stroke:#0000ff;" x="28.812727" xlink:href="#m4c732725b6" y="93.755905"/>
     <use style="fill:#0000ff;stroke:#0000ff;" x="40.585682" xlink:href="#m4c732725b6" y="82.68891"/>
     <use style="fill:#0000ff;stroke:#0000ff;" x="52.358636" xlink:href="#m4c732725b6" y="72.154581"/>
     <use style="fill:#0000ff;stroke:#0000ff;" x="64.131591" xlink:href="#m4c732725b6" y="62.129888"/>
     <use style="fill:#0000ff;stroke:#0000ff;" x="75.904545" xlink:href="#m4c732725b6" y="52.59265"/>
     <use style="fill:#0000ff;stroke:#0000ff;" x="87.6775" xlink:href="#m4c732725b6" y="43.521512"/>
     <use style="fill:#0000ff;stroke:#0000ff;" x="99.450455" xlink:href="#m4c732725b6" y="34.895919"/>
     <use style="fill:#0000ff;stroke:#0000ff;" x="111.223409" xlink:href="#m4c732725b6" y="26.696091"/>
     <use style="fill:#0000ff;stroke:#0000ff;" x="122.996364" xlink:href="#m4c732725b6" y="18.903003"/>
     <use style="fill:#0000ff;stroke:#0000ff;" x="134.769318" xlink:href="#m4c732725b6" y="11.498358"/>
     <use style="fill:#0000ff;stroke:#0000ff;" x="146.542273" xlink:href="#m4c732725b6" y="4.464567"/>
    </g>
   </g>
   <g id="line2d_11">
    <path clip-path="url(#p2b3c592354)" d="M 28.812727 93.755905 
L 40.585682 84.811535 
L 52.358636 76.208782 
L 64.131591 67.935861 
L 75.904545 59.981342 
L 87.6775 52.334134 
L 99.450455 44.983483 
L 111.223409 37.91896 
L 122.996364 31.130457 
L 134.769318 24.608174 
L 146.542273 18.342616 
" style="fill:none;stroke:#008000;stroke-linecap:square;"/>
    <defs>
     <path d="M -1 1 
L 1 1 
L 1 -1 
L -1 -1 
z
" id="me1c5b28186" style="stroke:#008000;stroke-linejoin:miter;"/>
    </defs>
    <g clip-path="url(#p2b3c592354)">
     <use style="fill:#008000;stroke:#008000;stroke-linejoin:miter;" x="28.812727" xlink:href="#me1c5b28186" y="93.755905"/>
     <use style="fill:#008000;stroke:#008000;stroke-linejoin:miter;" x="40.585682" xlink:href="#me1c5b28186" y="84.811535"/>
     <use style="fill:#008000;stroke:#008000;stroke-linejoin:miter;" x="52.358636" xlink:href="#me1c5b28186" y="76.208782"/>
     <use style="fill:#008000;stroke:#008000;stroke-linejoin:miter;" x="64.131591" xlink:href="#me1c5b28186" y="67.935861"/>
     <use style="fill:#008000;stroke:#008000;stroke-linejoin:miter;" x="75.904545" xlink:href="#me1c5b28186" y="59.981342"/>
     <use style="fill:#008000;stroke:#008000;stroke-linejoin:miter;" x="87.6775" xlink:href="#me1c5b28186" y="52.334134"/>
     <use style="fill:#008000;stroke:#008000;stroke-linejoin:miter;" x="99.450455" xlink:href="#me1c5b28186" y="44.983483"/>
     <use style="fill:#008000;stroke:#008000;stroke-linejoin:miter;" x="111.223409" xlink:href="#me1c5b28186" y="37.91896"/>
     <use style="fill:#008000;stroke:#008000;stroke-linejoin:miter;" x="122.996364" xlink:href="#me1c5b28186" y="31.130457"/>
     <use style="fill:#008000;stroke:#008000;stroke-linejoin:miter;" x="134.769318" xlink:href="#me1c5b28186" y="24.608174"/>
     <use style="fill:#008000;stroke:#008000;stroke-linejoin:miter;" x="146.542273" xlink:href="#me1c5b28186" y="18.342616"/>
    </g>
   </g>
   <g id="line2d_12">
    <path clip-path="url(#p2b3c592354)" d="M 28.812727 93.755905 
L 40.585682 84.397452 
L 52.358636 75.415894 
L 64.131591 66.797055 
L 75.904545 58.527243 
L 87.6775 50.593239 
L 99.450455 42.982278 
L 111.223409 35.682043 
L 122.996364 28.680645 
L 134.769318 21.966615 
L 146.542273 15.528893 
" style="fill:none;stroke:#bfbf00;stroke-linecap:square;stroke-width:0.5;"/>
    <defs>
     <path d="M 0 1 
C 0.265203 1 0.51958 0.894634 0.707107 0.707107 
C 0.894634 0.51958 1 0.265203 1 0 
C 1 -0.265203 0.894634 -0.51958 0.707107 -0.707107 
C 0.51958 -0.894634 0.265203 -1 0 -1 
C -0.265203 -1 -0.51958 -0.894634 -0.707107 -0.707107 
C -0.894634 -0.51958 -1 -0.265203 -1 0 
C -1 0.265203 -0.894634 0.51958 -0.707107 0.707107 
C -0.51958 0.894634 -0.265203 1 0 1 
z
" id="m7ec4f0d523" style="stroke:#bfbf00;"/>
    </defs>
    <g clip-path="url(#p2b3c592354)">
     <use style="fill:#bfbf00;stroke:#bfbf00;" x="28.812727" xlink:href="#m7ec4f0d523" y="93.755905"/>
     <use style="fill:#bfbf00;stroke:#bfbf00;" x="40.585682" xlink:href="#m7ec4f0d523" y="84.397452"/>
     <use style="fill:#bfbf00;stroke:#bfbf00;" x="52.358636" xlink:href="#m7ec4f0d523" y="75.415894"/>
     <use style="fill:#bfbf00;stroke:#bfbf00;" x="64.131591" xlink:href="#m7ec4f0d523" y="66.797055"/>
     <use style="fill:#bfbf00;stroke:#bfbf00;" x="75.904545" xlink:href="#m7ec4f0d523" y="58.527243"/>
     <use style="fill:#bfbf00;stroke:#bfbf00;" x="87.6775" xlink:href="#m7ec4f0d523" y="50.593239"/>
     <use style="fill:#bfbf00;stroke:#bfbf00;" x="99.450455" xlink:href="#m7ec4f0d523" y="42.982278"/>
     <use style="fill:#bfbf00;stroke:#bfbf00;" x="111.223409" xlink:href="#m7ec4f0d523" y="35.682043"/>
     <use style="fill:#bfbf00;stroke:#bfbf00;" x="122.996364" xlink:href="#m7ec4f0d523" y="28.680645"/>
     <use style="fill:#bfbf00;stroke:#bfbf00;" x="134.769318" xlink:href="#m7ec4f0d523" y="21.966615"/>
     <use style="fill:#bfbf00;stroke:#bfbf00;" x="146.542273" xlink:href="#m7ec4f0d523" y="15.528893"/>
    </g>
   </g>
   <g id="patch_3">
    <path d="M 22.92625 98.220472 
L 22.92625 0 
" style="fill:none;stroke:#000000;stroke-linecap:square;stroke-linejoin:miter;stroke-width:0.5;"/>
   </g>
   <g id="patch_4">
    <path d="M 152.42875 98.220472 
L 152.42875 0 
" style="fill:none;stroke:#000000;stroke-linecap:square;stroke-linejoin:miter;stroke-width:0.5;"/>
   </g>
   <g id="patch_5">
    <path d="M 22.92625 98.220472 
L 152.42875 98.220472 
" style="fill:none;stroke:#000000;stroke-linecap:square;stroke-linejoin:miter;stroke-width:0.5;"/>
   </g>
   <g id="patch_6">
    <path d="M 22.92625 0 
L 152.42875 0 
" style="fill:none;stroke:#000000;stroke-linecap:square;stroke-linejoin:miter;stroke-width:0.5;"/>
   </g>
   <g id="text_12">
    <!-- (c) p=0.03时三种算法在COST239中的比较 -->
    <defs>
     <path d="M 45.3125 78.515625 
Q 36.328125 69.140625 31.828125 58.390625 
Q 27.34375 47.65625 27.34375 35.9375 
Q 27.34375 23.828125 31.828125 13.28125 
Q 36.328125 2.734375 45.3125 -6.640625 
L 43.359375 -8.59375 
Q 32.421875 1.171875 26.953125 12.296875 
Q 21.484375 23.4375 21.484375 35.9375 
Q 21.484375 48.046875 26.953125 59.171875 
Q 32.421875 70.3125 43.359375 80.46875 
z
" id="SimSun-28"/>
     <path d="M 33.59375 34.765625 
Q 33.59375 35.9375 33.78125 36.328125 
Q 33.984375 36.71875 34.375 37.890625 
Q 34.765625 39.453125 32.8125 41.59375 
Q 30.859375 43.75 26.171875 43.75 
Q 20.3125 43.75 16.203125 38.078125 
Q 12.109375 32.421875 12.109375 23.046875 
Q 12.109375 14.453125 15.625 9.171875 
Q 19.140625 3.90625 27.34375 3.90625 
Q 32.8125 3.90625 36.515625 7.421875 
Q 40.234375 10.9375 41.796875 15.625 
L 43.75 14.84375 
Q 42.1875 8.984375 37.890625 4.875 
Q 33.59375 0.78125 26.171875 0.78125 
Q 16.796875 0.78125 11.328125 6.640625 
Q 5.859375 12.5 5.859375 23.4375 
Q 5.859375 33.203125 11.71875 39.640625 
Q 17.578125 46.09375 26.953125 46.09375 
Q 33.59375 46.09375 37.296875 42.578125 
Q 41.015625 39.0625 41.015625 35.546875 
Q 41.015625 33.203125 40.03125 32.21875 
Q 39.0625 31.25 37.109375 31.25 
Q 35.546875 31.25 34.5625 32.21875 
Q 33.59375 33.203125 33.59375 34.765625 
z
" id="SimSun-63"/>
     <path d="M 4.296875 78.515625 
L 6.25 80.46875 
Q 17.1875 70.3125 22.65625 59.171875 
Q 28.125 48.046875 28.125 35.9375 
Q 28.125 23.4375 22.65625 12.296875 
Q 17.1875 1.171875 6.25 -8.59375 
L 4.296875 -6.640625 
Q 13.28125 2.734375 17.765625 13.28125 
Q 22.265625 23.828125 22.265625 35.9375 
Q 22.265625 47.65625 17.765625 58.390625 
Q 13.28125 69.140625 4.296875 78.515625 
z
" id="SimSun-29"/>
     <path id="SimSun-20"/>
     <path d="M 17.96875 -10.546875 
L 20.703125 -10.546875 
L 20.703125 -12.890625 
L 2.734375 -12.890625 
L 2.734375 -10.546875 
L 5.078125 -10.546875 
Q 7.03125 -10.546875 7.8125 -9.765625 
Q 8.59375 -8.984375 8.59375 -7.03125 
L 8.59375 39.0625 
Q 8.59375 40.625 7.8125 41.59375 
Q 7.03125 42.578125 5.078125 42.578125 
L 2.734375 42.578125 
L 2.734375 44.921875 
L 6.25 44.921875 
Q 8.203125 44.921875 9.953125 45.3125 
Q 11.71875 45.703125 13.28125 46.875 
L 14.0625 46.875 
L 14.0625 37.890625 
Q 16.796875 41.796875 20.109375 43.75 
Q 23.4375 45.703125 27.34375 45.703125 
Q 35.15625 45.703125 40.234375 40.421875 
Q 45.3125 35.15625 45.3125 23.828125 
Q 45.3125 12.890625 39.84375 7.03125 
Q 34.375 1.171875 26.953125 1.171875 
Q 22.65625 1.171875 19.71875 2.53125 
Q 16.796875 3.90625 14.0625 6.640625 
L 14.0625 -7.03125 
Q 14.0625 -8.984375 15.234375 -9.765625 
Q 16.40625 -10.546875 17.96875 -10.546875 
z
M 14.0625 11.71875 
Q 16.015625 7.8125 18.9375 5.859375 
Q 21.875 3.90625 25.78125 3.90625 
Q 31.25 3.90625 35.15625 8.78125 
Q 39.0625 13.671875 39.0625 23.828125 
Q 39.0625 33.203125 36.125 37.890625 
Q 33.203125 42.578125 27.34375 42.578125 
Q 23.828125 42.578125 20.3125 40.421875 
Q 16.796875 38.28125 14.0625 33.59375 
z
" id="SimSun-70"/>
     <path d="M 3.125 44.140625 
L 3.125 47.65625 
L 46.484375 47.65625 
L 46.484375 44.140625 
z
M 3.125 24.21875 
L 3.125 27.734375 
L 46.484375 27.734375 
L 46.484375 24.21875 
z
" id="SimSun-3d"/>
     <path d="M 25 66.015625 
Q 19.53125 66.015625 15.8125 57.609375 
Q 12.109375 49.21875 12.109375 35.15625 
Q 12.109375 20.3125 15.8125 12.109375 
Q 19.53125 3.90625 25 3.90625 
Q 30.859375 3.90625 34.171875 12.109375 
Q 37.5 20.3125 37.5 35.15625 
Q 37.5 49.21875 34.375 57.609375 
Q 31.25 66.015625 25 66.015625 
z
M 25 0.78125 
Q 16.40625 0.78125 10.546875 9.765625 
Q 4.6875 18.75 4.6875 35.15625 
Q 4.6875 50.390625 10.34375 59.765625 
Q 16.015625 69.140625 25 69.140625 
Q 33.59375 69.140625 39.25 60.15625 
Q 44.921875 51.171875 44.921875 35.15625 
Q 44.921875 19.140625 39.25 9.953125 
Q 33.59375 0.78125 25 0.78125 
z
" id="SimSun-30"/>
     <path d="M 12.5 0.390625 
Q 10.15625 0.390625 8.390625 1.953125 
Q 6.640625 3.515625 6.640625 6.25 
Q 6.640625 8.984375 8.390625 10.546875 
Q 10.15625 12.109375 12.5 12.109375 
Q 14.84375 12.109375 16.59375 10.34375 
Q 18.359375 8.59375 18.359375 6.25 
Q 18.359375 3.515625 16.59375 1.953125 
Q 14.84375 0.390625 12.5 0.390625 
z
" id="SimSun-2e"/>
     <path d="M 43.75 19.53125 
Q 43.75 12.109375 38.28125 6.4375 
Q 32.8125 0.78125 23.046875 0.78125 
Q 16.015625 0.78125 10.9375 4.6875 
Q 5.859375 8.59375 5.859375 13.671875 
Q 5.859375 16.015625 7.421875 17.765625 
Q 8.984375 19.53125 10.546875 19.53125 
Q 12.890625 19.53125 13.859375 17.765625 
Q 14.84375 16.015625 14.84375 14.84375 
Q 14.84375 12.890625 14.0625 11.515625 
Q 13.28125 10.15625 13.28125 8.984375 
Q 13.28125 6.640625 16.203125 5.078125 
Q 19.140625 3.515625 22.65625 3.515625 
Q 29.6875 3.515625 33.203125 7.609375 
Q 36.71875 11.71875 36.71875 20.3125 
Q 36.71875 27.34375 33 31.640625 
Q 29.296875 35.9375 19.140625 35.9375 
L 19.140625 38.671875 
Q 26.953125 38.671875 30.65625 42.375 
Q 34.375 46.09375 34.375 52.734375 
Q 34.375 58.203125 31.4375 62.296875 
Q 28.515625 66.40625 22.265625 66.40625 
Q 19.53125 66.40625 16.40625 65.03125 
Q 13.28125 63.671875 13.28125 60.546875 
Q 13.28125 57.421875 14.0625 56.640625 
Q 14.84375 55.859375 14.84375 54.6875 
Q 14.84375 52.734375 14.0625 51.5625 
Q 13.28125 50.390625 11.328125 50.390625 
Q 9.765625 50.390625 8.390625 51.5625 
Q 7.03125 52.734375 7.03125 55.859375 
Q 7.03125 61.71875 12.109375 65.421875 
Q 17.1875 69.140625 23.828125 69.140625 
Q 31.640625 69.140625 36.328125 64.25 
Q 41.015625 59.375 41.015625 53.90625 
Q 41.015625 48.046875 38.078125 43.9375 
Q 35.15625 39.84375 28.90625 37.890625 
Q 37.5 34.765625 40.625 29.6875 
Q 43.75 24.609375 43.75 19.53125 
z
" id="SimSun-33"/>
     <path d="M 70.3125 56.25 
Q 70.3125 71.484375 69.921875 81.640625 
L 79.6875 76.5625 
L 75.78125 73.828125 
L 75.78125 56.25 
L 81.640625 56.25 
L 86.71875 61.328125 
L 94.140625 53.90625 
L 75.78125 53.90625 
L 75.78125 1.5625 
Q 75.78125 -5.859375 67.1875 -8.984375 
Q 66.796875 -3.125 54.296875 -0.390625 
L 54.296875 1.5625 
Q 64.84375 0 67.578125 0.390625 
Q 70.3125 0.78125 70.3125 5.078125 
L 70.3125 53.90625 
L 50 53.90625 
Q 44.921875 53.90625 40.625 52.734375 
L 37.109375 56.25 
z
M 44.921875 44.140625 
Q 55.078125 37.109375 57.421875 33.390625 
Q 59.765625 29.6875 56.640625 25.1875 
Q 53.515625 20.703125 51.75 27.734375 
Q 50 34.765625 43.75 42.96875 
z
M 14.453125 64.84375 
L 14.453125 41.40625 
L 30.46875 41.40625 
L 30.46875 64.84375 
z
M 14.453125 39.0625 
L 14.453125 14.0625 
L 30.46875 14.0625 
L 30.46875 39.0625 
z
M 35.9375 31.25 
Q 35.9375 12.5 36.328125 7.03125 
L 30.46875 3.90625 
L 30.46875 11.71875 
L 14.453125 11.71875 
L 14.453125 3.515625 
L 8.59375 0.390625 
Q 8.984375 12.890625 8.984375 37.890625 
Q 8.984375 62.890625 8.59375 70.3125 
L 14.84375 67.1875 
L 29.6875 67.1875 
L 32.8125 71.09375 
L 39.0625 66.015625 
L 35.9375 63.28125 
z
" id="SimSun-65f6"/>
     <path d="M 11.71875 67.1875 
L 76.171875 67.1875 
L 82.03125 73.046875 
L 90.234375 64.84375 
L 24.21875 64.84375 
Q 19.53125 64.84375 15.234375 63.671875 
z
M 17.578125 35.9375 
L 68.359375 35.9375 
L 74.21875 41.796875 
L 82.421875 33.59375 
L 30.078125 33.59375 
Q 25.390625 33.59375 21.09375 32.421875 
z
M 3.90625 2.734375 
L 81.25 2.734375 
L 87.5 8.984375 
L 96.09375 0.390625 
L 16.40625 0.390625 
Q 11.71875 0.390625 7.421875 -0.78125 
z
" id="SimSun-4e09"/>
     <path d="M 53.125 54.296875 
L 53.125 29.6875 
L 65.625 29.6875 
L 65.625 54.296875 
z
M 70.703125 54.296875 
L 70.703125 29.6875 
L 84.375 29.6875 
L 84.375 54.296875 
z
M 47.65625 19.921875 
Q 48.046875 28.125 48.046875 41.015625 
Q 48.046875 53.90625 47.65625 59.765625 
L 53.125 56.640625 
L 65.625 56.640625 
Q 65.625 75.390625 65.234375 81.640625 
L 74.21875 77.34375 
L 70.703125 74.609375 
L 70.703125 56.640625 
L 83.59375 56.640625 
L 86.328125 60.9375 
L 92.578125 56.25 
L 89.453125 53.125 
Q 89.453125 37.109375 89.84375 23.828125 
L 84.375 21.875 
L 84.375 27.34375 
L 70.703125 27.34375 
Q 70.703125 -1.5625 71.09375 -7.03125 
L 65.234375 -9.375 
Q 65.625 5.078125 65.625 27.34375 
L 53.125 27.34375 
L 53.125 22.265625 
z
M 24.21875 -9.765625 
Q 24.609375 8.203125 24.609375 35.546875 
Q 16.796875 19.921875 4.6875 9.765625 
L 3.90625 10.9375 
Q 11.71875 20.703125 16.984375 31.046875 
Q 22.265625 41.40625 24.609375 50.390625 
L 17.578125 50.390625 
Q 12.5 50.390625 8.203125 49.21875 
L 4.6875 52.734375 
L 24.609375 52.734375 
L 24.609375 69.53125 
Q 16.40625 68.359375 7.421875 67.578125 
L 7.421875 69.140625 
Q 15.234375 70.3125 24.609375 72.84375 
Q 33.984375 75.390625 38.671875 78.90625 
L 44.53125 72.265625 
Q 37.109375 71.484375 29.6875 70.3125 
L 29.6875 52.734375 
L 34.375 52.734375 
L 39.0625 57.421875 
L 45.703125 50.390625 
L 29.6875 50.390625 
L 29.6875 41.40625 
Q 39.0625 38.28125 41.796875 35.734375 
Q 44.53125 33.203125 42.578125 28.515625 
Q 40.625 23.828125 38.078125 29.09375 
Q 35.546875 34.375 29.6875 39.453125 
Q 29.6875 -0.78125 30.078125 -7.03125 
z
" id="SimSun-79cd"/>
     <path d="M 41.796875 23.828125 
Q 41.40625 17.578125 40.625 11.71875 
L 59.765625 11.71875 
L 59.765625 23.828125 
z
M 76.5625 32.421875 
Q 76.5625 29.296875 76.953125 22.265625 
L 71.09375 19.921875 
L 71.09375 23.828125 
L 65.234375 23.828125 
L 65.234375 12.109375 
L 82.8125 12.109375 
L 88.28125 17.1875 
L 95.3125 9.765625 
L 65.234375 9.765625 
Q 65.234375 -3.515625 65.625 -7.421875 
L 59.375 -10.15625 
Q 59.765625 1.5625 59.765625 9.375 
L 40.234375 9.375 
Q 37.5 0.78125 28.703125 -3.90625 
Q 19.921875 -8.59375 9.765625 -10.15625 
L 9.375 -8.984375 
Q 20.703125 -5.078125 26.359375 -0.96875 
Q 32.03125 3.125 34.375 9.375 
L 17.578125 9.375 
Q 12.5 9.375 8.203125 8.203125 
L 4.6875 11.71875 
L 34.765625 11.71875 
Q 35.546875 17.1875 35.9375 23.828125 
L 28.90625 23.828125 
L 28.90625 20.703125 
L 23.4375 18.75 
Q 23.828125 30.859375 23.625 43.546875 
Q 23.4375 56.25 23.046875 58.984375 
L 28.90625 55.859375 
L 70.703125 55.859375 
L 73.046875 59.375 
L 79.296875 55.078125 
L 76.5625 52.734375 
z
M 28.90625 53.515625 
L 28.90625 46.484375 
L 71.09375 46.484375 
L 71.09375 53.515625 
z
M 28.90625 44.140625 
L 28.90625 36.71875 
L 71.09375 36.71875 
L 71.09375 44.140625 
z
M 28.90625 34.375 
L 28.90625 26.171875 
L 71.09375 26.171875 
L 71.09375 34.375 
z
M 24.609375 82.421875 
L 32.421875 78.125 
Q 30.078125 76.953125 28.703125 75.390625 
Q 27.34375 73.828125 25 70.3125 
L 42.1875 70.3125 
L 46.875 75 
L 53.125 67.96875 
L 33.203125 67.96875 
Q 41.40625 63.671875 40.421875 60.734375 
Q 39.453125 57.8125 37.6875 56.828125 
Q 35.9375 55.859375 35.34375 57.609375 
Q 34.765625 59.375 34.171875 61.90625 
Q 33.59375 64.453125 30.46875 67.96875 
L 23.828125 67.96875 
Q 19.921875 62.109375 16.40625 58.203125 
Q 12.890625 54.296875 7.421875 50.390625 
L 6.640625 51.5625 
Q 10.15625 55.078125 14.84375 61.71875 
Q 19.53125 68.359375 24.609375 82.421875 
z
M 62.5 82.03125 
L 69.53125 77.34375 
Q 67.578125 76.953125 65.625 74.609375 
Q 63.671875 72.265625 62.109375 69.921875 
L 83.203125 69.921875 
L 87.890625 74.21875 
L 93.75 67.578125 
L 73.046875 67.578125 
Q 82.8125 64.453125 82.8125 61.515625 
Q 82.8125 58.59375 81.046875 57.03125 
Q 79.296875 55.46875 78.125 57.609375 
Q 76.953125 59.765625 75.78125 61.90625 
Q 74.609375 64.0625 70.3125 67.578125 
L 60.9375 67.578125 
Q 58.203125 64.84375 55.65625 61.90625 
Q 53.125 58.984375 50.390625 56.640625 
L 49.21875 57.421875 
Q 53.90625 63.28125 58 71.28125 
Q 62.109375 79.296875 62.5 82.03125 
z
" id="SimSun-7b97"/>
     <path d="M 59.375 60.15625 
Q 59.375 76.953125 58.984375 82.421875 
L 68.359375 77.734375 
L 64.453125 73.828125 
L 64.453125 60.15625 
L 79.6875 60.15625 
L 83.984375 64.453125 
L 90.234375 57.8125 
L 64.453125 57.8125 
L 64.453125 36.71875 
L 85.15625 36.71875 
L 89.84375 41.40625 
L 96.484375 34.375 
L 59.765625 34.375 
L 66.015625 30.078125 
Q 62.5 28.515625 58.59375 22.65625 
Q 54.6875 16.796875 40.625 1.953125 
L 81.640625 4.6875 
Q 76.5625 11.71875 70.703125 18.359375 
L 71.484375 19.53125 
Q 78.515625 14.453125 82.609375 11.328125 
Q 86.71875 8.203125 90.03125 4.296875 
Q 93.359375 0.390625 90.625 -4.09375 
Q 87.890625 -8.59375 86.328125 -4.6875 
Q 84.765625 -0.78125 82.8125 2.734375 
Q 60.9375 0.390625 49.609375 -2.34375 
Q 38.28125 -5.078125 36.71875 -7.03125 
L 32.8125 1.953125 
Q 37.890625 1.953125 46.28125 13.671875 
Q 54.6875 25.390625 57.8125 34.375 
L 43.359375 34.375 
Q 38.28125 34.375 33.984375 33.203125 
L 30.46875 36.71875 
L 59.375 36.71875 
L 59.375 57.8125 
L 50.78125 57.8125 
Q 45.703125 57.8125 41.40625 56.640625 
L 37.890625 60.15625 
z
M 37.109375 64.84375 
Q 21.875 23.4375 20.5 18.546875 
Q 19.140625 13.671875 19.328125 6.640625 
Q 19.53125 -0.390625 19.71875 -3.125 
Q 19.921875 -5.859375 15.234375 -4.296875 
Q 10.546875 -2.734375 12.890625 5.265625 
Q 15.234375 13.28125 12.890625 15.421875 
Q 10.546875 17.578125 4.6875 19.140625 
L 4.6875 20.703125 
Q 11.71875 19.921875 13.46875 20.109375 
Q 15.234375 20.3125 17.375 23.625 
Q 19.53125 26.953125 35.546875 65.234375 
z
M 5.078125 56.25 
Q 18.75 49.21875 18.75 44.71875 
Q 18.75 40.234375 16.59375 38.671875 
Q 14.453125 37.109375 12.6875 42.375 
Q 10.9375 47.65625 4.296875 55.078125 
z
M 14.0625 78.90625 
Q 25 73.4375 26.359375 69.53125 
Q 27.734375 65.625 25.1875 62.890625 
Q 22.65625 60.15625 20.890625 65.421875 
Q 19.140625 70.703125 13.28125 77.734375 
z
" id="SimSun-6cd5"/>
     <path d="M 20.703125 37.5 
Q 20.703125 38.671875 20.3125 43.359375 
L 24.21875 41.796875 
Q 30.859375 50 37.109375 62.109375 
L 19.921875 62.109375 
Q 14.84375 62.109375 10.546875 60.9375 
L 7.03125 64.453125 
L 37.890625 64.453125 
Q 42.1875 75 43.359375 82.03125 
L 52.34375 77.34375 
L 48.4375 75 
Q 47.265625 71.484375 43.75 64.453125 
L 78.125 64.453125 
L 83.984375 70.3125 
L 92.1875 62.109375 
L 42.96875 62.109375 
Q 34.765625 46.09375 26.5625 37.5 
L 26.5625 -5.859375 
L 20.703125 -8.984375 
Q 21.09375 -2.734375 21.09375 2.34375 
L 21.09375 32.03125 
Q 12.109375 23.828125 4.296875 19.140625 
L 3.515625 20.3125 
Q 15.234375 30.46875 20.703125 37.5 
z
M 56.25 49.21875 
Q 56.25 51.953125 55.859375 58.984375 
L 64.84375 55.078125 
L 61.71875 52.34375 
L 61.71875 36.328125 
L 76.5625 36.328125 
L 81.640625 41.40625 
L 89.0625 33.984375 
L 61.71875 33.984375 
L 61.71875 2.734375 
L 81.25 2.734375 
L 86.71875 8.203125 
L 94.53125 0.390625 
L 41.40625 0.390625 
Q 36.328125 0.390625 32.03125 -0.78125 
L 28.515625 2.734375 
L 56.25 2.734375 
L 56.25 33.984375 
L 46.484375 33.984375 
Q 41.40625 33.984375 37.109375 32.8125 
L 33.59375 36.328125 
L 56.25 36.328125 
z
" id="SimSun-5728"/>
     <path d="M 26.953125 0.78125 
Q 16.015625 0.78125 9.5625 8.984375 
Q 3.125 17.1875 3.125 34.765625 
Q 3.125 49.609375 9.953125 59.375 
Q 16.796875 69.140625 28.515625 69.140625 
Q 31.25 69.140625 33.984375 68.15625 
Q 36.71875 67.1875 38.671875 67.1875 
Q 40.234375 67.1875 41.203125 67.578125 
Q 42.1875 67.96875 42.96875 69.140625 
L 46.484375 51.953125 
L 44.140625 51.171875 
Q 41.796875 58.59375 37.890625 62.5 
Q 33.984375 66.40625 27.734375 66.40625 
Q 19.53125 66.40625 15.03125 57.421875 
Q 10.546875 48.4375 10.546875 35.15625 
Q 10.546875 20.703125 14.453125 12.5 
Q 18.359375 4.296875 27.34375 4.296875 
Q 33.59375 4.296875 38.078125 8.78125 
Q 42.578125 13.28125 44.140625 20.703125 
L 46.484375 19.53125 
Q 44.53125 11.328125 39.25 6.046875 
Q 33.984375 0.78125 26.953125 0.78125 
z
" id="SimSun-43"/>
     <path d="M 10.9375 35.15625 
Q 10.9375 18.359375 15.03125 10.734375 
Q 19.140625 3.125 25.390625 3.125 
Q 32.03125 3.125 35.9375 10.34375 
Q 39.84375 17.578125 39.84375 35.15625 
Q 39.84375 49.21875 36.515625 57.8125 
Q 33.203125 66.40625 25.390625 66.40625 
Q 18.75 66.40625 14.84375 58.59375 
Q 10.9375 50.78125 10.9375 35.15625 
z
M 47.265625 35.15625 
Q 47.265625 19.140625 41.015625 9.953125 
Q 34.765625 0.78125 25.390625 0.78125 
Q 16.40625 0.78125 9.953125 10.15625 
Q 3.515625 19.53125 3.515625 35.15625 
Q 3.515625 50.390625 9.5625 59.765625 
Q 15.625 69.140625 25.390625 69.140625 
Q 35.546875 69.140625 41.40625 59.171875 
Q 47.265625 49.21875 47.265625 35.15625 
z
" id="SimSun-4f"/>
     <path d="M 23.4375 33.59375 
Q 12.890625 38.28125 8.984375 41.796875 
Q 5.078125 45.3125 5.078125 52.734375 
Q 5.078125 58.59375 9.953125 63.859375 
Q 14.84375 69.140625 23.828125 69.140625 
Q 27.734375 69.140625 31.25 67.765625 
Q 34.765625 66.40625 36.328125 66.40625 
Q 37.5 66.40625 38.46875 66.984375 
Q 39.453125 67.578125 40.234375 69.140625 
L 41.796875 53.125 
L 39.84375 52.34375 
Q 36.328125 60.546875 32.609375 63.46875 
Q 28.90625 66.40625 23.046875 66.40625 
Q 15.625 66.40625 12.890625 62.296875 
Q 10.15625 58.203125 10.15625 53.515625 
Q 10.15625 49.21875 12.6875 46.671875 
Q 15.234375 44.140625 26.5625 39.0625 
Q 35.9375 35.15625 40.03125 30.265625 
Q 44.140625 25.390625 44.140625 18.75 
Q 44.140625 11.71875 39.25 6.25 
Q 34.375 0.78125 25 0.78125 
Q 21.09375 0.78125 17.765625 2.140625 
Q 14.453125 3.515625 12.5 3.515625 
Q 11.328125 3.515625 10.15625 2.734375 
Q 8.984375 1.953125 7.421875 0.78125 
L 4.296875 19.921875 
L 6.640625 20.703125 
Q 9.375 10.9375 14.25 7.21875 
Q 19.140625 3.515625 25.390625 3.515625 
Q 32.03125 3.515625 35.34375 7.421875 
Q 38.671875 11.328125 38.671875 18.75 
Q 38.671875 22.65625 34.953125 26.359375 
Q 31.25 30.078125 23.4375 33.59375 
z
" id="SimSun-53"/>
     <path d="M 34.765625 1.5625 
L 14.453125 1.5625 
L 14.453125 3.90625 
L 17.96875 3.90625 
Q 19.921875 3.90625 20.703125 4.6875 
Q 21.484375 5.46875 21.484375 7.03125 
L 21.484375 61.71875 
Q 21.484375 64.84375 21.09375 65.234375 
Q 20.703125 65.625 17.96875 65.625 
Q 12.5 65.625 10.34375 63.671875 
Q 8.203125 61.71875 5.078125 53.125 
L 2.734375 53.515625 
L 6.25 68.359375 
L 43.359375 68.359375 
L 46.484375 53.515625 
L 44.53125 53.125 
Q 41.40625 61.328125 39.640625 63.46875 
Q 37.890625 65.625 32.421875 65.625 
Q 28.515625 65.625 28.125 65.234375 
Q 27.734375 64.84375 27.734375 61.328125 
L 27.734375 7.03125 
Q 27.734375 5.46875 28.703125 4.6875 
Q 29.6875 3.90625 31.25 3.90625 
L 34.765625 3.90625 
z
" id="SimSun-54"/>
     <path d="M 36.328125 51.953125 
Q 36.328125 58.984375 33.203125 62.6875 
Q 30.078125 66.40625 23.828125 66.40625 
Q 19.140625 66.40625 15.8125 63.859375 
Q 12.5 61.328125 12.5 57.421875 
Q 12.5 55.078125 13.859375 53.515625 
Q 15.234375 51.953125 15.234375 50.390625 
Q 15.234375 48.4375 14.25 47.453125 
Q 13.28125 46.484375 11.328125 46.484375 
Q 8.984375 46.484375 7.609375 47.84375 
Q 6.25 49.21875 6.25 52.34375 
Q 6.25 60.546875 12.109375 64.84375 
Q 17.96875 69.140625 24.609375 69.140625 
Q 33.984375 69.140625 38.46875 64.453125 
Q 42.96875 59.765625 42.96875 52.734375 
Q 42.96875 48.046875 40.8125 43.359375 
Q 38.671875 38.671875 33.984375 34.375 
Q 22.65625 23.4375 16.59375 16.59375 
Q 10.546875 9.765625 9.375 7.421875 
L 32.421875 7.421875 
Q 35.9375 7.421875 38.28125 10.15625 
Q 40.625 12.890625 41.40625 18.359375 
L 43.75 18.359375 
L 41.40625 1.5625 
L 5.078125 1.5625 
L 5.078125 6.640625 
Q 7.03125 10.15625 11.515625 15.625 
Q 16.015625 21.09375 23.4375 28.515625 
Q 30.078125 35.15625 33.203125 41.015625 
Q 36.328125 46.875 36.328125 51.953125 
z
" id="SimSun-32"/>
     <path d="M 10.9375 47.65625 
Q 10.9375 39.0625 14.25 34.5625 
Q 17.578125 30.078125 22.65625 30.078125 
Q 28.515625 30.078125 32.8125 35.546875 
Q 37.109375 41.015625 37.109375 45.703125 
Q 37.109375 55.078125 33.984375 60.734375 
Q 30.859375 66.40625 23.828125 66.40625 
Q 17.1875 66.40625 14.0625 61.125 
Q 10.9375 55.859375 10.9375 47.65625 
z
M 21.484375 26.5625 
Q 13.671875 26.5625 8.984375 31.4375 
Q 4.296875 36.328125 4.296875 47.265625 
Q 4.296875 56.640625 9.375 62.890625 
Q 14.453125 69.140625 23.828125 69.140625 
Q 33.59375 69.140625 39.0625 61.328125 
Q 44.53125 53.515625 44.53125 38.671875 
Q 44.53125 22.265625 38.078125 11.515625 
Q 31.640625 0.78125 20.3125 0.78125 
Q 15.234375 0.78125 11.515625 3.125 
Q 7.8125 5.46875 7.8125 9.375 
Q 7.8125 10.9375 8.78125 12.5 
Q 9.765625 14.0625 12.109375 14.0625 
Q 14.453125 14.0625 15.234375 12.296875 
Q 16.015625 10.546875 16.015625 8.203125 
Q 16.015625 6.640625 16.40625 5.65625 
Q 16.796875 4.6875 17.1875 4.296875 
Q 17.578125 3.90625 18.546875 3.703125 
Q 19.53125 3.515625 20.703125 3.515625 
Q 27.734375 3.515625 32.03125 11.328125 
Q 36.328125 19.140625 37.109375 37.5 
Q 35.15625 32.8125 31.25 29.6875 
Q 27.34375 26.5625 21.484375 26.5625 
z
" id="SimSun-39"/>
     <path d="M 51.953125 56.640625 
L 51.953125 30.859375 
L 80.078125 30.859375 
L 80.078125 56.640625 
z
M 46.09375 58.984375 
Q 46.09375 74.21875 45.703125 82.03125 
L 55.078125 77.734375 
L 51.953125 74.609375 
L 51.953125 58.984375 
L 79.296875 58.984375 
L 82.421875 63.671875 
L 89.0625 58.59375 
L 85.546875 55.46875 
L 85.546875 32.8125 
Q 85.546875 28.515625 85.9375 23.828125 
L 80.078125 21.484375 
L 80.078125 28.515625 
L 51.953125 28.515625 
Q 51.953125 -1.171875 52.34375 -6.25 
L 45.703125 -9.765625 
Q 46.09375 -0.78125 46.09375 28.515625 
L 19.140625 28.515625 
L 19.140625 23.828125 
L 13.28125 20.703125 
Q 13.671875 27.734375 13.671875 41.015625 
Q 13.671875 54.296875 13.28125 62.5 
L 19.140625 58.984375 
z
M 19.140625 56.640625 
L 19.140625 30.859375 
L 46.09375 30.859375 
L 46.09375 56.640625 
z
" id="SimSun-4e2d"/>
     <path d="M 17.578125 58.984375 
L 17.578125 33.984375 
L 37.890625 33.984375 
L 37.890625 58.984375 
z
M 17.578125 31.640625 
L 17.578125 4.296875 
L 37.890625 4.296875 
L 37.890625 31.640625 
z
M 42.96875 56.640625 
Q 42.96875 10.9375 43.359375 -3.125 
L 37.890625 -6.25 
L 37.890625 1.953125 
L 17.578125 1.953125 
L 17.578125 -4.6875 
L 12.109375 -7.8125 
Q 12.5 10.546875 12.5 28.703125 
Q 12.5 46.875 12.109375 64.84375 
L 17.96875 61.328125 
L 21.875 61.328125 
Q 25.78125 74.609375 26.171875 81.640625 
L 34.765625 76.953125 
Q 30.859375 75 24.21875 61.328125 
L 37.109375 61.328125 
L 41.015625 65.234375 
L 46.875 59.375 
z
M 62.109375 81.25 
L 70.703125 76.171875 
Q 67.578125 74.21875 60.9375 60.15625 
L 82.03125 60.15625 
L 86.328125 64.453125 
L 92.1875 58.59375 
L 88.671875 55.859375 
Q 87.890625 10.15625 86.515625 4.09375 
Q 85.15625 -1.953125 82.609375 -4.296875 
Q 80.078125 -6.640625 74.609375 -8.59375 
Q 72.65625 -2.34375 61.71875 0.78125 
L 61.71875 2.734375 
Q 71.484375 0.78125 75.78125 0.78125 
Q 80.078125 0.78125 81.046875 7.421875 
Q 82.03125 14.0625 82.8125 57.8125 
L 60.15625 57.8125 
Q 53.125 46.484375 45.3125 38.671875 
L 44.140625 39.453125 
Q 52.34375 51.953125 56.25 61.71875 
Q 60.15625 71.484375 62.109375 81.25 
z
M 55.078125 42.96875 
Q 64.453125 35.9375 66.59375 31.25 
Q 68.75 26.5625 65.625 22.65625 
Q 62.5 18.75 61.125 26.5625 
Q 59.765625 34.375 54.296875 41.796875 
z
" id="SimSun-7684"/>
     <path d="M 16.40625 53.125 
Q 16.40625 70.703125 16.015625 79.296875 
L 25.390625 75 
L 21.875 71.875 
L 21.875 45.703125 
L 37.5 45.703125 
L 42.1875 50.390625 
L 49.21875 43.359375 
L 21.875 43.359375 
L 21.875 5.46875 
L 47.65625 14.453125 
L 48.4375 12.890625 
Q 25.390625 2.34375 19.53125 -3.90625 
L 14.84375 2.734375 
Q 16.40625 4.296875 16.40625 8.203125 
z
M 53.515625 59.765625 
Q 53.515625 71.484375 53.125 80.078125 
L 62.890625 75.390625 
L 58.984375 72.265625 
L 58.984375 39.453125 
Q 67.1875 45.703125 73.625 53.125 
Q 80.078125 60.546875 82.421875 65.234375 
L 90.234375 57.8125 
Q 85.546875 57.03125 78.3125 50.78125 
Q 71.09375 44.53125 58.984375 37.109375 
L 58.984375 6.640625 
Q 58.984375 1.953125 64.0625 1.953125 
L 80.078125 1.953125 
Q 83.203125 1.953125 84.375 5.46875 
Q 85.546875 8.984375 85.9375 22.265625 
L 87.890625 22.265625 
Q 87.890625 12.890625 89.25 8.59375 
Q 90.625 4.296875 93.75 2.734375 
Q 91.796875 -0.390625 89.25 -1.75 
Q 86.71875 -3.125 82.421875 -3.125 
L 62.109375 -3.125 
Q 53.515625 -3.125 53.515625 4.296875 
z
" id="SimSun-6bd4"/>
     <path d="M 45.703125 23.046875 
L 30.46875 17.578125 
Q 30.46875 2.34375 30.859375 -5.46875 
L 25 -8.59375 
Q 25.390625 6.640625 25.390625 16.015625 
Q 10.546875 10.546875 8.59375 8.203125 
L 4.6875 15.234375 
Q 10.9375 16.015625 25.390625 19.53125 
L 25.390625 36.328125 
L 15.234375 36.328125 
L 12.109375 33.203125 
L 7.03125 38.671875 
L 10.546875 41.40625 
L 17.1875 60.9375 
L 16.796875 60.9375 
Q 11.71875 60.9375 7.421875 59.765625 
L 3.90625 63.28125 
L 17.578125 63.28125 
Q 21.484375 77.734375 21.875 82.03125 
L 29.6875 77.734375 
L 26.5625 75.390625 
Q 25 71.484375 22.65625 63.28125 
L 34.375 63.28125 
L 38.28125 67.1875 
L 44.140625 60.9375 
L 22.265625 60.9375 
L 15.234375 38.671875 
L 25.390625 38.671875 
Q 25.390625 46.09375 25 53.90625 
L 33.59375 50 
L 30.46875 47.265625 
L 30.46875 38.671875 
L 33.984375 38.671875 
L 37.5 42.1875 
L 42.96875 36.328125 
L 30.46875 36.328125 
L 30.46875 20.703125 
L 45.3125 24.609375 
z
M 60.15625 80.078125 
L 60.546875 81.25 
Q 68.75 77.34375 70.703125 74.21875 
Q 72.65625 71.09375 69.921875 67.96875 
Q 67.1875 64.84375 65.625 70.109375 
Q 64.0625 75.390625 60.15625 80.078125 
z
M 44.53125 64.453125 
L 82.03125 64.453125 
L 86.71875 69.140625 
L 93.359375 62.109375 
L 55.46875 62.109375 
Q 52.34375 62.109375 48.046875 60.9375 
z
M 57.8125 58.984375 
L 64.453125 53.125 
L 60.9375 51.953125 
Q 53.125 42.96875 44.140625 36.71875 
L 43.359375 37.890625 
Q 48.828125 43.359375 52.53125 49.015625 
Q 56.25 54.6875 57.8125 58.984375 
z
M 76.171875 57.421875 
Q 87.890625 51.5625 90.234375 47.84375 
Q 92.578125 44.140625 90.234375 41.015625 
Q 87.890625 37.890625 86.125 42.1875 
Q 84.375 46.484375 82.03125 49.40625 
Q 79.6875 52.34375 75.78125 56.25 
z
M 81.25 38.28125 
Q 75.78125 21.484375 70.3125 12.890625 
Q 80.078125 0.78125 95.703125 -2.734375 
L 95.703125 -3.90625 
Q 90.625 -5.078125 88.671875 -8.59375 
Q 75.78125 -2.734375 67.578125 8.984375 
Q 54.6875 -4.6875 33.203125 -8.984375 
L 33.203125 -7.421875 
Q 53.90625 -0.390625 64.84375 12.890625 
Q 58.203125 24.21875 54.296875 41.796875 
L 56.25 42.1875 
Q 60.546875 26.953125 67.1875 17.1875 
Q 70.3125 23.046875 72.453125 29.484375 
Q 74.609375 35.9375 76.5625 45.3125 
L 84.375 40.234375 
z
" id="SimSun-8f83"/>
    </defs>
    <g transform="translate(22.9275 133.47307)scale(0.07 -0.07)">
     <use xlink:href="#SimSun-28"/>
     <use x="50" xlink:href="#SimSun-63"/>
     <use x="100" xlink:href="#SimSun-29"/>
     <use x="150" xlink:href="#SimSun-20"/>
     <use x="200" xlink:href="#SimSun-70"/>
     <use x="250" xlink:href="#SimSun-3d"/>
     <use x="300" xlink:href="#SimSun-30"/>
     <use x="350" xlink:href="#SimSun-2e"/>
     <use x="400" xlink:href="#SimSun-30"/>
     <use x="450" xlink:href="#SimSun-33"/>
     <use x="500" xlink:href="#SimSun-65f6"/>
     <use x="600" xlink:href="#SimSun-4e09"/>
     <use x="700" xlink:href="#SimSun-79cd"/>
     <use x="800" xlink:href="#SimSun-7b97"/>
     <use x="900" xlink:href="#SimSun-6cd5"/>
     <use x="1000" xlink:href="#SimSun-5728"/>
     <use x="1100" xlink:href="#SimSun-43"/>
     <use x="1150" xlink:href="#SimSun-4f"/>
     <use x="1200" xlink:href="#SimSun-53"/>
     <use x="1250" xlink:href="#SimSun-54"/>
     <use x="1300" xlink:href="#SimSun-32"/>
     <use x="1350" xlink:href="#SimSun-33"/>
     <use x="1400" xlink:href="#SimSun-39"/>
     <use x="1450" xlink:href="#SimSun-4e2d"/>
     <use x="1550" xlink:href="#SimSun-7684"/>
     <use x="1650" xlink:href="#SimSun-6bd4"/>
     <use x="1750" xlink:href="#SimSun-8f83"/>
    </g>
   </g>
   <g id="legend_1">
    <g id="line2d_13">
     <path d="M 29.22625 9.428125 
L 43.22625 9.428125 
" style="fill:none;stroke:#0000ff;stroke-linecap:square;stroke-width:0.5;"/>
    </g>
    <g id="line2d_14">
     <g>
      <use style="fill:#0000ff;stroke:#0000ff;" x="36.22625" xlink:href="#m4c732725b6" y="9.428125"/>
     </g>
    </g>
    <g id="text_13">
     <!-- 算法一 -->
     <defs>
      <path d="M 5.46875 41.40625 
L 78.125 41.40625 
L 85.9375 47.65625 
L 94.53125 39.0625 
L 19.53125 39.0625 
Q 13.28125 39.0625 8.984375 37.890625 
z
" id="SimSun-4e00"/>
     </defs>
     <g transform="translate(48.82625 11.878125)scale(0.07 -0.07)">
      <use xlink:href="#SimSun-7b97"/>
      <use x="100" xlink:href="#SimSun-6cd5"/>
      <use x="200" xlink:href="#SimSun-4e00"/>
     </g>
    </g>
    <g id="line2d_15">
     <path d="M 29.22625 19.408594 
L 43.22625 19.408594 
" style="fill:none;stroke:#008000;stroke-linecap:square;"/>
    </g>
    <g id="line2d_16">
     <g>
      <use style="fill:#008000;stroke:#008000;stroke-linejoin:miter;" x="36.22625" xlink:href="#me1c5b28186" y="19.408594"/>
     </g>
    </g>
    <g id="text_14">
     <!-- 算法二 -->
     <defs>
      <path d="M 15.234375 60.9375 
L 72.65625 60.9375 
L 78.125 66.40625 
L 85.9375 58.59375 
L 27.734375 58.59375 
Q 23.046875 58.59375 18.75 57.421875 
z
M 5.46875 6.640625 
L 78.125 6.640625 
L 85.15625 13.671875 
L 94.53125 4.296875 
L 18.75 4.296875 
Q 13.28125 4.296875 8.984375 3.125 
z
" id="SimSun-4e8c"/>
     </defs>
     <g transform="translate(48.82625 21.858594)scale(0.07 -0.07)">
      <use xlink:href="#SimSun-7b97"/>
      <use x="100" xlink:href="#SimSun-6cd5"/>
      <use x="200" xlink:href="#SimSun-4e8c"/>
     </g>
    </g>
    <g id="line2d_17">
     <path d="M 29.22625 29.389062 
L 43.22625 29.389062 
" style="fill:none;stroke:#bfbf00;stroke-linecap:square;stroke-width:0.5;"/>
    </g>
    <g id="line2d_18">
     <g>
      <use style="fill:#bfbf00;stroke:#bfbf00;" x="36.22625" xlink:href="#m7ec4f0d523" y="29.389062"/>
     </g>
    </g>
    <g id="text_15">
     <!-- 算法三 -->
     <g transform="translate(48.82625 31.839062)scale(0.07 -0.07)">
      <use xlink:href="#SimSun-7b97"/>
      <use x="100" xlink:href="#SimSun-6cd5"/>
      <use x="200" xlink:href="#SimSun-4e09"/>
     </g>
    </g>
   </g>
  </g>
  <g id="axes_2">
   <g id="patch_7">
    <path d="M 204.22975 98.220472 
L 333.73225 98.220472 
L 333.73225 0 
L 204.22975 0 
z
" style="fill:#ffffff;"/>
   </g>
   <g id="matplotlib.axis_3">
    <g id="xtick_7">
     <g id="line2d_19">
      <g>
       <use style="stroke:#000000;stroke-width:0.8;" x="210.116227" xlink:href="#m2b1e540a70" y="98.220472"/>
      </g>
     </g>
     <g id="text_16">
      <!-- 0.00 -->
      <g transform="translate(203.893337 106.578909)scale(0.07 -0.07)">
       <use xlink:href="#Euclid-30"/>
       <use x="49.999985" xlink:href="#Euclid-2e"/>
       <use x="77.799973" xlink:href="#Euclid-30"/>
       <use x="127.799957" xlink:href="#Euclid-30"/>
      </g>
     </g>
    </g>
    <g id="xtick_8">
     <g id="line2d_20">
      <g>
       <use style="stroke:#000000;stroke-width:0.8;" x="233.662136" xlink:href="#m2b1e540a70" y="98.220472"/>
      </g>
     </g>
     <g id="text_17">
      <!-- 0.02 -->
      <g transform="translate(227.439246 106.578909)scale(0.07 -0.07)">
       <use xlink:href="#Euclid-30"/>
       <use x="49.999985" xlink:href="#Euclid-2e"/>
       <use x="77.799973" xlink:href="#Euclid-30"/>
       <use x="127.799957" xlink:href="#Euclid-32"/>
      </g>
     </g>
    </g>
    <g id="xtick_9">
     <g id="line2d_21">
      <g>
       <use style="stroke:#000000;stroke-width:0.8;" x="257.208045" xlink:href="#m2b1e540a70" y="98.220472"/>
      </g>
     </g>
     <g id="text_18">
      <!-- 0.04 -->
      <g transform="translate(250.985155 106.578909)scale(0.07 -0.07)">
       <use xlink:href="#Euclid-30"/>
       <use x="49.999985" xlink:href="#Euclid-2e"/>
       <use x="77.799973" xlink:href="#Euclid-30"/>
       <use x="127.799957" xlink:href="#Euclid-34"/>
      </g>
     </g>
    </g>
    <g id="xtick_10">
     <g id="line2d_22">
      <g>
       <use style="stroke:#000000;stroke-width:0.8;" x="280.753955" xlink:href="#m2b1e540a70" y="98.220472"/>
      </g>
     </g>
     <g id="text_19">
      <!-- 0.06 -->
      <g transform="translate(274.531064 106.578909)scale(0.07 -0.07)">
       <use xlink:href="#Euclid-30"/>
       <use x="49.999985" xlink:href="#Euclid-2e"/>
       <use x="77.799973" xlink:href="#Euclid-30"/>
       <use x="127.799957" xlink:href="#Euclid-36"/>
      </g>
     </g>
    </g>
    <g id="xtick_11">
     <g id="line2d_23">
      <g>
       <use style="stroke:#000000;stroke-width:0.8;" x="304.299864" xlink:href="#m2b1e540a70" y="98.220472"/>
      </g>
     </g>
     <g id="text_20">
      <!-- 0.08 -->
      <g transform="translate(298.076973 106.578909)scale(0.07 -0.07)">
       <use xlink:href="#Euclid-30"/>
       <use x="49.999985" xlink:href="#Euclid-2e"/>
       <use x="77.799973" xlink:href="#Euclid-30"/>
       <use x="127.799957" xlink:href="#Euclid-38"/>
      </g>
     </g>
    </g>
    <g id="xtick_12">
     <g id="line2d_24">
      <g>
       <use style="stroke:#000000;stroke-width:0.8;" x="327.845773" xlink:href="#m2b1e540a70" y="98.220472"/>
      </g>
     </g>
     <g id="text_21">
      <!-- 0.10 -->
      <g transform="translate(321.622882 106.578909)scale(0.07 -0.07)">
       <use xlink:href="#Euclid-30"/>
       <use x="49.999985" xlink:href="#Euclid-2e"/>
       <use x="77.799973" xlink:href="#Euclid-31"/>
       <use x="127.799957" xlink:href="#Euclid-30"/>
      </g>
     </g>
    </g>
    <g id="text_22">
     <!-- 光纤百公里故障概率 -->
     <g transform="translate(237.481 117.515472)scale(0.07 -0.07)">
      <use xlink:href="#SimSun-5149"/>
      <use x="100" xlink:href="#SimSun-7ea4"/>
      <use x="200" xlink:href="#SimSun-767e"/>
      <use x="300" xlink:href="#SimSun-516c"/>
      <use x="400" xlink:href="#SimSun-91cc"/>
      <use x="500" xlink:href="#SimSun-6545"/>
      <use x="600" xlink:href="#SimSun-969c"/>
      <use x="700" xlink:href="#SimSun-6982"/>
      <use x="800" xlink:href="#SimSun-7387"/>
     </g>
    </g>
   </g>
   <g id="matplotlib.axis_4">
    <g id="ytick_4">
     <g id="line2d_25">
      <g>
       <use style="stroke:#000000;stroke-width:0.8;" x="204.22975" xlink:href="#m124a5d834e" y="93.755905"/>
      </g>
     </g>
     <g id="text_23">
      <!-- 0.0 -->
      <g transform="translate(191.783969 96.185124)scale(0.07 -0.07)">
       <use xlink:href="#Euclid-30"/>
       <use x="49.999985" xlink:href="#Euclid-2e"/>
       <use x="77.799973" xlink:href="#Euclid-30"/>
      </g>
     </g>
    </g>
    <g id="ytick_5">
     <g id="line2d_26">
      <g>
       <use style="stroke:#000000;stroke-width:0.8;" x="204.22975" xlink:href="#m124a5d834e" y="65.277112"/>
      </g>
     </g>
     <g id="text_24">
      <!-- 0.2 -->
      <g transform="translate(191.783969 67.706331)scale(0.07 -0.07)">
       <use xlink:href="#Euclid-30"/>
       <use x="49.999985" xlink:href="#Euclid-2e"/>
       <use x="77.799973" xlink:href="#Euclid-32"/>
      </g>
     </g>
    </g>
    <g id="ytick_6">
     <g id="line2d_27">
      <g>
       <use style="stroke:#000000;stroke-width:0.8;" x="204.22975" xlink:href="#m124a5d834e" y="36.79832"/>
      </g>
     </g>
     <g id="text_25">
      <!-- 0.4 -->
      <g transform="translate(191.783969 39.227538)scale(0.07 -0.07)">
       <use xlink:href="#Euclid-30"/>
       <use x="49.999985" xlink:href="#Euclid-2e"/>
       <use x="77.799973" xlink:href="#Euclid-34"/>
      </g>
     </g>
    </g>
    <g id="ytick_7">
     <g id="line2d_28">
      <g>
       <use style="stroke:#000000;stroke-width:0.8;" x="204.22975" xlink:href="#m124a5d834e" y="8.319527"/>
      </g>
     </g>
     <g id="text_26">
      <!-- 0.6 -->
      <g transform="translate(191.783969 10.748746)scale(0.07 -0.07)">
       <use xlink:href="#Euclid-30"/>
       <use x="49.999985" xlink:href="#Euclid-2e"/>
       <use x="77.799973" xlink:href="#Euclid-36"/>
      </g>
     </g>
    </g>
    <g id="text_27">
     <!-- 故障出现概率 -->
     <g transform="translate(186.881625 70.110236)rotate(-90)scale(0.07 -0.07)">
      <use xlink:href="#SimSun-6545"/>
      <use x="100" xlink:href="#SimSun-969c"/>
      <use x="200" xlink:href="#SimSun-51fa"/>
      <use x="300" xlink:href="#SimSun-73b0"/>
      <use x="400" xlink:href="#SimSun-6982"/>
      <use x="500" xlink:href="#SimSun-7387"/>
     </g>
    </g>
   </g>
   <g id="line2d_29">
    <path clip-path="url(#p8e03db1c2f)" d="M 210.116227 93.755905 
L 221.889182 80.234895 
L 233.662136 68.046386 
L 245.435091 57.047995 
L 257.208045 47.114127 
L 268.981 38.133839 
L 280.753955 30.008989 
L 292.526909 22.65262 
L 304.299864 15.987568 
L 316.072818 9.945242 
L 327.845773 4.464567 
" style="fill:none;stroke:#0000ff;stroke-linecap:square;stroke-width:0.5;"/>
    <g clip-path="url(#p8e03db1c2f)">
     <use style="fill:#0000ff;stroke:#0000ff;" x="210.116227" xlink:href="#m4c732725b6" y="93.755905"/>
     <use style="fill:#0000ff;stroke:#0000ff;" x="221.889182" xlink:href="#m4c732725b6" y="80.234895"/>
     <use style="fill:#0000ff;stroke:#0000ff;" x="233.662136" xlink:href="#m4c732725b6" y="68.046386"/>
     <use style="fill:#0000ff;stroke:#0000ff;" x="245.435091" xlink:href="#m4c732725b6" y="57.047995"/>
     <use style="fill:#0000ff;stroke:#0000ff;" x="257.208045" xlink:href="#m4c732725b6" y="47.114127"/>
     <use style="fill:#0000ff;stroke:#0000ff;" x="268.981" xlink:href="#m4c732725b6" y="38.133839"/>
     <use style="fill:#0000ff;stroke:#0000ff;" x="280.753955" xlink:href="#m4c732725b6" y="30.008989"/>
     <use style="fill:#0000ff;stroke:#0000ff;" x="292.526909" xlink:href="#m4c732725b6" y="22.65262"/>
     <use style="fill:#0000ff;stroke:#0000ff;" x="304.299864" xlink:href="#m4c732725b6" y="15.987568"/>
     <use style="fill:#0000ff;stroke:#0000ff;" x="316.072818" xlink:href="#m4c732725b6" y="9.945242"/>
     <use style="fill:#0000ff;stroke:#0000ff;" x="327.845773" xlink:href="#m4c732725b6" y="4.464567"/>
    </g>
   </g>
   <g id="line2d_30">
    <path clip-path="url(#p8e03db1c2f)" d="M 210.116227 93.755905 
L 221.889182 93.755905 
L 233.662136 93.755905 
L 245.435091 93.755905 
L 257.208045 93.755905 
L 268.981 93.755905 
L 280.753955 93.755905 
L 292.526909 93.755905 
L 304.299864 93.755905 
L 316.072818 93.755905 
L 327.845773 93.755905 
" style="fill:none;stroke:#008000;stroke-linecap:square;stroke-width:0.5;"/>
    <g clip-path="url(#p8e03db1c2f)">
     <use style="fill:#008000;stroke:#008000;stroke-linejoin:miter;" x="210.116227" xlink:href="#me1c5b28186" y="93.755905"/>
     <use style="fill:#008000;stroke:#008000;stroke-linejoin:miter;" x="221.889182" xlink:href="#me1c5b28186" y="93.755905"/>
     <use style="fill:#008000;stroke:#008000;stroke-linejoin:miter;" x="233.662136" xlink:href="#me1c5b28186" y="93.755905"/>
     <use style="fill:#008000;stroke:#008000;stroke-linejoin:miter;" x="245.435091" xlink:href="#me1c5b28186" y="93.755905"/>
     <use style="fill:#008000;stroke:#008000;stroke-linejoin:miter;" x="257.208045" xlink:href="#me1c5b28186" y="93.755905"/>
     <use style="fill:#008000;stroke:#008000;stroke-linejoin:miter;" x="268.981" xlink:href="#me1c5b28186" y="93.755905"/>
     <use style="fill:#008000;stroke:#008000;stroke-linejoin:miter;" x="280.753955" xlink:href="#me1c5b28186" y="93.755905"/>
     <use style="fill:#008000;stroke:#008000;stroke-linejoin:miter;" x="292.526909" xlink:href="#me1c5b28186" y="93.755905"/>
     <use style="fill:#008000;stroke:#008000;stroke-linejoin:miter;" x="304.299864" xlink:href="#me1c5b28186" y="93.755905"/>
     <use style="fill:#008000;stroke:#008000;stroke-linejoin:miter;" x="316.072818" xlink:href="#me1c5b28186" y="93.755905"/>
     <use style="fill:#008000;stroke:#008000;stroke-linejoin:miter;" x="327.845773" xlink:href="#me1c5b28186" y="93.755905"/>
    </g>
   </g>
   <g id="line2d_31">
    <path clip-path="url(#p8e03db1c2f)" d="M 210.116227 93.755905 
L 221.889182 86.109227 
L 233.662136 78.822705 
L 245.435091 71.881959 
L 257.208045 65.273067 
L 268.981 58.982561 
L 280.753955 52.997412 
L 292.526909 47.305019 
L 304.299864 41.893202 
L 316.072818 36.750189 
L 327.845773 31.864604 
" style="fill:none;stroke:#bfbf00;stroke-linecap:square;stroke-width:0.5;"/>
    <g clip-path="url(#p8e03db1c2f)">
     <use style="fill:#bfbf00;stroke:#bfbf00;" x="210.116227" xlink:href="#m7ec4f0d523" y="93.755905"/>
     <use style="fill:#bfbf00;stroke:#bfbf00;" x="221.889182" xlink:href="#m7ec4f0d523" y="86.109227"/>
     <use style="fill:#bfbf00;stroke:#bfbf00;" x="233.662136" xlink:href="#m7ec4f0d523" y="78.822705"/>
     <use style="fill:#bfbf00;stroke:#bfbf00;" x="245.435091" xlink:href="#m7ec4f0d523" y="71.881959"/>
     <use style="fill:#bfbf00;stroke:#bfbf00;" x="257.208045" xlink:href="#m7ec4f0d523" y="65.273067"/>
     <use style="fill:#bfbf00;stroke:#bfbf00;" x="268.981" xlink:href="#m7ec4f0d523" y="58.982561"/>
     <use style="fill:#bfbf00;stroke:#bfbf00;" x="280.753955" xlink:href="#m7ec4f0d523" y="52.997412"/>
     <use style="fill:#bfbf00;stroke:#bfbf00;" x="292.526909" xlink:href="#m7ec4f0d523" y="47.305019"/>
     <use style="fill:#bfbf00;stroke:#bfbf00;" x="304.299864" xlink:href="#m7ec4f0d523" y="41.893202"/>
     <use style="fill:#bfbf00;stroke:#bfbf00;" x="316.072818" xlink:href="#m7ec4f0d523" y="36.750189"/>
     <use style="fill:#bfbf00;stroke:#bfbf00;" x="327.845773" xlink:href="#m7ec4f0d523" y="31.864604"/>
    </g>
   </g>
   <g id="patch_8">
    <path d="M 204.22975 98.220472 
L 204.22975 -0 
" style="fill:none;stroke:#000000;stroke-linecap:square;stroke-linejoin:miter;stroke-width:0.5;"/>
   </g>
   <g id="patch_9">
    <path d="M 333.73225 98.220472 
L 333.73225 -0 
" style="fill:none;stroke:#000000;stroke-linecap:square;stroke-linejoin:miter;stroke-width:0.5;"/>
   </g>
   <g id="patch_10">
    <path d="M 204.22975 98.220472 
L 333.73225 98.220472 
" style="fill:none;stroke:#000000;stroke-linecap:square;stroke-linejoin:miter;stroke-width:0.5;"/>
   </g>
   <g id="patch_11">
    <path d="M 204.22975 0 
L 333.73225 0 
" style="fill:none;stroke:#000000;stroke-linecap:square;stroke-linejoin:miter;stroke-width:0.5;"/>
   </g>
   <g id="text_28">
    <!-- (d) p=0.03时三种算法在NSF中的比较 -->
    <defs>
     <path d="M 35.9375 36.71875 
Q 33.984375 39.84375 30.859375 41.203125 
Q 27.734375 42.578125 24.609375 42.578125 
Q 18.75 42.578125 15.421875 37.109375 
Q 12.109375 31.640625 12.109375 22.65625 
Q 12.109375 13.28125 15.234375 8.78125 
Q 18.359375 4.296875 24.21875 4.296875 
Q 28.515625 4.296875 31.4375 7.03125 
Q 34.375 9.765625 35.9375 15.234375 
z
M 23.046875 1.171875 
Q 16.015625 1.171875 10.9375 6.828125 
Q 5.859375 12.5 5.859375 23.4375 
Q 5.859375 33.59375 11.328125 39.640625 
Q 16.796875 45.703125 24.21875 45.703125 
Q 27.34375 45.703125 30.65625 44.328125 
Q 33.984375 42.96875 35.9375 40.234375 
L 35.9375 61.328125 
Q 35.9375 63.671875 35.15625 64.84375 
Q 34.375 66.015625 32.421875 66.015625 
L 29.296875 66.015625 
L 29.296875 68.359375 
L 33.59375 68.359375 
Q 35.546875 68.359375 37.5 69.140625 
Q 39.453125 69.921875 41.40625 71.484375 
L 41.40625 9.765625 
Q 41.40625 7.8125 42.1875 7.03125 
Q 42.96875 6.25 44.53125 6.25 
L 47.265625 6.25 
L 47.265625 3.90625 
L 44.921875 3.90625 
Q 43.359375 3.90625 41.203125 3.3125 
Q 39.0625 2.734375 36.71875 1.5625 
L 35.9375 1.5625 
L 35.9375 8.984375 
Q 33.984375 5.46875 30.65625 3.3125 
Q 27.34375 1.171875 23.046875 1.171875 
z
" id="SimSun-64"/>
     <path d="M 39.453125 17.1875 
L 40.234375 17.1875 
L 40.234375 62.890625 
Q 40.234375 64.453125 39.453125 65.234375 
Q 38.671875 66.015625 36.71875 66.015625 
L 33.59375 66.015625 
L 33.59375 68.359375 
L 49.21875 68.359375 
L 49.21875 66.015625 
L 46.09375 66.015625 
Q 44.53125 66.015625 43.546875 65.234375 
Q 42.578125 64.453125 42.578125 62.890625 
L 42.578125 1.5625 
L 40.234375 1.5625 
L 40.234375 1.5625 
L 10.546875 59.765625 
L 9.765625 59.765625 
L 9.765625 7.03125 
Q 9.765625 5.46875 10.734375 4.6875 
Q 11.71875 3.90625 13.28125 3.90625 
L 16.40625 3.90625 
L 16.40625 1.5625 
L 0.78125 1.5625 
L 0.78125 3.90625 
L 3.90625 3.90625 
Q 5.859375 3.90625 6.640625 4.6875 
Q 7.421875 5.46875 7.421875 7.03125 
L 7.421875 62.890625 
Q 7.421875 64.453125 6.640625 65.234375 
Q 5.859375 66.015625 3.90625 66.015625 
L 1.5625 66.015625 
L 1.5625 68.359375 
L 12.890625 68.359375 
z
" id="SimSun-4e"/>
     <path d="M 21.09375 3.90625 
L 21.09375 1.5625 
L 2.34375 1.5625 
L 2.34375 3.90625 
L 5.078125 3.90625 
Q 7.03125 3.90625 7.8125 4.6875 
Q 8.59375 5.46875 8.59375 7.03125 
L 8.59375 62.890625 
Q 8.59375 64.453125 7.8125 65.234375 
Q 7.03125 66.015625 5.078125 66.015625 
L 2.734375 66.015625 
L 2.734375 68.359375 
L 43.359375 68.359375 
L 48.046875 54.296875 
L 46.09375 53.515625 
Q 42.96875 59.765625 38.671875 62.890625 
Q 34.375 66.015625 29.296875 66.015625 
L 18.359375 66.015625 
Q 16.796875 66.015625 15.8125 65.234375 
Q 14.84375 64.453125 14.84375 62.890625 
L 14.84375 37.890625 
L 27.734375 37.890625 
Q 31.640625 37.890625 33.390625 39.640625 
Q 35.15625 41.40625 35.15625 45.3125 
L 35.15625 47.265625 
L 37.5 47.265625 
L 37.5 24.609375 
L 35.15625 24.609375 
L 35.15625 26.171875 
Q 35.15625 30.859375 33.390625 33.203125 
Q 31.640625 35.546875 27.734375 35.546875 
L 14.84375 35.546875 
L 14.84375 7.03125 
Q 14.84375 5.46875 15.8125 4.6875 
Q 16.796875 3.90625 18.359375 3.90625 
z
" id="SimSun-46"/>
    </defs>
    <g transform="translate(211.231 133.47307)scale(0.07 -0.07)">
     <use xlink:href="#SimSun-28"/>
     <use x="50" xlink:href="#SimSun-64"/>
     <use x="100" xlink:href="#SimSun-29"/>
     <use x="150" xlink:href="#SimSun-20"/>
     <use x="200" xlink:href="#SimSun-70"/>
     <use x="250" xlink:href="#SimSun-3d"/>
     <use x="300" xlink:href="#SimSun-30"/>
     <use x="350" xlink:href="#SimSun-2e"/>
     <use x="400" xlink:href="#SimSun-30"/>
     <use x="450" xlink:href="#SimSun-33"/>
     <use x="500" xlink:href="#SimSun-65f6"/>
     <use x="600" xlink:href="#SimSun-4e09"/>
     <use x="700" xlink:href="#SimSun-79cd"/>
     <use x="800" xlink:href="#SimSun-7b97"/>
     <use x="900" xlink:href="#SimSun-6cd5"/>
     <use x="1000" xlink:href="#SimSun-5728"/>
     <use x="1100" xlink:href="#SimSun-4e"/>
     <use x="1150" xlink:href="#SimSun-53"/>
     <use x="1200" xlink:href="#SimSun-46"/>
     <use x="1250" xlink:href="#SimSun-4e2d"/>
     <use x="1350" xlink:href="#SimSun-7684"/>
     <use x="1450" xlink:href="#SimSun-6bd4"/>
     <use x="1550" xlink:href="#SimSun-8f83"/>
    </g>
   </g>
   <g id="legend_2">
    <g id="line2d_32">
     <path d="M 210.52975 9.428125 
L 224.52975 9.428125 
" style="fill:none;stroke:#0000ff;stroke-linecap:square;stroke-width:0.5;"/>
    </g>
    <g id="line2d_33">
     <g>
      <use style="fill:#0000ff;stroke:#0000ff;" x="217.52975" xlink:href="#m4c732725b6" y="9.428125"/>
     </g>
    </g>
    <g id="text_29">
     <!-- 算法一 -->
     <g transform="translate(230.12975 11.878125)scale(0.07 -0.07)">
      <use xlink:href="#SimSun-7b97"/>
      <use x="100" xlink:href="#SimSun-6cd5"/>
      <use x="200" xlink:href="#SimSun-4e00"/>
     </g>
    </g>
    <g id="line2d_34">
     <path d="M 210.52975 19.408594 
L 224.52975 19.408594 
" style="fill:none;stroke:#008000;stroke-linecap:square;stroke-width:0.5;"/>
    </g>
    <g id="line2d_35">
     <g>
      <use style="fill:#008000;stroke:#008000;stroke-linejoin:miter;" x="217.52975" xlink:href="#me1c5b28186" y="19.408594"/>
     </g>
    </g>
    <g id="text_30">
     <!-- 算法二 -->
     <g transform="translate(230.12975 21.858594)scale(0.07 -0.07)">
      <use xlink:href="#SimSun-7b97"/>
      <use x="100" xlink:href="#SimSun-6cd5"/>
      <use x="200" xlink:href="#SimSun-4e8c"/>
     </g>
    </g>
    <g id="line2d_36">
     <path d="M 210.52975 29.389062 
L 224.52975 29.389062 
" style="fill:none;stroke:#bfbf00;stroke-linecap:square;stroke-width:0.5;"/>
    </g>
    <g id="line2d_37">
     <g>
      <use style="fill:#bfbf00;stroke:#bfbf00;" x="217.52975" xlink:href="#m7ec4f0d523" y="29.389062"/>
     </g>
    </g>
    <g id="text_31">
     <!-- 算法三 -->
     <g transform="translate(230.12975 31.839062)scale(0.07 -0.07)">
      <use xlink:href="#SimSun-7b97"/>
      <use x="100" xlink:href="#SimSun-6cd5"/>
      <use x="200" xlink:href="#SimSun-4e09"/>
     </g>
    </g>
   </g>
  </g>
 </g>
 <defs>
  <clipPath id="p2b3c592354">
   <rect height="98.220472" width="129.5025" x="22.92625" y="0"/>
  </clipPath>
  <clipPath id="p8e03db1c2f">
   <rect height="98.220472" width="129.5025" x="204.22975" y="0"/>
  </clipPath>
 </defs>
</svg>
