<?xml version="1.0" encoding="utf-8" standalone="no"?>
<!DOCTYPE svg PUBLIC "-//W3C//DTD SVG 1.1//EN"
  "http://www.w3.org/Graphics/SVG/1.1/DTD/svg11.dtd">
<!-- Created with matplotlib (http://matplotlib.org/) -->
<svg height="597pt" version="1.1" viewBox="0 0 866.5875 597" width="866.5875pt" xmlns="http://www.w3.org/2000/svg" xmlns:xlink="http://www.w3.org/1999/xlink">
 <defs>
  <style type="text/css">
*{stroke-linecap:butt;stroke-linejoin:round;}
  </style>
 </defs>
 <g id="figure_1">
  <g id="patch_1">
   <path d="M 0 597 
L 866.5875 597 
L 866.5875 0 
L 0 0 
z
" style="fill:#ffffff;"/>
  </g>
  <g id="axes_1">
   <g id="LineCollection_1">
    <path clip-path="url(#p8a9978336b)" d="M 164.265525 51.158643 
L 64.150534 310.056643 
" style="fill:none;stroke:#000000;"/>
    <path clip-path="url(#p8a9978336b)" d="M 164.265525 51.158643 
L 157.591192 529.657625 
" style="fill:none;stroke:#000000;"/>
    <path clip-path="url(#p8a9978336b)" d="M 164.265525 51.158643 
L 539.696742 277.694393 
" style="fill:none;stroke:#000000;"/>
    <path clip-path="url(#p8a9978336b)" d="M 64.150534 310.056643 
L 157.591192 529.657625 
" style="fill:none;stroke:#ff0000;"/>
    <path clip-path="url(#p8a9978336b)" d="M 64.150534 310.056643 
L 239.351768 363.223196 
" style="fill:none;stroke:#000000;"/>
    <path clip-path="url(#p8a9978336b)" d="M 157.591192 529.657625 
L 456.267582 555.085107 
" style="fill:none;stroke:#000000;"/>
    <path clip-path="url(#p8a9978336b)" d="M 239.351768 363.223196 
L 676.520563 55.781821 
" style="fill:none;stroke:#000000;"/>
    <path clip-path="url(#p8a9978336b)" d="M 239.351768 363.223196 
L 336.129593 400.208625 
" style="fill:none;stroke:#ff0000;"/>
    <path clip-path="url(#p8a9978336b)" d="M 336.129593 400.208625 
L 456.267582 555.085107 
" style="fill:none;stroke:#000000;"/>
    <path clip-path="url(#p8a9978336b)" d="M 336.129593 400.208625 
L 434.576001 328.549357 
" style="fill:none;stroke:#ff0000;"/>
    <path clip-path="url(#p8a9978336b)" d="M 456.267582 555.085107 
L 684.863479 529.657625 
" style="fill:none;stroke:#000000;"/>
    <path clip-path="url(#p8a9978336b)" d="M 456.267582 555.085107 
L 744.932473 356.288429 
" style="fill:none;stroke:#000000;"/>
    <path clip-path="url(#p8a9978336b)" d="M 434.576001 328.549357 
L 539.696742 277.694393 
" style="fill:none;stroke:#000000;"/>
    <path clip-path="url(#p8a9978336b)" d="M 539.696742 277.694393 
L 683.194895 277.694393 
" style="fill:none;stroke:#ff0000;"/>
    <path clip-path="url(#p8a9978336b)" d="M 683.194895 277.694393 
L 684.863479 529.657625 
" style="fill:none;stroke:#000000;"/>
    <path clip-path="url(#p8a9978336b)" d="M 683.194895 277.694393 
L 816.68155 92.76725 
" style="fill:none;stroke:#000000;"/>
    <path clip-path="url(#p8a9978336b)" d="M 683.194895 277.694393 
L 825.024466 268.448036 
" style="fill:none;stroke:#ff0000;"/>
    <path clip-path="url(#p8a9978336b)" d="M 676.520563 55.781821 
L 816.68155 92.76725 
" style="fill:none;stroke:#ff0000;"/>
    <path clip-path="url(#p8a9978336b)" d="M 676.520563 55.781821 
L 825.024466 268.448036 
" style="fill:none;stroke:#000000;"/>
    <path clip-path="url(#p8a9978336b)" d="M 816.68155 92.76725 
L 744.932473 356.288429 
" style="fill:none;stroke:#ff0000;"/>
    <path clip-path="url(#p8a9978336b)" d="M 744.932473 356.288429 
L 825.024466 268.448036 
" style="fill:none;stroke:#000000;"/>
   </g>
   <g id="text_1">
    <g id="patch_2">
     <path clip-path="url(#p8a9978336b)" d="M 115.841184 189.425146 
L 121.348608 175.182913 
Q 121.997813 173.504064 120.318964 172.854859 
L 114.902929 170.760496 
Q 113.22408 170.111291 112.574875 171.79014 
L 107.067451 186.032372 
Q 106.418246 187.711221 108.097095 188.360426 
L 113.51313 190.454789 
Q 115.191979 191.103994 115.841184 189.425146 
z
" style="fill:#ffffff;stroke:#ffffff;stroke-linejoin:miter;"/>
    </g>
    <g clip-path="url(#p8a9978336b)">
     <!-- 1100 -->
     <defs>
      <path d="M 12.40625 8.296875 
L 28.515625 8.296875 
L 28.515625 63.921875 
L 10.984375 60.40625 
L 10.984375 69.390625 
L 28.421875 72.90625 
L 38.28125 72.90625 
L 38.28125 8.296875 
L 54.390625 8.296875 
L 54.390625 0 
L 12.40625 0 
z
" id="DejaVuSans-31"/>
      <path d="M 31.78125 66.40625 
Q 24.171875 66.40625 20.328125 58.90625 
Q 16.5 51.421875 16.5 36.375 
Q 16.5 21.390625 20.328125 13.890625 
Q 24.171875 6.390625 31.78125 6.390625 
Q 39.453125 6.390625 43.28125 13.890625 
Q 47.125 21.390625 47.125 36.375 
Q 47.125 51.421875 43.28125 58.90625 
Q 39.453125 66.40625 31.78125 66.40625 
z
M 31.78125 74.21875 
Q 44.046875 74.21875 50.515625 64.515625 
Q 56.984375 54.828125 56.984375 36.375 
Q 56.984375 17.96875 50.515625 8.265625 
Q 44.046875 -1.421875 31.78125 -1.421875 
Q 19.53125 -1.421875 13.0625 8.265625 
Q 6.59375 17.96875 6.59375 36.375 
Q 6.59375 54.828125 13.0625 64.515625 
Q 19.53125 74.21875 31.78125 74.21875 
z
" id="DejaVuSans-30"/>
     </defs>
     <g transform="translate(112.998508 188.325892)rotate(-68.85868)scale(0.06 -0.06)">
      <use xlink:href="#DejaVuSans-31"/>
      <use x="63.623047" xlink:href="#DejaVuSans-31"/>
      <use x="127.246094" xlink:href="#DejaVuSans-30"/>
      <use x="190.869141" xlink:href="#DejaVuSans-30"/>
     </g>
    </g>
   </g>
   <g id="text_2">
    <g id="patch_3">
     <path clip-path="url(#p8a9978336b)" d="M 104.300917 416.429587 
L 108.784936 426.967772 
Q 109.489693 428.624068 111.145989 427.919311 
L 116.48927 425.645734 
Q 118.145566 424.940977 117.440809 423.284681 
L 112.95679 412.746496 
Q 112.252033 411.0902 110.595737 411.794957 
L 105.252456 414.068534 
Q 103.59616 414.773291 104.300917 416.429587 
z
" style="fill:#ffffff;stroke:#ffffff;stroke-linejoin:miter;"/>
    </g>
    <g clip-path="url(#p8a9978336b)">
     <!-- 600 -->
     <defs>
      <path d="M 33.015625 40.375 
Q 26.375 40.375 22.484375 35.828125 
Q 18.609375 31.296875 18.609375 23.390625 
Q 18.609375 15.53125 22.484375 10.953125 
Q 26.375 6.390625 33.015625 6.390625 
Q 39.65625 6.390625 43.53125 10.953125 
Q 47.40625 15.53125 47.40625 23.390625 
Q 47.40625 31.296875 43.53125 35.828125 
Q 39.65625 40.375 33.015625 40.375 
z
M 52.59375 71.296875 
L 52.59375 62.3125 
Q 48.875 64.0625 45.09375 64.984375 
Q 41.3125 65.921875 37.59375 65.921875 
Q 27.828125 65.921875 22.671875 59.328125 
Q 17.53125 52.734375 16.796875 39.40625 
Q 19.671875 43.65625 24.015625 45.921875 
Q 28.375 48.1875 33.59375 48.1875 
Q 44.578125 48.1875 50.953125 41.515625 
Q 57.328125 34.859375 57.328125 23.390625 
Q 57.328125 12.15625 50.6875 5.359375 
Q 44.046875 -1.421875 33.015625 -1.421875 
Q 20.359375 -1.421875 13.671875 8.265625 
Q 6.984375 17.96875 6.984375 36.375 
Q 6.984375 53.65625 15.1875 63.9375 
Q 23.390625 74.21875 37.203125 74.21875 
Q 40.921875 74.21875 44.703125 73.484375 
Q 48.484375 72.75 52.59375 71.296875 
z
" id="DejaVuSans-36"/>
     </defs>
     <g transform="translate(107.105406 415.236272)rotate(-293.04985)scale(0.06 -0.06)">
      <use xlink:href="#DejaVuSans-36"/>
      <use x="63.623047" xlink:href="#DejaVuSans-30"/>
      <use x="127.246094" xlink:href="#DejaVuSans-30"/>
     </g>
    </g>
   </g>
   <g id="text_3">
    <g id="patch_4">
     <path clip-path="url(#p8a9978336b)" d="M 143.079339 338.923606 
L 157.691358 343.357768 
Q 159.413796 343.880459 159.936487 342.158021 
L 161.622711 336.601363 
Q 162.145402 334.878924 160.422963 334.356233 
L 145.810944 329.922071 
Q 144.088506 329.39938 143.565815 331.121818 
L 141.879591 336.678477 
Q 141.3569 338.400915 143.079339 338.923606 
z
" style="fill:#ffffff;stroke:#ffffff;stroke-linejoin:miter;"/>
    </g>
    <g clip-path="url(#p8a9978336b)">
     <!-- 1000 -->
     <g transform="translate(143.964375 336.007123)rotate(-343.119059)scale(0.06 -0.06)">
      <use xlink:href="#DejaVuSans-31"/>
      <use x="63.623047" xlink:href="#DejaVuSans-30"/>
      <use x="127.246094" xlink:href="#DejaVuSans-30"/>
      <use x="190.869141" xlink:href="#DejaVuSans-30"/>
     </g>
    </g>
   </g>
   <g id="text_4">
    <g id="patch_5">
     <path clip-path="url(#p8a9978336b)" d="M 484.029954 309.849611 
L 494.339409 304.862137 
Q 495.959755 304.078251 495.175869 302.457905 
L 492.647021 297.230599 
Q 491.863135 295.610253 490.242788 296.394139 
L 479.933334 301.381613 
Q 478.312987 302.165499 479.096873 303.785845 
L 481.625722 309.013151 
Q 482.409607 310.633497 484.029954 309.849611 
z
" style="fill:#ffffff;stroke:#ffffff;stroke-linejoin:miter;"/>
    </g>
    <g clip-path="url(#p8a9978336b)">
     <!-- 700 -->
     <defs>
      <path d="M 8.203125 72.90625 
L 55.078125 72.90625 
L 55.078125 68.703125 
L 28.609375 0 
L 18.3125 0 
L 43.21875 64.59375 
L 8.203125 64.59375 
z
" id="DejaVuSans-37"/>
     </defs>
     <g transform="translate(482.702655 307.105993)rotate(-25.816615)scale(0.06 -0.06)">
      <use xlink:href="#DejaVuSans-37"/>
      <use x="63.623047" xlink:href="#DejaVuSans-30"/>
      <use x="127.246094" xlink:href="#DejaVuSans-30"/>
     </g>
    </g>
   </g>
   <g id="text_5">
    <g id="patch_6">
     <path clip-path="url(#p8a9978336b)" d="M 383.491149 371.551615 
L 392.750429 364.811772 
Q 394.205719 363.752465 393.146412 362.297175 
L 389.729042 357.60235 
Q 388.669735 356.14706 387.214445 357.206368 
L 377.955165 363.94621 
Q 376.499875 365.005517 377.559182 366.460807 
L 380.976552 371.155632 
Q 382.035859 372.610922 383.491149 371.551615 
z
" style="fill:#ffffff;stroke:#ffffff;stroke-linejoin:miter;"/>
    </g>
    <g clip-path="url(#p8a9978336b)">
     <!-- 800 -->
     <defs>
      <path d="M 31.78125 34.625 
Q 24.75 34.625 20.71875 30.859375 
Q 16.703125 27.09375 16.703125 20.515625 
Q 16.703125 13.921875 20.71875 10.15625 
Q 24.75 6.390625 31.78125 6.390625 
Q 38.8125 6.390625 42.859375 10.171875 
Q 46.921875 13.96875 46.921875 20.515625 
Q 46.921875 27.09375 42.890625 30.859375 
Q 38.875 34.625 31.78125 34.625 
z
M 21.921875 38.8125 
Q 15.578125 40.375 12.03125 44.71875 
Q 8.5 49.078125 8.5 55.328125 
Q 8.5 64.0625 14.71875 69.140625 
Q 20.953125 74.21875 31.78125 74.21875 
Q 42.671875 74.21875 48.875 69.140625 
Q 55.078125 64.0625 55.078125 55.328125 
Q 55.078125 49.078125 51.53125 44.71875 
Q 48 40.375 41.703125 38.8125 
Q 48.828125 37.15625 52.796875 32.3125 
Q 56.78125 27.484375 56.78125 20.515625 
Q 56.78125 9.90625 50.3125 4.234375 
Q 43.84375 -1.421875 31.78125 -1.421875 
Q 19.734375 -1.421875 13.25 4.234375 
Q 6.78125 9.90625 6.78125 20.515625 
Q 6.78125 27.484375 10.78125 32.3125 
Q 14.796875 37.15625 21.921875 38.8125 
z
M 18.3125 54.390625 
Q 18.3125 48.734375 21.84375 45.5625 
Q 25.390625 42.390625 31.78125 42.390625 
Q 38.140625 42.390625 41.71875 45.5625 
Q 45.3125 48.734375 45.3125 54.390625 
Q 45.3125 60.0625 41.71875 63.234375 
Q 38.140625 66.40625 31.78125 66.40625 
Q 25.390625 66.40625 21.84375 63.234375 
Q 18.3125 60.0625 18.3125 54.390625 
z
" id="DejaVuSans-38"/>
     </defs>
     <g transform="translate(381.697499 369.087476)rotate(-36.050922)scale(0.06 -0.06)">
      <use xlink:href="#DejaVuSans-38"/>
      <use x="63.623047" xlink:href="#DejaVuSans-30"/>
      <use x="127.246094" xlink:href="#DejaVuSans-30"/>
     </g>
    </g>
   </g>
   <g id="text_6">
    <g id="patch_7">
     <path clip-path="url(#p8a9978336b)" d="M 743.637807 160.112877 
L 750.19464 169.502643 
Q 751.225183 170.978441 752.700981 169.947897 
L 757.461968 166.623321 
Q 758.937766 165.592778 757.907222 164.11698 
L 751.350389 154.727214 
Q 750.319846 153.251416 748.844048 154.281959 
L 744.083061 157.606536 
Q 742.607263 158.637079 743.637807 160.112877 
z
" style="fill:#ffffff;stroke:#ffffff;stroke-linejoin:miter;"/>
    </g>
    <g clip-path="url(#p8a9978336b)">
     <!-- 800 -->
     <g transform="translate(746.136671 158.367931)rotate(-304.926431)scale(0.06 -0.06)">
      <use xlink:href="#DejaVuSans-38"/>
      <use x="63.623047" xlink:href="#DejaVuSans-30"/>
      <use x="127.246094" xlink:href="#DejaVuSans-30"/>
     </g>
    </g>
   </g>
   <g id="text_7">
    <g id="patch_8">
     <path clip-path="url(#p8a9978336b)" d="M 563.497302 547.890034 
L 578.673703 546.201913 
Q 580.46267 546.00292 580.263677 544.213953 
L 579.621718 538.442672 
Q 579.422726 536.653705 577.633759 536.852698 
L 562.457358 538.54082 
Q 560.668391 538.739813 560.867384 540.528779 
L 561.509343 546.30006 
Q 561.708335 548.089027 563.497302 547.890034 
z
" style="fill:#ffffff;stroke:#ffffff;stroke-linejoin:miter;"/>
    </g>
    <g clip-path="url(#p8a9978336b)">
     <!-- 1200 -->
     <defs>
      <path d="M 19.1875 8.296875 
L 53.609375 8.296875 
L 53.609375 0 
L 7.328125 0 
L 7.328125 8.296875 
Q 12.9375 14.109375 22.625 23.890625 
Q 32.328125 33.6875 34.8125 36.53125 
Q 39.546875 41.84375 41.421875 45.53125 
Q 43.3125 49.21875 43.3125 52.78125 
Q 43.3125 58.59375 39.234375 62.25 
Q 35.15625 65.921875 28.609375 65.921875 
Q 23.96875 65.921875 18.8125 64.3125 
Q 13.671875 62.703125 7.8125 59.421875 
L 7.8125 69.390625 
Q 13.765625 71.78125 18.9375 73 
Q 24.125 74.21875 28.421875 74.21875 
Q 39.75 74.21875 46.484375 68.546875 
Q 53.21875 62.890625 53.21875 53.421875 
Q 53.21875 48.921875 51.53125 44.890625 
Q 49.859375 40.875 45.40625 35.40625 
Q 44.1875 33.984375 37.640625 27.21875 
Q 31.109375 20.453125 19.1875 8.296875 
z
" id="DejaVuSans-32"/>
     </defs>
     <g transform="translate(563.160362 544.860904)rotate(-6.347109)scale(0.06 -0.06)">
      <use xlink:href="#DejaVuSans-31"/>
      <use x="63.623047" xlink:href="#DejaVuSans-32"/>
      <use x="127.246094" xlink:href="#DejaVuSans-30"/>
      <use x="190.869141" xlink:href="#DejaVuSans-30"/>
     </g>
    </g>
   </g>
   <g id="text_8">
    <g id="patch_9">
     <path clip-path="url(#p8a9978336b)" d="M 387.802553 474.49692 
L 397.161813 486.562456 
Q 398.265066 487.98472 399.687329 486.881467 
L 404.275611 483.322328 
Q 405.697874 482.219076 404.594622 480.796812 
L 395.235362 468.731276 
Q 394.132109 467.309013 392.709846 468.412265 
L 388.121564 471.971404 
Q 386.699301 473.074657 387.802553 474.49692 
z
" style="fill:#ffffff;stroke:#ffffff;stroke-linejoin:miter;"/>
    </g>
    <g clip-path="url(#p8a9978336b)">
     <!-- 1100 -->
     <g transform="translate(390.210772 472.628861)rotate(-307.800803)scale(0.06 -0.06)">
      <use xlink:href="#DejaVuSans-31"/>
      <use x="63.623047" xlink:href="#DejaVuSans-31"/>
      <use x="127.246094" xlink:href="#DejaVuSans-30"/>
      <use x="190.869141" xlink:href="#DejaVuSans-30"/>
     </g>
    </g>
   </g>
   <g id="text_9">
    <g id="patch_10">
     <path clip-path="url(#p8a9978336b)" d="M 605.719569 282.39783 
L 617.172069 282.39783 
Q 618.972069 282.39783 618.972069 280.59783 
L 618.972069 274.790955 
Q 618.972069 272.990955 617.172069 272.990955 
L 605.719569 272.990955 
Q 603.919569 272.990955 603.919569 274.790955 
L 603.919569 280.59783 
Q 603.919569 282.39783 605.719569 282.39783 
z
" style="fill:#ffffff;stroke:#ffffff;stroke-linejoin:miter;"/>
    </g>
    <g clip-path="url(#p8a9978336b)">
     <!-- 700 -->
     <g transform="translate(605.719569 279.350018)scale(0.06 -0.06)">
      <use xlink:href="#DejaVuSans-37"/>
      <use x="63.623047" xlink:href="#DejaVuSans-30"/>
      <use x="127.246094" xlink:href="#DejaVuSans-30"/>
     </g>
    </g>
   </g>
   <g id="text_10">
    <g id="patch_11">
     <path clip-path="url(#p8a9978336b)" d="M 454.39654 217.741842 
L 466.887078 208.957802 
Q 468.359441 207.922355 467.323994 206.449993 
L 463.983599 201.700091 
Q 462.948153 200.227729 461.475791 201.263176 
L 448.985252 210.047216 
Q 447.51289 211.082663 448.548337 212.555025 
L 451.888732 217.304926 
Q 452.924178 218.777288 454.39654 217.741842 
z
" style="fill:#ffffff;stroke:#ffffff;stroke-linejoin:miter;"/>
    </g>
    <g clip-path="url(#p8a9978336b)">
     <!-- 2400 -->
     <defs>
      <path d="M 37.796875 64.3125 
L 12.890625 25.390625 
L 37.796875 25.390625 
z
M 35.203125 72.90625 
L 47.609375 72.90625 
L 47.609375 25.390625 
L 58.015625 25.390625 
L 58.015625 17.1875 
L 47.609375 17.1875 
L 47.609375 0 
L 37.796875 0 
L 37.796875 17.1875 
L 4.890625 17.1875 
L 4.890625 26.703125 
z
" id="DejaVuSans-34"/>
     </defs>
     <g transform="translate(452.643292 215.248795)rotate(-35.117016)scale(0.06 -0.06)">
      <use xlink:href="#DejaVuSans-32"/>
      <use x="63.623047" xlink:href="#DejaVuSans-34"/>
      <use x="127.246094" xlink:href="#DejaVuSans-30"/>
      <use x="190.869141" xlink:href="#DejaVuSans-30"/>
     </g>
    </g>
   </g>
   <g id="text_11">
    <g id="patch_12">
     <path clip-path="url(#p8a9978336b)" d="M 784.595917 319.768632 
L 792.3122 311.305847 
Q 793.524975 309.975743 792.194872 308.762968 
L 787.903901 304.850504 
Q 786.573798 303.637729 785.361022 304.967832 
L 777.644739 313.430618 
Q 776.431964 314.760721 777.762068 315.973497 
L 782.053038 319.88596 
Q 783.383142 321.098736 784.595917 319.768632 
z
" style="fill:#ffffff;stroke:#ffffff;stroke-linejoin:miter;"/>
    </g>
    <g clip-path="url(#p8a9978336b)">
     <!-- 300 -->
     <defs>
      <path d="M 40.578125 39.3125 
Q 47.65625 37.796875 51.625 33 
Q 55.609375 28.21875 55.609375 21.1875 
Q 55.609375 10.40625 48.1875 4.484375 
Q 40.765625 -1.421875 27.09375 -1.421875 
Q 22.515625 -1.421875 17.65625 -0.515625 
Q 12.796875 0.390625 7.625 2.203125 
L 7.625 11.71875 
Q 11.71875 9.328125 16.59375 8.109375 
Q 21.484375 6.890625 26.8125 6.890625 
Q 36.078125 6.890625 40.9375 10.546875 
Q 45.796875 14.203125 45.796875 21.1875 
Q 45.796875 27.640625 41.28125 31.265625 
Q 36.765625 34.90625 28.71875 34.90625 
L 20.21875 34.90625 
L 20.21875 43.015625 
L 29.109375 43.015625 
Q 36.375 43.015625 40.234375 45.921875 
Q 44.09375 48.828125 44.09375 54.296875 
Q 44.09375 59.90625 40.109375 62.90625 
Q 36.140625 65.921875 28.71875 65.921875 
Q 24.65625 65.921875 20.015625 65.03125 
Q 15.375 64.15625 9.8125 62.3125 
L 9.8125 71.09375 
Q 15.4375 72.65625 20.34375 73.4375 
Q 25.25 74.21875 29.59375 74.21875 
Q 40.828125 74.21875 47.359375 69.109375 
Q 53.90625 64.015625 53.90625 55.328125 
Q 53.90625 49.265625 50.4375 45.09375 
Q 46.96875 40.921875 40.578125 39.3125 
z
" id="DejaVuSans-33"/>
     </defs>
     <g transform="translate(782.343747 317.715125)rotate(-47.641754)scale(0.06 -0.06)">
      <use xlink:href="#DejaVuSans-33"/>
      <use x="63.623047" xlink:href="#DejaVuSans-30"/>
      <use x="127.246094" xlink:href="#DejaVuSans-30"/>
     </g>
    </g>
   </g>
   <g id="text_12">
    <g id="patch_13">
     <path clip-path="url(#p8a9978336b)" d="M 783.840916 231.288585 
L 786.849571 220.238348 
Q 787.322444 218.501572 785.585668 218.028699 
L 779.982757 216.50319 
Q 778.245981 216.030317 777.773107 217.767093 
L 774.764452 228.817331 
Q 774.291579 230.554107 776.028355 231.02698 
L 781.631267 232.552488 
Q 783.368043 233.025361 783.840916 231.288585 
z
" style="fill:#ffffff;stroke:#ffffff;stroke-linejoin:miter;"/>
    </g>
    <g clip-path="url(#p8a9978336b)">
     <!-- 300 -->
     <g transform="translate(780.900156 230.487903)rotate(-74.769236)scale(0.06 -0.06)">
      <use xlink:href="#DejaVuSans-33"/>
      <use x="63.623047" xlink:href="#DejaVuSans-30"/>
      <use x="127.246094" xlink:href="#DejaVuSans-30"/>
     </g>
    </g>
   </g>
   <g id="text_13">
    <g id="patch_14">
     <path clip-path="url(#p8a9978336b)" d="M 343.014042 164.509114 
L 356.088298 172.398139 
Q 357.629468 173.328083 358.559412 171.786913 
L 361.55945 166.815036 
Q 362.489394 165.273866 360.948225 164.343922 
L 347.873968 156.454896 
Q 346.332799 155.524952 345.402855 157.066122 
L 342.402816 162.038 
Q 341.472872 163.579169 343.014042 164.509114 
z
" style="fill:#ffffff;stroke:#ffffff;stroke-linejoin:miter;"/>
    </g>
    <g clip-path="url(#p8a9978336b)">
     <!-- 2800 -->
     <g transform="translate(344.58865 161.89956)rotate(-328.893157)scale(0.06 -0.06)">
      <use xlink:href="#DejaVuSans-32"/>
      <use x="63.623047" xlink:href="#DejaVuSans-38"/>
      <use x="127.246094" xlink:href="#DejaVuSans-30"/>
      <use x="190.869141" xlink:href="#DejaVuSans-30"/>
     </g>
    </g>
   </g>
   <g id="text_14">
    <g id="patch_15">
     <path clip-path="url(#p8a9978336b)" d="M 596.979649 463.890938 
L 609.555859 455.23 
Q 611.03832 454.209064 610.017384 452.726604 
L 606.723803 447.944123 
Q 605.702867 446.461662 604.220406 447.482598 
L 591.644197 456.143536 
Q 590.161736 457.164472 591.182671 458.646932 
L 594.476253 463.429413 
Q 595.497188 464.911874 596.979649 463.890938 
z
" style="fill:#ffffff;stroke:#ffffff;stroke-linejoin:miter;"/>
    </g>
    <g clip-path="url(#p8a9978336b)">
     <!-- 2000 -->
     <g transform="translate(595.250971 461.380792)rotate(-34.554265)scale(0.06 -0.06)">
      <use xlink:href="#DejaVuSans-32"/>
      <use x="63.623047" xlink:href="#DejaVuSans-30"/>
      <use x="127.246094" xlink:href="#DejaVuSans-30"/>
      <use x="190.869141" xlink:href="#DejaVuSans-30"/>
     </g>
    </g>
   </g>
   <g id="text_15">
    <g id="patch_16">
     <path clip-path="url(#p8a9978336b)" d="M 679.287932 397.981032 
L 679.363773 409.433281 
Q 679.375693 411.233241 681.175653 411.221321 
L 686.982401 411.182867 
Q 688.782362 411.170947 688.770442 409.370986 
L 688.694601 397.918738 
Q 688.682681 396.118777 686.882721 396.130697 
L 681.075973 396.169151 
Q 679.276012 396.181071 679.287932 397.981032 
z
" style="fill:#ffffff;stroke:#ffffff;stroke-linejoin:miter;"/>
    </g>
    <g clip-path="url(#p8a9978336b)">
     <!-- 900 -->
     <defs>
      <path d="M 10.984375 1.515625 
L 10.984375 10.5 
Q 14.703125 8.734375 18.5 7.8125 
Q 22.3125 6.890625 25.984375 6.890625 
Q 35.75 6.890625 40.890625 13.453125 
Q 46.046875 20.015625 46.78125 33.40625 
Q 43.953125 29.203125 39.59375 26.953125 
Q 35.25 24.703125 29.984375 24.703125 
Q 19.046875 24.703125 12.671875 31.3125 
Q 6.296875 37.9375 6.296875 49.421875 
Q 6.296875 60.640625 12.9375 67.421875 
Q 19.578125 74.21875 30.609375 74.21875 
Q 43.265625 74.21875 49.921875 64.515625 
Q 56.59375 54.828125 56.59375 36.375 
Q 56.59375 19.140625 48.40625 8.859375 
Q 40.234375 -1.421875 26.421875 -1.421875 
Q 22.703125 -1.421875 18.890625 -0.6875 
Q 15.09375 0.046875 10.984375 1.515625 
z
M 30.609375 32.421875 
Q 37.25 32.421875 41.125 36.953125 
Q 45.015625 41.5 45.015625 49.421875 
Q 45.015625 57.28125 41.125 61.84375 
Q 37.25 66.40625 30.609375 66.40625 
Q 23.96875 66.40625 20.09375 61.84375 
Q 16.21875 57.28125 16.21875 49.421875 
Q 16.21875 41.5 20.09375 36.953125 
Q 23.96875 32.421875 30.609375 32.421875 
z
" id="DejaVuSans-39"/>
     </defs>
     <g transform="translate(682.335678 397.960848)rotate(-270.379426)scale(0.06 -0.06)">
      <use xlink:href="#DejaVuSans-39"/>
      <use x="63.623047" xlink:href="#DejaVuSans-30"/>
      <use x="127.246094" xlink:href="#DejaVuSans-30"/>
     </g>
    </g>
   </g>
   <g id="text_16">
    <g id="patch_17">
     <path clip-path="url(#p8a9978336b)" d="M 750.400425 192.626674 
L 757.103385 183.340658 
Q 758.156895 181.881166 756.697404 180.827656 
L 751.989023 177.428988 
Q 750.529531 176.375477 749.476021 177.834969 
L 742.773061 187.120985 
Q 741.719551 188.580476 743.179042 189.633987 
L 747.887423 193.032655 
Q 749.346915 194.086165 750.400425 192.626674 
z
" style="fill:#ffffff;stroke:#ffffff;stroke-linejoin:miter;"/>
    </g>
    <g clip-path="url(#p8a9978336b)">
     <!-- 500 -->
     <defs>
      <path d="M 10.796875 72.90625 
L 49.515625 72.90625 
L 49.515625 64.59375 
L 19.828125 64.59375 
L 19.828125 46.734375 
Q 21.96875 47.46875 24.109375 47.828125 
Q 26.265625 48.1875 28.421875 48.1875 
Q 40.625 48.1875 47.75 41.5 
Q 54.890625 34.8125 54.890625 23.390625 
Q 54.890625 11.625 47.5625 5.09375 
Q 40.234375 -1.421875 26.90625 -1.421875 
Q 22.3125 -1.421875 17.546875 -0.640625 
Q 12.796875 0.140625 7.71875 1.703125 
L 7.71875 11.625 
Q 12.109375 9.234375 16.796875 8.0625 
Q 21.484375 6.890625 26.703125 6.890625 
Q 35.15625 6.890625 40.078125 11.328125 
Q 45.015625 15.765625 45.015625 23.390625 
Q 45.015625 31 40.078125 35.4375 
Q 35.15625 39.890625 26.703125 39.890625 
Q 22.75 39.890625 18.8125 39.015625 
Q 14.890625 38.140625 10.796875 36.28125 
z
" id="DejaVuSans-35"/>
     </defs>
     <g transform="translate(747.929171 190.842839)rotate(-54.176977)scale(0.06 -0.06)">
      <use xlink:href="#DejaVuSans-35"/>
      <use x="63.623047" xlink:href="#DejaVuSans-30"/>
      <use x="127.246094" xlink:href="#DejaVuSans-30"/>
     </g>
    </g>
   </g>
   <g id="text_17">
    <g id="patch_18">
     <path clip-path="url(#p8a9978336b)" d="M 739.864272 77.361281 
L 750.937728 80.283325 
Q 752.678153 80.742585 753.137413 79.00216 
L 754.619006 73.387475 
Q 755.078266 71.64705 753.337841 71.18779 
L 742.264385 68.265746 
Q 740.52396 67.806486 740.0647 69.546911 
L 738.583107 75.161596 
Q 738.123847 76.902021 739.864272 77.361281 
z
" style="fill:#ffffff;stroke:#ffffff;stroke-linejoin:miter;"/>
    </g>
    <g clip-path="url(#p8a9978336b)">
     <!-- 800 -->
     <g transform="translate(740.641905 74.414342)rotate(-345.217847)scale(0.06 -0.06)">
      <use xlink:href="#DejaVuSans-38"/>
      <use x="63.623047" xlink:href="#DejaVuSans-30"/>
      <use x="127.246094" xlink:href="#DejaVuSans-30"/>
     </g>
    </g>
   </g>
   <g id="text_18">
    <g id="patch_19">
     <path clip-path="url(#p8a9978336b)" d="M 748.701545 278.137211 
L 760.129784 277.392165 
Q 761.925971 277.275066 761.808872 275.478879 
L 761.431104 269.684305 
Q 761.314004 267.888118 759.517817 268.005217 
L 748.089577 268.750263 
Q 746.29339 268.867363 746.41049 270.66355 
L 746.788258 276.458124 
Q 746.905358 278.254311 748.701545 278.137211 
z
" style="fill:#ffffff;stroke:#ffffff;stroke-linejoin:miter;"/>
    </g>
    <g clip-path="url(#p8a9978336b)">
     <!-- 500 -->
     <g transform="translate(748.503268 275.095855)rotate(-3.73003)scale(0.06 -0.06)">
      <use xlink:href="#DejaVuSans-35"/>
      <use x="63.623047" xlink:href="#DejaVuSans-30"/>
      <use x="127.246094" xlink:href="#DejaVuSans-30"/>
     </g>
    </g>
   </g>
   <g id="text_19">
    <g id="patch_20">
     <path clip-path="url(#p8a9978336b)" d="M 298.922927 546.410197 
L 314.13789 547.705506 
Q 315.931402 547.858194 316.084091 546.064682 
L 316.576671 540.278737 
Q 316.729359 538.485225 314.935847 538.332536 
L 299.720885 537.037227 
Q 297.927373 536.884538 297.774684 538.678051 
L 297.282104 544.463996 
Q 297.129415 546.257508 298.922927 546.410197 
z
" style="fill:#ffffff;stroke:#ffffff;stroke-linejoin:miter;"/>
    </g>
    <g clip-path="url(#p8a9978336b)">
     <!-- 2000 -->
     <g transform="translate(299.181464 543.373369)rotate(-355.133921)scale(0.06 -0.06)">
      <use xlink:href="#DejaVuSans-32"/>
      <use x="63.623047" xlink:href="#DejaVuSans-30"/>
      <use x="127.246094" xlink:href="#DejaVuSans-30"/>
      <use x="190.869141" xlink:href="#DejaVuSans-30"/>
     </g>
    </g>
   </g>
   <g id="text_20">
    <g id="patch_21">
     <path clip-path="url(#p8a9978336b)" d="M 280.712671 384.065238 
L 291.410558 388.153633 
Q 293.091954 388.79621 293.734531 387.114813 
L 295.807511 381.690557 
Q 296.450087 380.00916 294.768691 379.366583 
L 284.070804 375.278189 
Q 282.389407 374.635612 281.74683 376.317009 
L 279.673851 381.741265 
Q 279.031274 383.422662 280.712671 384.065238 
z
" style="fill:#ffffff;stroke:#ffffff;stroke-linejoin:miter;"/>
    </g>
    <g clip-path="url(#p8a9978336b)">
     <!-- 600 -->
     <g transform="translate(281.8007 381.218248)rotate(-339.084723)scale(0.06 -0.06)">
      <use xlink:href="#DejaVuSans-36"/>
      <use x="63.623047" xlink:href="#DejaVuSans-30"/>
      <use x="127.246094" xlink:href="#DejaVuSans-30"/>
     </g>
    </g>
   </g>
   <g id="text_21">
    <g id="patch_22">
     <path clip-path="url(#p8a9978336b)" d="M 165.524852 298.107991 
L 165.737825 282.839476 
Q 165.76293 281.039651 163.963105 281.014546 
L 158.156795 280.933557 
Q 156.35697 280.908452 156.331865 282.708277 
L 156.118892 297.976792 
Q 156.093787 299.776617 157.893612 299.801722 
L 163.699923 299.882711 
Q 165.499747 299.907816 165.524852 298.107991 
z
" style="fill:#ffffff;stroke:#ffffff;stroke-linejoin:miter;"/>
    </g>
    <g clip-path="url(#p8a9978336b)">
     <!-- 1600 -->
     <g transform="translate(162.477336 298.065482)rotate(-89.200863)scale(0.06 -0.06)">
      <use xlink:href="#DejaVuSans-31"/>
      <use x="63.623047" xlink:href="#DejaVuSans-36"/>
      <use x="127.246094" xlink:href="#DejaVuSans-30"/>
      <use x="190.869141" xlink:href="#DejaVuSans-30"/>
     </g>
    </g>
   </g>
   <g id="PathCollection_1">
    <defs>
     <path d="M 0 12.247449 
C 3.248061 12.247449 6.363528 10.95698 8.660254 8.660254 
C 10.95698 6.363528 12.247449 3.248061 12.247449 0 
C 12.247449 -3.248061 10.95698 -6.363528 8.660254 -8.660254 
C 6.363528 -10.95698 3.248061 -12.247449 0 -12.247449 
C -3.248061 -12.247449 -6.363528 -10.95698 -8.660254 -8.660254 
C -10.95698 -6.363528 -12.247449 -3.248061 -12.247449 0 
C -12.247449 3.248061 -10.95698 6.363528 -8.660254 8.660254 
C -6.363528 10.95698 -3.248061 12.247449 0 12.247449 
z
" id="C0_0_3ac12567ab"/>
    </defs>
    <g clip-path="url(#p8a9978336b)">
     <use style="fill:#ff0000;stroke:#ff0000;" x="164.265525" xlink:href="#C0_0_3ac12567ab" y="51.158643"/>
    </g>
    <g clip-path="url(#p8a9978336b)">
     <use style="fill:#ff0000;stroke:#ff0000;" x="64.150534" xlink:href="#C0_0_3ac12567ab" y="310.056643"/>
    </g>
    <g clip-path="url(#p8a9978336b)">
     <use style="fill:#ffa500;stroke:#ffa500;" x="157.591192" xlink:href="#C0_0_3ac12567ab" y="529.657625"/>
    </g>
    <g clip-path="url(#p8a9978336b)">
     <use style="fill:#ffa500;stroke:#ffa500;" x="239.351768" xlink:href="#C0_0_3ac12567ab" y="363.223196"/>
    </g>
    <g clip-path="url(#p8a9978336b)">
     <use style="fill:#ff0000;stroke:#ff0000;" x="336.129593" xlink:href="#C0_0_3ac12567ab" y="400.208625"/>
    </g>
    <g clip-path="url(#p8a9978336b)">
     <use style="fill:#ff0000;stroke:#ff0000;" x="456.267582" xlink:href="#C0_0_3ac12567ab" y="555.085107"/>
    </g>
    <g clip-path="url(#p8a9978336b)">
     <use style="fill:#ffa500;stroke:#ffa500;" x="434.576001" xlink:href="#C0_0_3ac12567ab" y="328.549357"/>
    </g>
    <g clip-path="url(#p8a9978336b)">
     <use style="fill:#ffa500;stroke:#ffa500;" x="539.696742" xlink:href="#C0_0_3ac12567ab" y="277.694393"/>
    </g>
    <g clip-path="url(#p8a9978336b)">
     <use style="fill:#ff0000;stroke:#ff0000;" x="683.194895" xlink:href="#C0_0_3ac12567ab" y="277.694393"/>
    </g>
    <g clip-path="url(#p8a9978336b)">
     <use style="fill:#ff0000;stroke:#ff0000;" x="684.863479" xlink:href="#C0_0_3ac12567ab" y="529.657625"/>
    </g>
    <g clip-path="url(#p8a9978336b)">
     <use style="fill:#ffa500;stroke:#ffa500;" x="676.520563" xlink:href="#C0_0_3ac12567ab" y="55.781821"/>
    </g>
    <g clip-path="url(#p8a9978336b)">
     <use style="fill:#ff0000;stroke:#ff0000;" x="816.68155" xlink:href="#C0_0_3ac12567ab" y="92.76725"/>
    </g>
    <g clip-path="url(#p8a9978336b)">
     <use style="fill:#ffa500;stroke:#ffa500;" x="744.932473" xlink:href="#C0_0_3ac12567ab" y="356.288429"/>
    </g>
    <g clip-path="url(#p8a9978336b)">
     <use style="fill:#ffa500;stroke:#ffa500;" x="825.024466" xlink:href="#C0_0_3ac12567ab" y="268.448036"/>
    </g>
   </g>
   <g id="text_22">
    <g clip-path="url(#p8a9978336b)">
     <!-- 0 -->
     <g transform="translate(160.448025 54.469893)scale(0.12 -0.12)">
      <use xlink:href="#DejaVuSans-30"/>
     </g>
    </g>
   </g>
   <g id="text_23">
    <g clip-path="url(#p8a9978336b)">
     <!-- 1 -->
     <g transform="translate(60.333034 313.367893)scale(0.12 -0.12)">
      <use xlink:href="#DejaVuSans-31"/>
     </g>
    </g>
   </g>
   <g id="text_24">
    <g clip-path="url(#p8a9978336b)">
     <!-- 2 -->
     <g transform="translate(153.773692 532.968875)scale(0.12 -0.12)">
      <use xlink:href="#DejaVuSans-32"/>
     </g>
    </g>
   </g>
   <g id="text_25">
    <g clip-path="url(#p8a9978336b)">
     <!-- 3 -->
     <g transform="translate(235.534268 366.534446)scale(0.12 -0.12)">
      <use xlink:href="#DejaVuSans-33"/>
     </g>
    </g>
   </g>
   <g id="text_26">
    <g clip-path="url(#p8a9978336b)">
     <!-- 4 -->
     <g transform="translate(332.312093 403.519875)scale(0.12 -0.12)">
      <use xlink:href="#DejaVuSans-34"/>
     </g>
    </g>
   </g>
   <g id="text_27">
    <g clip-path="url(#p8a9978336b)">
     <!-- 5 -->
     <g transform="translate(452.450082 558.396357)scale(0.12 -0.12)">
      <use xlink:href="#DejaVuSans-35"/>
     </g>
    </g>
   </g>
   <g id="text_28">
    <g clip-path="url(#p8a9978336b)">
     <!-- 6 -->
     <g transform="translate(430.758501 331.860607)scale(0.12 -0.12)">
      <use xlink:href="#DejaVuSans-36"/>
     </g>
    </g>
   </g>
   <g id="text_29">
    <g clip-path="url(#p8a9978336b)">
     <!-- 7 -->
     <g transform="translate(535.879242 281.005643)scale(0.12 -0.12)">
      <use xlink:href="#DejaVuSans-37"/>
     </g>
    </g>
   </g>
   <g id="text_30">
    <g clip-path="url(#p8a9978336b)">
     <!-- 8 -->
     <g transform="translate(679.377395 281.005643)scale(0.12 -0.12)">
      <use xlink:href="#DejaVuSans-38"/>
     </g>
    </g>
   </g>
   <g id="text_31">
    <g clip-path="url(#p8a9978336b)">
     <!-- 9 -->
     <g transform="translate(681.045979 532.968875)scale(0.12 -0.12)">
      <use xlink:href="#DejaVuSans-39"/>
     </g>
    </g>
   </g>
   <g id="text_32">
    <g clip-path="url(#p8a9978336b)">
     <!-- 10 -->
     <g transform="translate(668.885563 59.093071)scale(0.12 -0.12)">
      <use xlink:href="#DejaVuSans-31"/>
      <use x="63.623047" xlink:href="#DejaVuSans-30"/>
     </g>
    </g>
   </g>
   <g id="text_33">
    <g clip-path="url(#p8a9978336b)">
     <!-- 11 -->
     <g transform="translate(809.04655 96.0785)scale(0.12 -0.12)">
      <use xlink:href="#DejaVuSans-31"/>
      <use x="63.623047" xlink:href="#DejaVuSans-31"/>
     </g>
    </g>
   </g>
   <g id="text_34">
    <g clip-path="url(#p8a9978336b)">
     <!-- 12 -->
     <g transform="translate(737.297473 359.599679)scale(0.12 -0.12)">
      <use xlink:href="#DejaVuSans-31"/>
      <use x="63.623047" xlink:href="#DejaVuSans-32"/>
     </g>
    </g>
   </g>
   <g id="text_35">
    <g clip-path="url(#p8a9978336b)">
     <!-- 13 -->
     <g transform="translate(817.389466 271.759286)scale(0.12 -0.12)">
      <use xlink:href="#DejaVuSans-31"/>
      <use x="63.623047" xlink:href="#DejaVuSans-33"/>
     </g>
    </g>
   </g>
   <g id="text_36">
    <!-- 原拓扑部署情况 -->
    <defs>
     <path d="M 17.96875 67.578125 
Q 17.96875 72.65625 17.578125 78.90625 
L 23.4375 75.78125 
L 76.5625 75.78125 
L 82.421875 81.640625 
L 90.625 73.4375 
L 23.4375 73.4375 
L 23.4375 39.84375 
Q 23.828125 26.5625 21.09375 15.234375 
Q 18.359375 3.90625 7.421875 -7.8125 
L 6.25 -7.03125 
Q 14.0625 4.6875 16.203125 15.03125 
Q 18.359375 25.390625 17.96875 37.890625 
z
M 43.359375 1.953125 
Q 48.046875 1.5625 52.34375 1.359375 
Q 56.640625 1.171875 56.640625 5.078125 
L 56.640625 30.078125 
L 40.234375 30.078125 
L 40.234375 27.34375 
L 34.765625 25 
Q 35.15625 31.25 35.15625 43.15625 
Q 35.15625 55.078125 34.765625 62.5 
L 40.234375 59.765625 
L 49.609375 59.765625 
Q 53.125 67.96875 54.296875 73.046875 
L 61.328125 69.53125 
Q 58.59375 67.96875 56.4375 65.8125 
Q 54.296875 63.671875 51.953125 59.765625 
L 76.5625 59.765625 
L 79.296875 63.671875 
L 85.15625 58.984375 
L 82.421875 56.640625 
L 82.421875 37.5 
Q 82.421875 33.203125 82.8125 27.734375 
L 77.34375 25.390625 
L 77.34375 30.078125 
L 61.71875 30.078125 
L 61.71875 2.734375 
Q 62.109375 -4.6875 53.90625 -7.421875 
Q 53.515625 -1.953125 43.359375 0.390625 
z
M 40.234375 57.421875 
L 40.234375 46.09375 
L 77.34375 46.09375 
L 77.34375 57.421875 
z
M 40.234375 43.75 
L 40.234375 32.421875 
L 77.34375 32.421875 
L 77.34375 43.75 
z
M 43.359375 22.265625 
L 50 16.40625 
Q 45.703125 14.84375 37.890625 8.203125 
Q 30.078125 1.5625 21.09375 -3.125 
L 20.3125 -1.953125 
Q 27.734375 3.90625 33.984375 10.546875 
Q 40.234375 17.1875 43.359375 22.265625 
z
M 66.796875 20.3125 
Q 89.84375 10.9375 91.203125 6.828125 
Q 92.578125 2.734375 91.203125 -0.578125 
Q 89.84375 -3.90625 87.296875 0 
Q 84.765625 3.90625 79.296875 8.984375 
Q 73.828125 14.0625 66.40625 18.75 
z
" id="SimSun-539f"/>
     <path d="M 87.109375 34.375 
Q 87.109375 4.6875 87.5 -3.90625 
L 81.640625 -6.640625 
L 81.640625 1.171875 
L 57.03125 1.171875 
L 57.03125 -5.078125 
L 51.171875 -7.421875 
Q 51.5625 3.90625 51.5625 35.9375 
Q 44.140625 24.609375 32.8125 14.84375 
L 31.640625 16.015625 
Q 52.34375 39.0625 58.203125 66.40625 
L 51.953125 66.40625 
Q 46.875 66.40625 42.578125 65.234375 
L 39.0625 68.75 
L 82.03125 68.75 
L 87.109375 73.828125 
L 94.53125 66.40625 
L 64.84375 66.40625 
Q 60.9375 53.125 54.296875 39.84375 
L 57.03125 37.890625 
L 80.859375 37.890625 
L 83.984375 41.796875 
L 89.84375 37.109375 
z
M 57.03125 35.546875 
L 57.03125 3.515625 
L 81.640625 3.515625 
L 81.640625 35.546875 
z
M 27.734375 36.71875 
L 39.84375 43.359375 
L 40.625 41.796875 
L 27.734375 33.203125 
L 27.734375 1.171875 
Q 27.734375 -5.859375 19.140625 -8.984375 
Q 19.53125 -4.296875 8.203125 -0.78125 
L 8.203125 1.171875 
Q 16.015625 0 19.140625 0 
Q 22.265625 0 22.265625 4.6875 
L 22.265625 29.6875 
Q 10.546875 22.265625 10.546875 19.921875 
L 5.078125 26.5625 
Q 10.15625 28.125 22.265625 34.375 
L 22.265625 55.078125 
L 13.671875 55.078125 
L 9.375 54.296875 
L 6.25 57.421875 
L 22.265625 57.421875 
Q 22.265625 75 21.875 81.640625 
L 31.25 76.953125 
L 27.734375 74.609375 
L 27.734375 57.421875 
L 33.203125 57.421875 
L 37.109375 61.328125 
L 43.359375 55.078125 
L 27.734375 55.078125 
z
" id="SimSun-62d3"/>
     <path d="M 57.03125 -9.765625 
Q 57.421875 3.90625 57.421875 12.109375 
L 57.421875 64.453125 
Q 57.421875 72.265625 57.03125 81.640625 
L 66.40625 77.34375 
L 62.890625 74.609375 
L 62.890625 51.171875 
Q 76.5625 45.3125 84.171875 40.8125 
Q 91.796875 36.328125 92.578125 33 
Q 93.359375 29.6875 91.796875 26.359375 
Q 90.234375 23.046875 84.765625 30.859375 
Q 79.296875 38.671875 62.890625 49.21875 
L 62.890625 5.859375 
Q 62.890625 -1.171875 63.28125 -6.640625 
z
M 27.734375 30.859375 
Q 14.0625 23.828125 12.890625 20.703125 
L 7.03125 27.34375 
Q 14.453125 29.6875 27.734375 35.15625 
L 27.734375 55.078125 
L 16.015625 55.078125 
L 12.5 54.296875 
L 9.375 57.421875 
L 27.734375 57.421875 
Q 27.734375 73.828125 27.34375 82.421875 
L 36.71875 77.734375 
L 33.203125 75.390625 
L 33.203125 57.421875 
L 40.625 57.421875 
L 44.921875 61.71875 
L 51.5625 55.078125 
L 33.203125 55.078125 
L 33.203125 37.5 
L 48.828125 44.53125 
L 49.609375 43.359375 
L 33.203125 33.59375 
L 33.203125 4.296875 
Q 33.984375 -7.03125 24.21875 -9.765625 
Q 23.046875 -3.125 12.5 -1.171875 
L 12.5 0.390625 
Q 20.703125 -0.390625 24.21875 -0.1875 
Q 27.734375 0 27.734375 4.296875 
z
" id="SimSun-6251"/>
     <path d="M 62.890625 -10.15625 
L 62.890625 57.03125 
Q 62.890625 66.40625 62.5 75 
L 67.96875 70.703125 
L 85.546875 70.703125 
L 89.0625 74.21875 
L 94.53125 68.75 
L 91.015625 66.015625 
L 79.296875 40.625 
Q 86.328125 34.375 89.453125 28.3125 
Q 92.578125 22.265625 92.578125 16.984375 
Q 92.578125 11.71875 89.453125 8 
Q 86.328125 4.296875 80.859375 2.734375 
Q 78.90625 8.203125 69.921875 10.546875 
L 69.921875 12.109375 
Q 77.734375 10.9375 81.046875 10.9375 
Q 84.375 10.9375 85.9375 14.453125 
Q 87.5 17.96875 85.9375 25 
Q 84.375 32.03125 76.953125 40.625 
L 85.9375 68.359375 
L 67.96875 68.359375 
L 67.96875 -7.421875 
z
M 21.09375 25.390625 
L 21.09375 5.859375 
L 44.140625 5.859375 
L 44.140625 25.390625 
z
M 8.984375 65.234375 
L 32.03125 65.234375 
Q 31.25 69.921875 30.078125 73.046875 
Q 28.90625 76.171875 26.171875 79.6875 
L 26.953125 80.859375 
Q 37.109375 75 37.6875 71.671875 
Q 38.28125 68.359375 34.375 65.234375 
L 47.265625 65.234375 
L 51.5625 69.921875 
L 57.8125 62.890625 
L 19.921875 62.890625 
Q 16.796875 62.890625 12.5 61.71875 
z
M 36.328125 40.234375 
Q 42.578125 54.6875 43.359375 60.9375 
L 51.5625 55.859375 
L 48.046875 53.90625 
Q 44.53125 48.828125 39.0625 40.234375 
L 51.171875 40.234375 
L 55.859375 44.921875 
L 62.109375 37.890625 
L 16.015625 37.890625 
Q 12.890625 37.890625 8.59375 36.71875 
L 5.078125 40.234375 
z
M 15.625 -7.03125 
Q 16.015625 2.734375 16.015625 12.109375 
Q 16.015625 21.484375 15.625 31.25 
L 21.484375 27.734375 
L 43.75 27.734375 
L 47.65625 31.640625 
L 52.734375 26.5625 
L 49.21875 23.828125 
Q 49.21875 3.90625 49.609375 -2.734375 
L 44.140625 -5.46875 
L 44.140625 3.515625 
L 21.09375 3.515625 
L 21.09375 -4.6875 
z
M 17.96875 59.375 
Q 25 54.296875 26.953125 51.5625 
Q 28.90625 48.828125 28.3125 46.484375 
Q 27.734375 44.140625 25.78125 42.375 
Q 23.828125 40.625 23.046875 44.328125 
Q 22.265625 48.046875 21.09375 51.171875 
Q 19.921875 54.296875 17.1875 58.203125 
z
" id="SimSun-90e8"/>
     <path d="M 35.9375 10.546875 
L 35.9375 0 
L 71.875 0 
L 71.875 10.546875 
z
M 30.078125 -9.375 
Q 30.46875 1.953125 30.46875 17.578125 
Q 16.015625 10.9375 4.296875 8.203125 
L 3.90625 9.375 
Q 17.96875 14.84375 30.46875 21.484375 
L 30.46875 28.125 
L 36.328125 25.390625 
Q 45.3125 30.46875 53.515625 35.546875 
L 18.359375 35.546875 
Q 13.28125 35.546875 8.984375 34.375 
L 5.46875 37.890625 
L 44.140625 37.890625 
L 44.140625 47.265625 
L 30.078125 47.265625 
Q 25 47.265625 20.703125 46.09375 
L 17.1875 49.609375 
L 44.140625 49.609375 
Q 44.140625 55.859375 43.75 59.765625 
L 52.34375 56.25 
L 49.609375 53.515625 
L 49.609375 49.609375 
L 55.46875 49.609375 
L 60.546875 54.6875 
L 67.578125 47.265625 
L 49.609375 47.265625 
L 49.609375 37.890625 
L 56.640625 37.890625 
Q 70.703125 48.828125 76.171875 57.03125 
L 82.03125 49.609375 
L 78.125 49.21875 
Q 70.3125 42.96875 63.671875 37.890625 
L 82.421875 37.890625 
L 87.890625 42.96875 
L 94.53125 35.546875 
L 61.71875 35.546875 
Q 52.34375 29.6875 43.359375 25 
L 71.09375 25 
L 74.21875 28.90625 
L 80.859375 23.828125 
L 77.34375 21.09375 
Q 77.34375 6.25 77.34375 2.140625 
Q 77.34375 -1.953125 77.734375 -6.640625 
L 71.875 -8.59375 
L 71.875 -2.34375 
L 35.9375 -2.34375 
L 35.9375 -7.03125 
z
M 35.9375 21.09375 
L 35.9375 12.890625 
L 71.875 12.890625 
L 71.875 22.65625 
L 39.84375 22.65625 
z
M 24.21875 75.390625 
L 24.21875 62.109375 
L 39.0625 62.109375 
L 39.0625 75.390625 
z
M 44.140625 75.390625 
L 44.140625 62.109375 
L 58.59375 62.109375 
L 58.59375 75.390625 
z
M 63.671875 75.390625 
L 63.671875 62.109375 
L 80.078125 62.109375 
L 80.078125 75.390625 
z
M 85.15625 68.359375 
Q 85.15625 62.890625 85.546875 57.421875 
L 80.078125 55.46875 
L 80.078125 59.765625 
L 24.21875 59.765625 
L 24.21875 58.203125 
L 18.75 55.859375 
Q 19.140625 64.453125 19.140625 70.109375 
Q 19.140625 75.78125 18.75 81.25 
L 24.609375 77.734375 
L 79.296875 77.734375 
L 82.03125 81.25 
L 88.28125 76.953125 
L 85.15625 74.21875 
z
" id="SimSun-7f72"/>
     <path d="M 18.359375 66.015625 
Q 18.359375 73.828125 17.96875 81.640625 
L 27.34375 77.34375 
L 23.828125 74.609375 
L 23.828125 64.0625 
Q 32.03125 60.9375 33.59375 58.78125 
Q 35.15625 56.640625 34.953125 54.6875 
Q 34.765625 52.734375 33 50.78125 
Q 31.25 48.828125 29.484375 53.3125 
Q 27.734375 57.8125 23.828125 62.109375 
L 23.828125 6.25 
Q 23.828125 0 24.21875 -7.03125 
L 17.96875 -9.765625 
Q 18.359375 0.390625 18.359375 8.59375 
z
M 12.5 59.765625 
Q 13.671875 48.4375 12.890625 45.109375 
Q 12.109375 41.796875 9.953125 40.625 
Q 7.8125 39.453125 5.46875 40.625 
Q 3.125 41.796875 6.25 45.703125 
Q 9.375 49.609375 10.9375 59.765625 
z
M 67.578125 77.34375 
L 64.0625 75 
L 64.0625 67.96875 
L 79.296875 67.96875 
L 83.984375 72.65625 
L 91.015625 65.625 
L 64.0625 65.625 
L 64.0625 56.25 
L 75.78125 56.25 
L 80.078125 60.546875 
L 86.71875 53.90625 
L 64.0625 53.90625 
L 64.0625 44.140625 
L 83.59375 44.140625 
L 88.28125 48.828125 
L 95.3125 41.796875 
L 42.96875 41.796875 
Q 37.890625 41.796875 33.59375 40.625 
L 30.078125 44.140625 
L 58.59375 44.140625 
L 58.59375 53.90625 
L 52.734375 53.90625 
Q 47.65625 53.90625 43.359375 52.734375 
L 39.84375 56.25 
L 58.59375 56.25 
L 58.59375 65.625 
L 47.265625 65.625 
Q 42.1875 65.625 37.890625 64.453125 
L 34.375 67.96875 
L 58.59375 67.96875 
Q 58.59375 74.609375 58.203125 82.03125 
z
M 46.484375 32.03125 
L 46.484375 24.21875 
L 76.953125 24.21875 
L 76.953125 32.03125 
z
M 46.484375 21.875 
L 46.484375 12.890625 
L 76.953125 12.890625 
L 76.953125 21.875 
z
M 41.015625 37.890625 
L 46.484375 34.375 
L 76.171875 34.375 
L 78.90625 38.28125 
L 85.15625 33.59375 
L 82.421875 31.25 
L 82.421875 0.78125 
Q 82.8125 -7.421875 74.21875 -9.765625 
Q 74.609375 -5.859375 64.453125 -2.734375 
L 64.453125 -0.78125 
Q 70.3125 -1.953125 73.828125 -1.75 
Q 77.34375 -1.5625 76.953125 2.734375 
L 76.953125 10.546875 
L 46.484375 10.546875 
L 46.484375 -7.03125 
L 41.015625 -9.765625 
Q 41.40625 1.5625 41.40625 15.625 
Q 41.40625 29.6875 41.015625 37.890625 
z
" id="SimSun-60c5"/>
     <path d="M 9.375 75 
Q 22.265625 67.578125 22.0625 63.46875 
Q 21.875 59.375 19.328125 57.21875 
Q 16.796875 55.078125 15.421875 60.546875 
Q 14.0625 66.015625 8.59375 73.828125 
z
M 5.078125 28.90625 
Q 8.984375 28.125 10.546875 27.921875 
Q 12.109375 27.734375 14.453125 28.515625 
Q 16.796875 29.296875 31.640625 66.40625 
L 33.203125 65.625 
Q 21.484375 32.421875 20.109375 27.53125 
Q 18.75 22.65625 18.359375 16.984375 
Q 17.96875 11.328125 17.765625 5.859375 
Q 17.578125 0.390625 15.03125 1.171875 
Q 12.5 1.953125 10.546875 4.296875 
Q 8.59375 6.640625 10.34375 10.734375 
Q 12.109375 14.84375 12.5 19.53125 
Q 12.890625 24.21875 4.6875 27.34375 
z
M 42.578125 70.3125 
L 42.578125 42.1875 
L 75.78125 42.1875 
L 75.78125 70.3125 
z
M 80.859375 48.046875 
Q 80.859375 42.96875 81.25 37.109375 
L 75.78125 34.765625 
L 75.78125 39.84375 
L 67.96875 39.84375 
L 67.96875 6.25 
Q 67.1875 -0.78125 72.65625 -1.171875 
L 83.984375 -1.171875 
Q 87.109375 -0.390625 87.5 4.296875 
Q 87.890625 8.984375 88.28125 17.578125 
L 90.234375 17.578125 
Q 90.234375 10.546875 91.015625 5.65625 
Q 91.796875 0.78125 95.703125 0 
Q 93.359375 -5.859375 85.546875 -5.859375 
L 70.3125 -5.859375 
Q 62.5 -5.859375 62.890625 3.515625 
L 62.890625 39.84375 
L 55.078125 39.84375 
Q 54.296875 12.5 44.71875 3.703125 
Q 35.15625 -5.078125 19.140625 -9.765625 
L 18.75 -8.203125 
Q 32.03125 -2.734375 40.421875 5.65625 
Q 48.828125 14.0625 49.609375 39.84375 
L 42.578125 39.84375 
L 42.578125 35.546875 
L 37.109375 33.203125 
Q 37.5 42.1875 37.5 46.875 
L 37.5 62.5 
Q 37.5 67.578125 37.109375 75.78125 
L 42.578125 72.65625 
L 75.390625 72.65625 
L 78.515625 76.171875 
L 83.984375 71.09375 
L 80.859375 68.75 
z
" id="SimSun-51b5"/>
    </defs>
    <g transform="translate(357.0875 19.921875)scale(0.25 -0.25)">
     <use xlink:href="#SimSun-539f"/>
     <use x="100" xlink:href="#SimSun-62d3"/>
     <use x="200" xlink:href="#SimSun-6251"/>
     <use x="300" xlink:href="#SimSun-90e8"/>
     <use x="400" xlink:href="#SimSun-7f72"/>
     <use x="500" xlink:href="#SimSun-60c5"/>
     <use x="600" xlink:href="#SimSun-51b5"/>
    </g>
   </g>
  </g>
 </g>
 <defs>
  <clipPath id="p8a9978336b">
   <rect height="554.4" width="837" x="26.0875" y="25.921875"/>
  </clipPath>
 </defs>
</svg>
