<?xml version="1.0" encoding="utf-8" standalone="no"?>
<!DOCTYPE svg PUBLIC "-//W3C//DTD SVG 1.1//EN"
  "http://www.w3.org/Graphics/SVG/1.1/DTD/svg11.dtd">
<svg xmlns:xlink="http://www.w3.org/1999/xlink" width="334.068663pt" height="118.417816pt" viewBox="0 0 334.068663 118.417816" xmlns="http://www.w3.org/2000/svg" version="1.1">
 <metadata>
  <rdf:RDF xmlns:dc="http://purl.org/dc/elements/1.1/" xmlns:cc="http://creativecommons.org/ns#" xmlns:rdf="http://www.w3.org/1999/02/22-rdf-syntax-ns#">
   <cc:Work>
    <dc:type rdf:resource="http://purl.org/dc/dcmitype/StillImage"/>
    <dc:date>2021-12-10T19:58:38.242835</dc:date>
    <dc:format>image/svg+xml</dc:format>
    <dc:creator>
     <cc:Agent>
      <dc:title>Matplotlib v3.5.0, https://matplotlib.org/</dc:title>
     </cc:Agent>
    </dc:creator>
   </cc:Work>
  </rdf:RDF>
 </metadata>
 <defs>
  <style type="text/css">*{stroke-linejoin: round; stroke-linecap: butt}</style>
 </defs>
 <g id="figure_1">
  <g id="patch_1">
   <path d="M 0 118.417816 
L 334.068663 118.417816 
L 334.068663 -0 
L 0 -0 
z
" style="fill: #ffffff"/>
  </g>
  <g id="axes_1">
   <g id="patch_2">
    <path d="M 22.92625 98.220472 
L 152.42875 98.220472 
L 152.42875 -0 
L 22.92625 -0 
z
" style="fill: #ffffff"/>
   </g>
   <g id="matplotlib.axis_1">
    <g id="xtick_1">
     <g id="line2d_1">
      <defs>
       <path id="m5792f9543d" d="M 0 0 
L 0 -3.5 
" style="stroke: #000000; stroke-width: 0.8"/>
      </defs>
      <g>
       <use xlink:href="#m5792f9543d" x="28.812727" y="98.220472" style="stroke: #000000; stroke-width: 0.8"/>
      </g>
     </g>
     <g id="text_1">
      <!-- 0.00 -->
      <g transform="translate(22.589837 106.578909)scale(0.07 -0.07)">
       <defs>
        <path id="Euclid-30" d="M 2938 2042 
Q 2938 2477 2880 2905 
Q 2822 3334 2598 3706 
Q 2438 3974 2169 4121 
Q 1901 4269 1594 4269 
Q 1286 4269 1017 4121 
Q 749 3974 589 3706 
Q 365 3334 307 2905 
Q 250 2477 250 2042 
Q 250 1619 307 1196 
Q 365 774 589 410 
Q 749 147 1017 3 
Q 1286 -141 1594 -141 
Q 1901 -141 2169 3 
Q 2438 147 2598 410 
Q 2822 774 2880 1196 
Q 2938 1619 2938 2042 
z
M 2406 2144 
Q 2406 1939 2403 1708 
Q 2400 1478 2387 1260 
Q 2374 1043 2345 848 
Q 2317 653 2266 518 
Q 2182 294 2003 147 
Q 1824 0 1594 0 
Q 1363 0 1184 147 
Q 1005 294 922 518 
Q 870 653 841 848 
Q 813 1043 800 1260 
Q 787 1478 784 1708 
Q 781 1939 781 2144 
Q 781 2336 784 2544 
Q 787 2752 800 2953 
Q 813 3155 841 3334 
Q 870 3514 922 3642 
Q 1011 3846 1190 3984 
Q 1370 4122 1594 4122 
Q 1818 4122 1997 3984 
Q 2176 3846 2266 3642 
Q 2317 3514 2345 3334 
Q 2374 3155 2387 2953 
Q 2400 2752 2403 2544 
Q 2406 2336 2406 2144 
z
" transform="scale(0.015625)"/>
        <path id="Euclid-2e" d="M 1222 339 
Q 1222 480 1123 579 
Q 1024 678 883 678 
Q 742 678 643 579 
Q 544 480 544 339 
Q 544 198 643 99 
Q 742 0 883 0 
Q 1024 0 1123 99 
Q 1222 198 1222 339 
z
" transform="scale(0.015625)"/>
       </defs>
       <use xlink:href="#Euclid-30"/>
       <use xlink:href="#Euclid-2e" x="49.999985"/>
       <use xlink:href="#Euclid-30" x="77.799973"/>
       <use xlink:href="#Euclid-30" x="127.799957"/>
      </g>
     </g>
    </g>
    <g id="xtick_2">
     <g id="line2d_2">
      <g>
       <use xlink:href="#m5792f9543d" x="52.358636" y="98.220472" style="stroke: #000000; stroke-width: 0.8"/>
      </g>
     </g>
     <g id="text_2">
      <!-- 0.02 -->
      <g transform="translate(46.135746 106.578909)scale(0.07 -0.07)">
       <defs>
        <path id="Euclid-32" d="M 2867 1114 
L 2707 1114 
Q 2694 1037 2678 947 
Q 2662 858 2643 774 
Q 2624 691 2601 624 
Q 2579 557 2554 531 
Q 2541 518 2422 508 
Q 2304 499 2141 496 
Q 1978 493 1792 493 
Q 1606 493 1466 493 
L 819 493 
L 1555 1210 
Q 1741 1389 1968 1581 
Q 2195 1773 2396 1990 
Q 2598 2208 2732 2461 
Q 2867 2714 2867 3021 
Q 2867 3290 2768 3517 
Q 2669 3744 2489 3913 
Q 2310 4083 2057 4176 
Q 1805 4269 1504 4269 
Q 1261 4269 1043 4176 
Q 826 4083 666 3923 
Q 506 3763 413 3545 
Q 320 3328 320 3085 
Q 320 2918 425 2832 
Q 531 2746 653 2746 
Q 781 2746 886 2832 
Q 992 2918 992 3085 
Q 992 3181 950 3251 
Q 909 3322 848 3363 
Q 787 3405 710 3414 
Q 634 3424 563 3405 
Q 659 3693 896 3881 
Q 1133 4070 1440 4070 
Q 1651 4070 1808 3984 
Q 1965 3898 2070 3754 
Q 2176 3610 2230 3421 
Q 2285 3232 2285 3021 
Q 2285 2765 2198 2531 
Q 2112 2298 1971 2083 
Q 1830 1869 1654 1661 
Q 1478 1453 1299 1254 
L 333 173 
Q 320 147 320 134 
L 320 0 
L 2688 0 
L 2867 1114 
z
" transform="scale(0.015625)"/>
       </defs>
       <use xlink:href="#Euclid-30"/>
       <use xlink:href="#Euclid-2e" x="49.999985"/>
       <use xlink:href="#Euclid-30" x="77.799973"/>
       <use xlink:href="#Euclid-32" x="127.799957"/>
      </g>
     </g>
    </g>
    <g id="xtick_3">
     <g id="line2d_3">
      <g>
       <use xlink:href="#m5792f9543d" x="75.904545" y="98.220472" style="stroke: #000000; stroke-width: 0.8"/>
      </g>
     </g>
     <g id="text_3">
      <!-- 0.04 -->
      <g transform="translate(69.681655 106.578909)scale(0.07 -0.07)">
       <defs>
        <path id="Euclid-34" d="M 3008 1062 
L 3008 1261 
L 2368 1261 
L 2368 4269 
Q 2368 4339 2298 4339 
L 2234 4339 
Q 2189 4339 2163 4301 
L 179 1261 
L 179 1062 
L 1875 1062 
L 1875 429 
Q 1875 365 1849 310 
Q 1824 256 1773 237 
Q 1690 205 1536 201 
Q 1382 198 1248 198 
L 1248 0 
Q 2125 38 2989 0 
L 2989 198 
Q 2861 198 2704 201 
Q 2547 205 2470 237 
Q 2419 256 2393 310 
Q 2368 365 2368 429 
L 2368 1062 
L 3008 1062 
z
M 1907 1261 
L 358 1261 
L 1907 3635 
L 1907 1261 
z
" transform="scale(0.015625)"/>
       </defs>
       <use xlink:href="#Euclid-30"/>
       <use xlink:href="#Euclid-2e" x="49.999985"/>
       <use xlink:href="#Euclid-30" x="77.799973"/>
       <use xlink:href="#Euclid-34" x="127.799957"/>
      </g>
     </g>
    </g>
    <g id="xtick_4">
     <g id="line2d_4">
      <g>
       <use xlink:href="#m5792f9543d" x="99.450455" y="98.220472" style="stroke: #000000; stroke-width: 0.8"/>
      </g>
     </g>
     <g id="text_4">
      <!-- 0.06 -->
      <g transform="translate(93.227564 106.578909)scale(0.07 -0.07)">
       <defs>
        <path id="Euclid-36" d="M 2918 1299 
Q 2918 1606 2835 1843 
Q 2752 2080 2547 2310 
Q 2355 2522 2144 2624 
Q 1933 2726 1638 2726 
Q 1344 2726 1145 2547 
Q 947 2368 838 2093 
Q 845 2477 880 2841 
Q 915 3206 1094 3526 
Q 1235 3776 1456 3942 
Q 1677 4109 1952 4109 
Q 2150 4109 2300 4041 
Q 2451 3974 2528 3846 
Q 2400 3872 2288 3798 
Q 2176 3725 2176 3558 
Q 2176 3411 2265 3337 
Q 2355 3264 2464 3264 
Q 2579 3264 2668 3337 
Q 2758 3411 2758 3558 
Q 2758 3904 2528 4086 
Q 2298 4269 1952 4269 
Q 1587 4269 1280 4086 
Q 973 3904 755 3616 
Q 499 3277 384 2880 
Q 269 2483 269 2067 
Q 269 1651 329 1235 
Q 390 819 608 448 
Q 762 179 1021 19 
Q 1280 -141 1594 -141 
Q 1894 -141 2112 -38 
Q 2330 64 2534 282 
Q 2746 512 2832 752 
Q 2918 992 2918 1299 
z
M 2349 1299 
Q 2349 1018 2326 794 
Q 2304 570 2195 384 
Q 2086 205 1942 121 
Q 1798 38 1594 38 
Q 1382 38 1216 179 
Q 1050 320 966 538 
Q 915 666 892 861 
Q 870 1056 858 1280 
L 858 1306 
Q 838 1555 883 1785 
Q 928 2016 1027 2192 
Q 1126 2368 1276 2477 
Q 1427 2586 1632 2586 
Q 1830 2586 1964 2496 
Q 2099 2406 2208 2227 
Q 2310 2048 2329 1817 
Q 2349 1587 2349 1299 
z
" transform="scale(0.015625)"/>
       </defs>
       <use xlink:href="#Euclid-30"/>
       <use xlink:href="#Euclid-2e" x="49.999985"/>
       <use xlink:href="#Euclid-30" x="77.799973"/>
       <use xlink:href="#Euclid-36" x="127.799957"/>
      </g>
     </g>
    </g>
    <g id="xtick_5">
     <g id="line2d_5">
      <g>
       <use xlink:href="#m5792f9543d" x="122.996364" y="98.220472" style="stroke: #000000; stroke-width: 0.8"/>
      </g>
     </g>
     <g id="text_5">
      <!-- 0.08 -->
      <g transform="translate(116.773473 106.578909)scale(0.07 -0.07)">
       <defs>
        <path id="Euclid-38" d="M 2918 1075 
Q 2918 1382 2764 1644 
Q 2611 1907 2355 2074 
L 1971 2323 
Q 2125 2400 2265 2499 
Q 2406 2598 2512 2723 
Q 2618 2848 2682 2995 
Q 2746 3142 2746 3315 
Q 2746 3533 2650 3709 
Q 2554 3885 2390 4009 
Q 2227 4134 2019 4201 
Q 1811 4269 1594 4269 
Q 1363 4269 1155 4185 
Q 947 4102 787 3958 
Q 627 3814 534 3619 
Q 442 3424 442 3194 
Q 442 2918 579 2688 
Q 717 2458 941 2310 
L 1197 2144 
Q 1005 2054 838 1936 
Q 672 1818 544 1670 
Q 416 1523 342 1347 
Q 269 1171 269 960 
Q 269 710 381 505 
Q 493 301 675 157 
Q 858 13 1098 -64 
Q 1338 -141 1594 -141 
Q 1862 -141 2102 -48 
Q 2342 45 2524 208 
Q 2707 371 2812 592 
Q 2918 813 2918 1075 
z
M 2458 3315 
Q 2458 3021 2278 2793 
Q 2099 2566 1824 2413 
L 1043 2918 
Q 902 3008 816 3142 
Q 730 3277 730 3437 
Q 730 3584 800 3709 
Q 870 3834 988 3923 
Q 1107 4013 1264 4061 
Q 1421 4109 1594 4109 
Q 1766 4109 1923 4048 
Q 2080 3987 2198 3881 
Q 2317 3776 2387 3629 
Q 2458 3482 2458 3315 
z
M 2598 851 
Q 2598 672 2518 521 
Q 2438 371 2297 265 
Q 2157 160 1974 99 
Q 1792 38 1594 38 
Q 1389 38 1206 108 
Q 1024 179 886 304 
Q 749 429 669 598 
Q 589 768 589 960 
Q 589 1318 803 1600 
Q 1018 1882 1344 2048 
L 2221 1485 
Q 2387 1376 2492 1209 
Q 2598 1043 2598 851 
z
" transform="scale(0.015625)"/>
       </defs>
       <use xlink:href="#Euclid-30"/>
       <use xlink:href="#Euclid-2e" x="49.999985"/>
       <use xlink:href="#Euclid-30" x="77.799973"/>
       <use xlink:href="#Euclid-38" x="127.799957"/>
      </g>
     </g>
    </g>
    <g id="xtick_6">
     <g id="line2d_6">
      <g>
       <use xlink:href="#m5792f9543d" x="146.542273" y="98.220472" style="stroke: #000000; stroke-width: 0.8"/>
      </g>
     </g>
     <g id="text_6">
      <!-- 0.10 -->
      <g transform="translate(140.319382 106.578909)scale(0.07 -0.07)">
       <defs>
        <path id="Euclid-31" d="M 2682 0 
L 2682 198 
Q 2598 198 2502 198 
Q 2406 198 2313 201 
Q 2221 205 2144 214 
Q 2067 224 2016 237 
Q 1952 250 1917 304 
Q 1882 358 1882 429 
L 1882 4198 
Q 1882 4269 1811 4269 
L 1734 4269 
Q 1510 4032 1203 3942 
Q 896 3853 570 3853 
L 570 3661 
Q 794 3661 1008 3699 
Q 1222 3738 1408 3827 
L 1408 429 
Q 1408 358 1373 304 
Q 1338 250 1274 237 
Q 1222 224 1142 214 
Q 1062 205 972 201 
Q 883 198 787 198 
Q 691 198 608 198 
L 608 0 
Q 1645 38 2682 0 
z
" transform="scale(0.015625)"/>
       </defs>
       <use xlink:href="#Euclid-30"/>
       <use xlink:href="#Euclid-2e" x="49.999985"/>
       <use xlink:href="#Euclid-31" x="77.799973"/>
       <use xlink:href="#Euclid-30" x="127.799957"/>
      </g>
     </g>
    </g>
    <g id="text_7">
     <!-- 光纤百公里故障概率 -->
     <g transform="translate(56.1775 117.515472)scale(0.07 -0.07)">
      <defs>
       <path id="SimSun-5149" d="M 1300 4475 
L 1350 4550 
Q 2175 3975 2287 3750 
Q 2400 3525 2400 3400 
Q 2400 3250 2312 3125 
Q 2225 3000 2175 3000 
Q 2075 3000 2000 3325 
Q 1850 3775 1300 4475 
z
M 3025 2700 
L 3025 4150 
Q 3025 4550 3000 5150 
L 3600 4900 
L 3375 4675 
L 3375 2700 
L 3800 2700 
Q 4300 3525 4625 4500 
L 5150 4125 
L 4925 4000 
Q 4375 3225 3950 2700 
L 5150 2700 
L 5500 3050 
L 5975 2550 
L 3925 2550 
L 3925 325 
Q 3925 -100 4300 -100 
L 5300 -100 
Q 5475 -100 5525 137 
Q 5575 375 5625 1275 
L 5750 1275 
Q 5750 625 5800 387 
Q 5850 150 6100 0 
Q 5925 -375 5475 -400 
L 4225 -400 
Q 3600 -400 3600 200 
L 3600 2550 
L 2625 2550 
Q 2550 1150 2100 487 
Q 1650 -175 325 -650 
L 300 -550 
Q 1500 0 1862 700 
Q 2225 1400 2250 2550 
L 1200 2550 
Q 875 2550 600 2475 
L 375 2700 
L 3025 2700 
z
" transform="scale(0.015625)"/>
       <path id="SimSun-7ea4" d="M 5300 5175 
L 5700 4725 
Q 5500 4725 5175 4675 
Q 4825 4625 4450 4575 
L 4450 2625 
L 5375 2625 
L 5750 2975 
L 6125 2475 
L 4450 2475 
L 4450 300 
Q 4450 -150 4500 -525 
L 4075 -650 
Q 4100 150 4100 2475 
L 3150 2475 
Q 2825 2475 2550 2400 
L 2325 2625 
L 4100 2625 
L 4100 4500 
Q 3525 4425 2700 4325 
L 2700 4425 
Q 3500 4550 4300 4787 
Q 5100 5025 5300 5175 
z
M 825 3225 
L 1950 3250 
Q 2275 3725 2450 4150 
L 2875 3850 
Q 2675 3750 2325 3275 
Q 1950 2775 1075 1750 
Q 2050 1850 2775 1925 
L 2775 1825 
Q 2075 1700 1550 1562 
Q 1025 1425 750 1225 
L 450 1725 
Q 750 1775 1037 2087 
Q 1325 2400 1850 3100 
Q 1600 3100 1200 3025 
Q 800 2950 625 2800 
L 400 3225 
Q 600 3225 1050 3937 
Q 1500 4650 1650 5150 
L 2125 4825 
Q 1900 4750 1625 4325 
Q 1325 3900 825 3225 
z
M 400 300 
Q 875 375 1375 500 
Q 1875 625 2900 925 
L 2925 825 
Q 2100 525 1425 250 
Q 750 -25 700 -150 
L 400 300 
z
" transform="scale(0.015625)"/>
       <path id="SimSun-767e" d="M 1450 -550 
Q 1475 100 1475 1525 
Q 1475 2950 1450 3575 
L 1875 3375 
L 2625 3375 
Q 2875 4225 2900 4550 
L 1300 4550 
Q 975 4550 700 4475 
L 475 4700 
L 5150 4700 
L 5475 5025 
L 5950 4550 
L 3150 4550 
L 3475 4350 
Q 3275 4325 2775 3375 
L 4525 3375 
L 4775 3625 
L 5125 3275 
L 4925 3125 
L 4925 700 
Q 4925 -50 4950 -375 
L 4550 -500 
L 4550 0 
L 1850 0 
L 1850 -375 
L 1450 -550 
z
M 1850 3225 
L 1850 1825 
L 4550 1825 
L 4550 3225 
L 1850 3225 
z
M 1850 1675 
L 1850 150 
L 4550 150 
L 4550 1675 
L 1850 1675 
z
" transform="scale(0.015625)"/>
       <path id="SimSun-516c" d="M 1575 175 
L 4525 225 
Q 4250 725 3725 1375 
L 3800 1450 
Q 4725 700 4937 375 
Q 5150 50 5150 -125 
Q 5150 -275 5037 -412 
Q 4925 -550 4875 -550 
Q 4825 -550 4750 -375 
Q 4650 -75 4575 100 
Q 2175 -75 1850 -150 
Q 1525 -225 1350 -350 
L 1075 175 
Q 1275 175 1575 500 
Q 1875 825 2387 1600 
Q 2900 2375 3075 2975 
L 3625 2550 
L 3350 2425 
Q 2425 1025 1575 175 
z
M 2375 5000 
L 2950 4625 
L 2675 4475 
Q 1850 2725 525 1850 
L 450 1925 
Q 1375 2800 1837 3637 
Q 2300 4475 2375 5000 
z
M 4050 5000 
L 3825 4850 
Q 4050 4075 4612 3337 
Q 5175 2600 6025 2325 
L 6025 2250 
Q 5625 2250 5450 1950 
Q 4750 2500 4237 3300 
Q 3725 4100 3550 5175 
L 4050 5000 
z
" transform="scale(0.015625)"/>
       <path id="SimSun-91cc" d="M 1700 4575 
L 1700 3525 
L 3000 3525 
L 3000 4575 
L 1700 4575 
z
M 3325 4575 
L 3325 3525 
L 4675 3525 
L 4675 4575 
L 3325 4575 
z
M 1700 3375 
L 1700 2300 
L 3000 2300 
L 3000 3375 
L 1700 3375 
z
M 3325 3375 
L 3325 2300 
L 4675 2300 
L 4675 3375 
L 3325 3375 
z
M 1350 1725 
Q 1375 2525 1375 3362 
Q 1375 4200 1350 4950 
L 1700 4725 
L 4625 4725 
L 4800 4975 
L 5225 4650 
L 5000 4475 
Q 5000 2650 5025 1975 
L 4675 1825 
L 4675 2150 
L 3325 2150 
L 3325 1100 
L 4675 1100 
L 5075 1475 
L 5550 950 
L 3325 950 
L 3325 -200 
L 5200 -200 
L 5600 200 
L 6100 -350 
L 1150 -350 
Q 825 -350 550 -425 
L 325 -200 
L 3000 -200 
L 3000 950 
L 1725 950 
Q 1400 950 1125 875 
L 900 1100 
L 3000 1100 
L 3000 2150 
L 1700 2150 
L 1700 1875 
L 1350 1725 
z
" transform="scale(0.015625)"/>
       <path id="SimSun-6545" d="M 3950 3475 
Q 4050 2100 4525 1125 
Q 4975 1975 5075 3475 
L 3950 3475 
z
M 4025 5200 
L 4625 4900 
L 4375 4750 
Q 4300 4475 3975 3625 
L 5375 3625 
L 5650 3900 
L 6075 3475 
L 5450 3475 
Q 5275 1725 4725 825 
Q 5375 25 6125 -100 
L 6125 -200 
Q 5725 -250 5650 -500 
Q 4975 -75 4525 575 
Q 3650 -200 2475 -575 
L 2425 -500 
Q 3575 0 4350 850 
Q 3925 1725 3825 3300 
Q 3575 2675 3175 2150 
L 3100 2200 
Q 3725 3450 4025 5200 
z
M 2850 1975 
Q 2850 600 2875 75 
L 2525 -75 
L 2525 300 
L 1225 300 
L 1225 -150 
L 875 -300 
Q 900 375 900 1050 
Q 900 1725 875 2400 
L 1250 2200 
L 1775 2200 
L 1775 3450 
L 775 3450 
L 550 3400 
L 350 3600 
L 1775 3600 
Q 1775 4375 1750 5125 
L 2300 4825 
L 2100 4675 
L 2100 3600 
L 2725 3600 
L 3000 3875 
L 3425 3450 
L 2100 3450 
L 2100 2200 
L 2500 2200 
L 2700 2425 
L 3050 2100 
L 2850 1975 
z
M 1225 2050 
L 1225 450 
L 2525 450 
L 2525 2050 
L 1225 2050 
z
" transform="scale(0.015625)"/>
       <path id="SimSun-969c" d="M 3025 2600 
L 3025 2050 
L 5100 2050 
L 5100 2600 
L 3025 2600 
z
M 3025 1900 
L 3025 1375 
L 5100 1375 
L 5100 1900 
L 3025 1900 
z
M 2675 2950 
L 3025 2750 
L 5075 2750 
L 5250 2975 
L 5625 2650 
L 5425 2500 
Q 5425 1525 5450 1100 
L 5100 975 
L 5100 1225 
L 4175 1225 
L 4175 650 
L 5375 650 
L 5700 975 
L 6125 500 
L 4175 500 
Q 4175 -225 4200 -500 
L 3825 -650 
Q 3850 -125 3850 500 
L 2800 500 
Q 2475 500 2200 425 
L 1975 650 
L 3850 650 
L 3850 1225 
L 3025 1225 
L 3025 1100 
L 2675 975 
Q 2700 1450 2700 2000 
Q 2700 2550 2675 2950 
z
M 2475 4425 
L 3875 4425 
Q 3850 4775 3550 5175 
L 3600 5225 
Q 4025 5025 4112 4900 
Q 4200 4775 4200 4700 
Q 4200 4550 4050 4425 
L 4950 4425 
L 5225 4700 
L 5650 4275 
L 3300 4275 
Q 2975 4275 2700 4200 
L 2475 4425 
z
M 3025 4175 
L 3075 4225 
Q 3425 4025 3550 3875 
Q 3675 3725 3675 3625 
Q 3675 3550 3575 3437 
Q 3475 3325 3425 3325 
Q 3350 3325 3325 3550 
Q 3250 3875 3025 4175 
z
M 4650 4300 
L 5075 4000 
Q 4875 3900 4712 3712 
Q 4550 3525 4375 3300 
L 5350 3300 
L 5675 3600 
L 6100 3150 
L 2850 3150 
Q 2525 3150 2250 3075 
L 2025 3300 
L 4250 3300 
Q 4575 4025 4650 4300 
z
M 1450 3075 
Q 1850 2700 2050 2312 
Q 2250 1925 2212 1600 
Q 2175 1275 2012 1075 
Q 1850 875 1475 800 
Q 1450 1100 1000 1250 
L 1000 1350 
Q 1375 1275 1587 1287 
Q 1800 1300 1850 1662 
Q 1900 2025 1750 2362 
Q 1600 2700 1325 3075 
L 1675 4550 
L 925 4550 
L 925 -450 
L 575 -600 
Q 600 550 600 2150 
Q 600 3750 575 4900 
L 925 4700 
L 1675 4700 
L 1875 4925 
L 2250 4575 
L 2025 4450 
L 1450 3075 
z
" transform="scale(0.015625)"/>
       <path id="SimSun-6982" d="M 2700 4500 
L 2700 3450 
L 3375 3450 
L 3375 4500 
L 2700 4500 
z
M 2700 3300 
L 2700 2300 
L 3375 2300 
L 3375 3300 
L 2700 3300 
z
M 2700 725 
L 3425 1200 
Q 3350 1375 3025 1775 
L 3050 1850 
Q 3550 1525 3712 1337 
Q 3875 1150 3875 1000 
Q 3875 875 3800 750 
Q 3725 625 3700 625 
Q 3650 625 3625 725 
Q 3550 900 3475 1100 
Q 2900 600 2575 150 
L 2325 475 
Q 2400 625 2400 950 
L 2400 3475 
Q 2400 3975 2375 4825 
L 2700 4650 
L 3350 4650 
L 3550 4850 
L 3875 4525 
L 3650 4400 
Q 3650 2825 3675 2150 
L 3375 1975 
L 3375 2150 
L 2700 2150 
L 2700 725 
z
M 5025 2400 
L 4950 2075 
L 5350 1850 
L 5175 1675 
L 5175 100 
Q 5175 -125 5350 -125 
L 5525 -125 
Q 5750 -125 5762 162 
Q 5775 450 5775 825 
L 5900 825 
Q 5900 450 5962 225 
Q 6025 0 6150 -75 
Q 6075 -250 5950 -325 
Q 5825 -400 5625 -400 
L 5225 -400 
Q 4875 -400 4875 0 
L 4875 1825 
Q 4350 75 2650 -650 
L 2625 -575 
Q 4275 350 4700 2400 
L 4225 2400 
L 4050 2250 
L 3775 2550 
Q 3925 2625 4012 2975 
Q 4100 3325 4225 4075 
L 4600 3850 
Q 4475 3800 4425 3575 
Q 4375 3325 4200 2550 
L 4725 2550 
Q 4800 3100 4850 4500 
L 4425 4500 
L 4200 4450 
L 4000 4650 
L 5400 4650 
L 5650 4900 
L 6050 4500 
L 5175 4500 
Q 5100 3100 5050 2550 
L 5400 2550 
L 5675 2825 
L 6100 2400 
L 5025 2400 
z
M 1550 775 
Q 1550 425 1575 -450 
L 1225 -625 
Q 1250 850 1250 2400 
Q 925 1525 300 750 
L 250 825 
Q 575 1400 825 2062 
Q 1075 2725 1225 3575 
L 775 3575 
L 550 3525 
L 350 3725 
L 1250 3725 
Q 1250 4400 1225 5275 
L 1750 5000 
L 1550 4850 
L 1550 3725 
L 1675 3725 
L 1925 3975 
L 2325 3575 
L 1550 3575 
L 1550 3000 
Q 2025 2800 2175 2650 
Q 2325 2500 2325 2350 
Q 2325 2250 2262 2100 
Q 2200 1950 2175 1950 
Q 2100 1950 2000 2200 
Q 1850 2550 1550 2850 
L 1550 775 
z
" transform="scale(0.015625)"/>
       <path id="SimSun-7387" d="M 875 3725 
L 925 3800 
Q 1375 3650 1550 3525 
Q 1725 3400 1725 3250 
Q 1725 3175 1662 3025 
Q 1600 2875 1550 2875 
Q 1500 2875 1425 3050 
Q 1275 3325 875 3725 
z
M 550 1850 
Q 875 1925 2000 2575 
L 2050 2500 
Q 1675 2225 1337 1937 
Q 1000 1650 875 1425 
L 550 1850 
z
M 5200 3450 
Q 4800 3150 4275 2800 
L 4225 2875 
Q 4775 3400 5050 3925 
L 5450 3525 
L 5200 3450 
z
M 4325 2500 
L 4350 2575 
Q 5225 2350 5375 2212 
Q 5525 2075 5525 1900 
Q 5525 1775 5487 1662 
Q 5450 1550 5400 1550 
Q 5325 1550 5200 1800 
Q 4975 2150 4325 2500 
z
M 3150 3900 
Q 2500 3300 2300 3150 
Q 2800 3150 3400 3175 
Q 3700 3500 3850 3825 
L 4250 3450 
Q 4050 3400 3450 2825 
Q 2850 2250 2475 1950 
Q 3150 1975 3850 2000 
Q 3750 2175 3550 2450 
L 3600 2500 
Q 4050 2250 4200 2100 
Q 4350 1950 4350 1850 
Q 4350 1775 4250 1625 
Q 4150 1475 4100 1475 
Q 4075 1475 4050 1550 
Q 4000 1700 3900 1900 
Q 3650 1875 3075 1800 
L 3500 1550 
L 3325 1425 
L 3325 975 
L 5325 975 
L 5650 1300 
L 6100 825 
L 3325 825 
Q 3325 -275 3350 -525 
L 2975 -650 
Q 3000 0 3000 825 
L 1125 825 
Q 800 825 525 750 
L 300 975 
L 3000 975 
L 3000 1775 
Q 2450 1700 2200 1525 
L 1950 1950 
Q 2275 1950 2675 2350 
Q 3075 2750 3325 3050 
Q 2400 2950 2150 2775 
L 1950 3175 
Q 2150 3150 2475 3575 
Q 2800 4000 2900 4225 
L 1450 4225 
Q 1125 4225 850 4150 
L 625 4375 
L 3100 4375 
Q 3050 4800 2675 5200 
L 2725 5250 
Q 3225 5050 3337 4912 
Q 3450 4775 3450 4700 
Q 3450 4550 3250 4375 
L 5025 4375 
L 5350 4675 
L 5775 4225 
L 3050 4225 
L 3375 3950 
L 3150 3900 
z
" transform="scale(0.015625)"/>
      </defs>
      <use xlink:href="#SimSun-5149"/>
      <use xlink:href="#SimSun-7ea4" x="100"/>
      <use xlink:href="#SimSun-767e" x="200"/>
      <use xlink:href="#SimSun-516c" x="300"/>
      <use xlink:href="#SimSun-91cc" x="400"/>
      <use xlink:href="#SimSun-6545" x="500"/>
      <use xlink:href="#SimSun-969c" x="600"/>
      <use xlink:href="#SimSun-6982" x="700"/>
      <use xlink:href="#SimSun-7387" x="800"/>
     </g>
    </g>
   </g>
   <g id="matplotlib.axis_2">
    <g id="ytick_1">
     <g id="line2d_7">
      <defs>
       <path id="ma6bd8abe21" d="M 0 0 
L 3.5 0 
" style="stroke: #000000; stroke-width: 0.8"/>
      </defs>
      <g>
       <use xlink:href="#ma6bd8abe21" x="22.92625" y="93.755905" style="stroke: #000000; stroke-width: 0.8"/>
      </g>
     </g>
     <g id="text_8">
      <!-- 0.0 -->
      <g transform="translate(10.480469 96.185124)scale(0.07 -0.07)">
       <use xlink:href="#Euclid-30"/>
       <use xlink:href="#Euclid-2e" x="49.999985"/>
       <use xlink:href="#Euclid-30" x="77.799973"/>
      </g>
     </g>
    </g>
    <g id="ytick_2">
     <g id="line2d_8">
      <g>
       <use xlink:href="#ma6bd8abe21" x="22.92625" y="51.093002" style="stroke: #000000; stroke-width: 0.8"/>
      </g>
     </g>
     <g id="text_9">
      <!-- 0.2 -->
      <g transform="translate(10.480469 53.522221)scale(0.07 -0.07)">
       <use xlink:href="#Euclid-30"/>
       <use xlink:href="#Euclid-2e" x="49.999985"/>
       <use xlink:href="#Euclid-32" x="77.799973"/>
      </g>
     </g>
    </g>
    <g id="ytick_3">
     <g id="line2d_9">
      <g>
       <use xlink:href="#ma6bd8abe21" x="22.92625" y="8.430099" style="stroke: #000000; stroke-width: 0.8"/>
      </g>
     </g>
     <g id="text_10">
      <!-- 0.4 -->
      <g transform="translate(10.480469 10.859318)scale(0.07 -0.07)">
       <use xlink:href="#Euclid-30"/>
       <use xlink:href="#Euclid-2e" x="49.999985"/>
       <use xlink:href="#Euclid-34" x="77.799973"/>
      </g>
     </g>
    </g>
    <g id="text_11">
     <!-- 故障出现概率 -->
     <g transform="translate(5.578125 70.110236)rotate(-90)scale(0.07 -0.07)">
      <defs>
       <path id="SimSun-51fa" d="M 5175 3975 
L 5175 3000 
Q 5175 2750 5225 2300 
L 4825 2150 
L 4825 2450 
L 3350 2450 
L 3350 25 
L 5075 25 
L 5075 1125 
Q 5075 1475 5050 1900 
L 5625 1575 
L 5425 1425 
L 5425 500 
Q 5425 50 5450 -400 
L 5075 -525 
L 5075 -125 
L 1325 -125 
L 1150 -300 
L 800 -25 
L 975 150 
L 975 1125 
Q 975 1500 950 1950 
L 1525 1650 
L 1325 1475 
L 1325 25 
L 3000 25 
L 3000 2450 
L 1550 2450 
L 1350 2275 
L 1000 2550 
L 1175 2700 
L 1175 3725 
Q 1175 4025 1150 4375 
L 1750 4075 
L 1525 3925 
L 1525 2600 
L 3000 2600 
L 3000 4250 
Q 3000 4700 2975 5125 
L 3550 4850 
L 3350 4625 
L 3350 2600 
L 4825 2600 
L 4825 3725 
Q 4825 4025 4800 4425 
L 5375 4150 
L 5175 3975 
z
" transform="scale(0.015625)"/>
       <path id="SimSun-73b0" d="M 2800 1275 
Q 2825 1725 2825 3112 
Q 2825 4500 2800 4975 
L 3150 4750 
L 5000 4750 
L 5175 5000 
L 5550 4700 
L 5375 4550 
Q 5375 2075 5400 1675 
L 5050 1500 
L 5050 4600 
L 3150 4600 
L 3150 1425 
L 2800 1275 
z
M 3850 3925 
L 4450 3675 
L 4225 3475 
Q 4200 1500 3675 725 
Q 3150 -50 1700 -625 
L 1650 -550 
Q 3000 175 3437 987 
Q 3875 1800 3850 3925 
z
M 4275 2050 
L 4775 1800 
L 4600 1625 
L 4600 175 
Q 4600 -150 4875 -125 
L 5450 -125 
Q 5600 -125 5650 212 
Q 5700 550 5750 1125 
L 5850 1125 
Q 5850 800 5875 375 
Q 5900 -50 6150 -100 
Q 5950 -450 5625 -425 
L 4700 -425 
Q 4300 -425 4275 50 
L 4275 2050 
z
M 300 4550 
L 1850 4550 
L 2175 4850 
L 2575 4400 
L 1550 4400 
L 1550 2825 
L 1850 2825 
L 2125 3100 
L 2525 2675 
L 1550 2675 
L 1550 1000 
L 2500 1350 
L 2525 1250 
Q 875 475 600 125 
L 300 600 
Q 850 750 1225 900 
L 1225 2675 
Q 900 2675 625 2600 
L 400 2825 
L 1225 2825 
L 1225 4400 
L 1125 4400 
Q 800 4400 525 4325 
L 300 4550 
z
" transform="scale(0.015625)"/>
      </defs>
      <use xlink:href="#SimSun-6545"/>
      <use xlink:href="#SimSun-969c" x="100"/>
      <use xlink:href="#SimSun-51fa" x="200"/>
      <use xlink:href="#SimSun-73b0" x="300"/>
      <use xlink:href="#SimSun-6982" x="400"/>
      <use xlink:href="#SimSun-7387" x="500"/>
     </g>
    </g>
   </g>
   <g id="line2d_10">
    <path d="M 28.812727 93.755905 
L 40.585682 82.68891 
L 52.358636 72.154581 
L 64.131591 62.129888 
L 75.904545 52.59265 
L 87.6775 43.521512 
L 99.450455 34.895919 
L 111.223409 26.696091 
L 122.996364 18.903003 
L 134.769318 11.498358 
L 146.542273 4.464567 
" clip-path="url(#p8647acda55)" style="fill: none; stroke: #000000; stroke-width: 0.5; stroke-linecap: square"/>
    <defs>
     <path id="m9cd04de905" d="M -2 0 
L 2 0 
M 0 2 
L 0 -2 
" style="stroke: #000000"/>
    </defs>
    <g clip-path="url(#p8647acda55)">
     <use xlink:href="#m9cd04de905" x="28.812727" y="93.755905" style="stroke: #000000"/>
     <use xlink:href="#m9cd04de905" x="40.585682" y="82.68891" style="stroke: #000000"/>
     <use xlink:href="#m9cd04de905" x="52.358636" y="72.154581" style="stroke: #000000"/>
     <use xlink:href="#m9cd04de905" x="64.131591" y="62.129888" style="stroke: #000000"/>
     <use xlink:href="#m9cd04de905" x="75.904545" y="52.59265" style="stroke: #000000"/>
     <use xlink:href="#m9cd04de905" x="87.6775" y="43.521512" style="stroke: #000000"/>
     <use xlink:href="#m9cd04de905" x="99.450455" y="34.895919" style="stroke: #000000"/>
     <use xlink:href="#m9cd04de905" x="111.223409" y="26.696091" style="stroke: #000000"/>
     <use xlink:href="#m9cd04de905" x="122.996364" y="18.903003" style="stroke: #000000"/>
     <use xlink:href="#m9cd04de905" x="134.769318" y="11.498358" style="stroke: #000000"/>
     <use xlink:href="#m9cd04de905" x="146.542273" y="4.464567" style="stroke: #000000"/>
    </g>
   </g>
   <g id="line2d_11">
    <path d="M 28.812727 93.755905 
L 40.585682 84.811535 
L 52.358636 76.208782 
L 64.131591 67.935861 
L 75.904545 59.981342 
L 87.6775 52.334134 
L 99.450455 44.983483 
L 111.223409 37.91896 
L 122.996364 31.130457 
L 134.769318 24.608174 
L 146.542273 18.342616 
" clip-path="url(#p8647acda55)" style="fill: none; stroke: #000000; stroke-width: 0.5; stroke-linecap: square"/>
    <defs>
     <path id="me3a68d42cc" d="M -1 1 
L 1 1 
L 1 -1 
L -1 -1 
z
" style="stroke: #000000; stroke-linejoin: miter"/>
    </defs>
    <g clip-path="url(#p8647acda55)">
     <use xlink:href="#me3a68d42cc" x="28.812727" y="93.755905" style="stroke: #000000; stroke-linejoin: miter"/>
     <use xlink:href="#me3a68d42cc" x="40.585682" y="84.811535" style="stroke: #000000; stroke-linejoin: miter"/>
     <use xlink:href="#me3a68d42cc" x="52.358636" y="76.208782" style="stroke: #000000; stroke-linejoin: miter"/>
     <use xlink:href="#me3a68d42cc" x="64.131591" y="67.935861" style="stroke: #000000; stroke-linejoin: miter"/>
     <use xlink:href="#me3a68d42cc" x="75.904545" y="59.981342" style="stroke: #000000; stroke-linejoin: miter"/>
     <use xlink:href="#me3a68d42cc" x="87.6775" y="52.334134" style="stroke: #000000; stroke-linejoin: miter"/>
     <use xlink:href="#me3a68d42cc" x="99.450455" y="44.983483" style="stroke: #000000; stroke-linejoin: miter"/>
     <use xlink:href="#me3a68d42cc" x="111.223409" y="37.91896" style="stroke: #000000; stroke-linejoin: miter"/>
     <use xlink:href="#me3a68d42cc" x="122.996364" y="31.130457" style="stroke: #000000; stroke-linejoin: miter"/>
     <use xlink:href="#me3a68d42cc" x="134.769318" y="24.608174" style="stroke: #000000; stroke-linejoin: miter"/>
     <use xlink:href="#me3a68d42cc" x="146.542273" y="18.342616" style="stroke: #000000; stroke-linejoin: miter"/>
    </g>
   </g>
   <g id="line2d_12">
    <path d="M 28.812727 93.755905 
L 40.585682 84.397452 
L 52.358636 75.415894 
L 64.131591 66.797055 
L 75.904545 58.527243 
L 87.6775 50.593239 
L 99.450455 42.982278 
L 111.223409 35.682043 
L 122.996364 28.680645 
L 134.769318 21.966615 
L 146.542273 15.528893 
" clip-path="url(#p8647acda55)" style="fill: none; stroke: #000000; stroke-width: 0.5; stroke-linecap: square"/>
    <defs>
     <path id="m36108d287e" d="M 0 1 
C 0.265203 1 0.51958 0.894634 0.707107 0.707107 
C 0.894634 0.51958 1 0.265203 1 0 
C 1 -0.265203 0.894634 -0.51958 0.707107 -0.707107 
C 0.51958 -0.894634 0.265203 -1 0 -1 
C -0.265203 -1 -0.51958 -0.894634 -0.707107 -0.707107 
C -0.894634 -0.51958 -1 -0.265203 -1 0 
C -1 0.265203 -0.894634 0.51958 -0.707107 0.707107 
C -0.51958 0.894634 -0.265203 1 0 1 
z
" style="stroke: #000000"/>
    </defs>
    <g clip-path="url(#p8647acda55)">
     <use xlink:href="#m36108d287e" x="28.812727" y="93.755905" style="stroke: #000000"/>
     <use xlink:href="#m36108d287e" x="40.585682" y="84.397452" style="stroke: #000000"/>
     <use xlink:href="#m36108d287e" x="52.358636" y="75.415894" style="stroke: #000000"/>
     <use xlink:href="#m36108d287e" x="64.131591" y="66.797055" style="stroke: #000000"/>
     <use xlink:href="#m36108d287e" x="75.904545" y="58.527243" style="stroke: #000000"/>
     <use xlink:href="#m36108d287e" x="87.6775" y="50.593239" style="stroke: #000000"/>
     <use xlink:href="#m36108d287e" x="99.450455" y="42.982278" style="stroke: #000000"/>
     <use xlink:href="#m36108d287e" x="111.223409" y="35.682043" style="stroke: #000000"/>
     <use xlink:href="#m36108d287e" x="122.996364" y="28.680645" style="stroke: #000000"/>
     <use xlink:href="#m36108d287e" x="134.769318" y="21.966615" style="stroke: #000000"/>
     <use xlink:href="#m36108d287e" x="146.542273" y="15.528893" style="stroke: #000000"/>
    </g>
   </g>
   <g id="patch_3">
    <path d="M 22.92625 98.220472 
L 22.92625 -0 
" style="fill: none; stroke: #000000; stroke-width: 0.5; stroke-linejoin: miter; stroke-linecap: square"/>
   </g>
   <g id="patch_4">
    <path d="M 152.42875 98.220472 
L 152.42875 -0 
" style="fill: none; stroke: #000000; stroke-width: 0.5; stroke-linejoin: miter; stroke-linecap: square"/>
   </g>
   <g id="patch_5">
    <path d="M 22.92625 98.220472 
L 152.42875 98.220472 
" style="fill: none; stroke: #000000; stroke-width: 0.5; stroke-linejoin: miter; stroke-linecap: square"/>
   </g>
   <g id="patch_6">
    <path d="M 22.92625 -0 
L 152.42875 -0 
" style="fill: none; stroke: #000000; stroke-width: 0.5; stroke-linejoin: miter; stroke-linecap: square"/>
   </g>
   <g id="legend_1">
    <g id="line2d_13">
     <path d="M 29.22625 8.75 
L 36.22625 8.75 
L 43.22625 8.75 
" style="fill: none; stroke: #000000; stroke-width: 0.5; stroke-linecap: square"/>
     <g>
      <use xlink:href="#m9cd04de905" x="36.22625" y="8.75" style="stroke: #000000"/>
     </g>
    </g>
    <g id="text_12">
     <!-- C-MPC -->
     <g transform="translate(48.82625 11.2)scale(0.07 -0.07)">
      <defs>
       <path id="Euclid-43" d="M 4256 1542 
Q 4256 1606 4192 1606 
L 4154 1606 
Q 4096 1606 4096 1542 
Q 4096 1235 3984 966 
Q 3872 698 3680 493 
Q 3488 288 3225 169 
Q 2963 51 2662 51 
Q 2298 51 1978 214 
Q 1658 378 1434 666 
Q 1190 986 1100 1379 
Q 1011 1773 1011 2189 
Q 1011 2605 1100 2998 
Q 1190 3392 1434 3712 
Q 1658 4000 1974 4160 
Q 2291 4320 2656 4320 
Q 2944 4320 3193 4192 
Q 3443 4064 3632 3849 
Q 3821 3635 3933 3347 
Q 4045 3059 4058 2739 
Q 4070 2682 4122 2682 
L 4192 2682 
Q 4256 2682 4256 2746 
L 4256 4454 
Q 4256 4518 4192 4518 
L 4173 4518 
Q 4134 4518 4122 4486 
L 3757 3962 
Q 3539 4218 3244 4368 
Q 2950 4518 2592 4518 
Q 2144 4518 1734 4339 
Q 1325 4160 1011 3834 
Q 691 3501 524 3075 
Q 358 2650 358 2189 
Q 358 1728 524 1302 
Q 691 877 1011 538 
Q 1325 211 1734 35 
Q 2144 -141 2592 -141 
Q 2938 -141 3242 -6 
Q 3546 128 3770 355 
Q 3994 582 4125 889 
Q 4256 1197 4256 1542 
z
" transform="scale(0.015625)"/>
       <path id="Euclid-2d" d="M 1766 1190 
L 1766 1562 
L 70 1562 
L 70 1190 
L 1766 1190 
z
" transform="scale(0.015625)"/>
       <path id="Euclid-4d" d="M 5613 0 
L 5613 198 
Q 5472 198 5312 201 
Q 5152 205 5069 237 
Q 5011 256 4982 310 
Q 4954 365 4954 429 
L 4954 3949 
Q 4954 4013 4982 4067 
Q 5011 4122 5069 4141 
Q 5152 4173 5312 4176 
Q 5472 4179 5613 4179 
L 5613 4371 
L 4698 4371 
L 4448 4371 
Q 4371 4371 4339 4301 
L 2925 646 
L 1510 4301 
Q 1491 4371 1408 4371 
L 986 4371 
L 243 4371 
L 243 4179 
Q 378 4179 541 4176 
Q 704 4173 787 4141 
Q 845 4122 870 4067 
Q 896 4013 896 3949 
L 896 602 
Q 896 403 736 301 
Q 627 230 499 214 
Q 371 198 243 198 
L 243 0 
Q 608 19 986 19 
Q 1357 19 1734 0 
L 1734 198 
Q 1606 198 1478 214 
Q 1350 230 1242 301 
Q 1158 352 1116 432 
Q 1075 512 1075 602 
L 1075 4141 
L 2650 70 
Q 2682 0 2752 0 
Q 2810 0 2848 70 
L 4442 4192 
L 4442 429 
Q 4442 365 4416 310 
Q 4390 256 4333 237 
Q 4250 205 4086 201 
Q 3923 198 3782 198 
L 3782 0 
Q 4243 19 4698 19 
Q 5152 19 5613 0 
z
" transform="scale(0.015625)"/>
       <path id="Euclid-50" d="M 3987 3181 
Q 3987 3430 3865 3648 
Q 3744 3866 3546 4026 
Q 3322 4205 3046 4288 
Q 2771 4371 2483 4371 
L 224 4371 
L 224 4179 
Q 365 4179 525 4176 
Q 685 4173 768 4141 
Q 826 4122 854 4067 
Q 883 4013 883 3949 
L 883 429 
Q 883 365 854 310 
Q 826 256 768 237 
Q 685 205 525 201 
Q 365 198 224 198 
L 224 0 
Q 1165 38 2106 0 
L 2106 198 
Q 1965 198 1805 201 
Q 1645 205 1562 237 
Q 1504 256 1475 310 
Q 1446 365 1446 429 
L 1446 2016 
L 2483 2016 
Q 2771 2016 3046 2099 
Q 3322 2182 3546 2362 
Q 3744 2509 3865 2723 
Q 3987 2938 3987 3181 
z
M 3328 3181 
Q 3328 2982 3293 2790 
Q 3258 2598 3117 2458 
Q 2963 2304 2752 2246 
Q 2541 2189 2317 2189 
L 1434 2189 
L 1434 3949 
Q 1434 4000 1440 4054 
Q 1446 4109 1485 4141 
Q 1530 4173 1610 4176 
Q 1690 4179 1760 4179 
L 2317 4179 
Q 2541 4179 2752 4121 
Q 2963 4064 3117 3910 
Q 3264 3770 3296 3574 
Q 3328 3379 3328 3181 
z
" transform="scale(0.015625)"/>
      </defs>
      <use xlink:href="#Euclid-43"/>
      <use xlink:href="#Euclid-2d" x="72.199982"/>
      <use xlink:href="#Euclid-4d" x="105.499969"/>
      <use xlink:href="#Euclid-50" x="197.09996"/>
      <use xlink:href="#Euclid-43" x="265.099945"/>
     </g>
    </g>
    <g id="line2d_14">
     <path d="M 29.22625 18.508437 
L 36.22625 18.508437 
L 43.22625 18.508437 
" style="fill: none; stroke: #000000; stroke-width: 0.5; stroke-linecap: square"/>
     <g>
      <use xlink:href="#me3a68d42cc" x="36.22625" y="18.508437" style="stroke: #000000; stroke-linejoin: miter"/>
     </g>
    </g>
    <g id="text_13">
     <!-- DCD -->
     <g transform="translate(48.82625 20.958437)scale(0.07 -0.07)">
      <defs>
       <path id="Euclid-44" d="M 4518 2144 
Q 4518 2579 4377 2985 
Q 4237 3392 3949 3718 
Q 3680 4026 3328 4198 
Q 2976 4371 2573 4371 
L 224 4371 
L 224 4179 
Q 365 4179 525 4176 
Q 685 4173 768 4141 
Q 826 4122 854 4067 
Q 883 4013 883 3949 
L 883 429 
Q 883 365 854 310 
Q 826 256 768 237 
Q 685 205 525 201 
Q 365 198 224 198 
L 224 0 
L 2573 0 
Q 2970 0 3325 166 
Q 3680 333 3949 627 
Q 4237 941 4377 1331 
Q 4518 1722 4518 2144 
z
M 3878 2144 
Q 3878 1773 3817 1408 
Q 3757 1043 3533 742 
Q 3328 474 3033 336 
Q 2739 198 2406 198 
L 1760 198 
Q 1690 198 1610 201 
Q 1530 205 1485 237 
Q 1446 269 1440 320 
Q 1434 371 1434 429 
L 1434 3949 
Q 1434 4000 1440 4054 
Q 1446 4109 1485 4141 
Q 1530 4173 1610 4176 
Q 1690 4179 1760 4179 
L 2406 4179 
Q 2746 4179 3040 4028 
Q 3334 3878 3533 3603 
Q 3757 3290 3817 2909 
Q 3878 2528 3878 2144 
z
" transform="scale(0.015625)"/>
      </defs>
      <use xlink:href="#Euclid-44"/>
      <use xlink:href="#Euclid-43" x="76.399994"/>
      <use xlink:href="#Euclid-44" x="148.599976"/>
     </g>
    </g>
    <g id="line2d_15">
     <path d="M 29.22625 28.266875 
L 36.22625 28.266875 
L 43.22625 28.266875 
" style="fill: none; stroke: #000000; stroke-width: 0.5; stroke-linecap: square"/>
     <g>
      <use xlink:href="#m36108d287e" x="36.22625" y="28.266875" style="stroke: #000000"/>
     </g>
    </g>
    <g id="text_14">
     <!-- SCD -->
     <g transform="translate(48.82625 30.716875)scale(0.07 -0.07)">
      <defs>
       <path id="Euclid-53" d="M 3187 1184 
Q 3187 1414 3120 1625 
Q 3053 1837 2928 2009 
Q 2803 2182 2624 2307 
Q 2445 2432 2227 2483 
L 1395 2688 
Q 1254 2720 1139 2797 
Q 1024 2874 941 2982 
Q 858 3091 810 3222 
Q 762 3354 762 3501 
Q 762 3667 826 3820 
Q 890 3974 1005 4090 
Q 1254 4339 1594 4339 
Q 1882 4339 2106 4243 
Q 2330 4147 2490 3968 
Q 2650 3789 2742 3539 
Q 2835 3290 2848 2982 
Q 2861 2931 2912 2931 
L 2944 2931 
Q 3008 2931 3008 2989 
L 3008 4454 
Q 3008 4518 2944 4518 
L 2925 4518 
Q 2893 4518 2874 4486 
L 2611 4070 
Q 2438 4282 2185 4400 
Q 1933 4518 1594 4518 
Q 1350 4518 1120 4422 
Q 890 4326 717 4154 
Q 544 3974 451 3747 
Q 358 3520 358 3277 
Q 358 3066 425 2867 
Q 493 2669 617 2509 
Q 742 2349 915 2233 
Q 1088 2118 1299 2067 
L 2131 1869 
Q 2278 1830 2396 1744 
Q 2515 1658 2601 1539 
Q 2688 1421 2733 1273 
Q 2778 1126 2778 973 
Q 2778 595 2534 320 
Q 2419 192 2268 121 
Q 2118 51 1952 51 
Q 1626 51 1360 140 
Q 1094 230 908 403 
Q 723 576 620 822 
Q 518 1069 518 1382 
Q 518 1446 454 1446 
L 416 1446 
Q 358 1446 358 1382 
L 358 -83 
Q 358 -141 416 -141 
L 442 -141 
Q 467 -141 493 -115 
L 749 307 
Q 960 90 1264 -25 
Q 1568 -141 1952 -141 
Q 2202 -141 2429 -38 
Q 2656 64 2829 250 
Q 3008 442 3097 682 
Q 3187 922 3187 1184 
z
" transform="scale(0.015625)"/>
      </defs>
      <use xlink:href="#Euclid-53"/>
      <use xlink:href="#Euclid-43" x="55.499985"/>
      <use xlink:href="#Euclid-44" x="127.699966"/>
     </g>
    </g>
   </g>
  </g>
  <g id="axes_2">
   <g id="patch_7">
    <path d="M 204.22975 98.220472 
L 333.73225 98.220472 
L 333.73225 -0 
L 204.22975 -0 
z
" style="fill: #ffffff"/>
   </g>
   <g id="matplotlib.axis_3">
    <g id="xtick_7">
     <g id="line2d_16">
      <g>
       <use xlink:href="#m5792f9543d" x="210.116227" y="98.220472" style="stroke: #000000; stroke-width: 0.8"/>
      </g>
     </g>
     <g id="text_15">
      <!-- 0.00 -->
      <g transform="translate(203.893337 106.578909)scale(0.07 -0.07)">
       <use xlink:href="#Euclid-30"/>
       <use xlink:href="#Euclid-2e" x="49.999985"/>
       <use xlink:href="#Euclid-30" x="77.799973"/>
       <use xlink:href="#Euclid-30" x="127.799957"/>
      </g>
     </g>
    </g>
    <g id="xtick_8">
     <g id="line2d_17">
      <g>
       <use xlink:href="#m5792f9543d" x="233.662136" y="98.220472" style="stroke: #000000; stroke-width: 0.8"/>
      </g>
     </g>
     <g id="text_16">
      <!-- 0.02 -->
      <g transform="translate(227.439246 106.578909)scale(0.07 -0.07)">
       <use xlink:href="#Euclid-30"/>
       <use xlink:href="#Euclid-2e" x="49.999985"/>
       <use xlink:href="#Euclid-30" x="77.799973"/>
       <use xlink:href="#Euclid-32" x="127.799957"/>
      </g>
     </g>
    </g>
    <g id="xtick_9">
     <g id="line2d_18">
      <g>
       <use xlink:href="#m5792f9543d" x="257.208045" y="98.220472" style="stroke: #000000; stroke-width: 0.8"/>
      </g>
     </g>
     <g id="text_17">
      <!-- 0.04 -->
      <g transform="translate(250.985155 106.578909)scale(0.07 -0.07)">
       <use xlink:href="#Euclid-30"/>
       <use xlink:href="#Euclid-2e" x="49.999985"/>
       <use xlink:href="#Euclid-30" x="77.799973"/>
       <use xlink:href="#Euclid-34" x="127.799957"/>
      </g>
     </g>
    </g>
    <g id="xtick_10">
     <g id="line2d_19">
      <g>
       <use xlink:href="#m5792f9543d" x="280.753955" y="98.220472" style="stroke: #000000; stroke-width: 0.8"/>
      </g>
     </g>
     <g id="text_18">
      <!-- 0.06 -->
      <g transform="translate(274.531064 106.578909)scale(0.07 -0.07)">
       <use xlink:href="#Euclid-30"/>
       <use xlink:href="#Euclid-2e" x="49.999985"/>
       <use xlink:href="#Euclid-30" x="77.799973"/>
       <use xlink:href="#Euclid-36" x="127.799957"/>
      </g>
     </g>
    </g>
    <g id="xtick_11">
     <g id="line2d_20">
      <g>
       <use xlink:href="#m5792f9543d" x="304.299864" y="98.220472" style="stroke: #000000; stroke-width: 0.8"/>
      </g>
     </g>
     <g id="text_19">
      <!-- 0.08 -->
      <g transform="translate(298.076973 106.578909)scale(0.07 -0.07)">
       <use xlink:href="#Euclid-30"/>
       <use xlink:href="#Euclid-2e" x="49.999985"/>
       <use xlink:href="#Euclid-30" x="77.799973"/>
       <use xlink:href="#Euclid-38" x="127.799957"/>
      </g>
     </g>
    </g>
    <g id="xtick_12">
     <g id="line2d_21">
      <g>
       <use xlink:href="#m5792f9543d" x="327.845773" y="98.220472" style="stroke: #000000; stroke-width: 0.8"/>
      </g>
     </g>
     <g id="text_20">
      <!-- 0.10 -->
      <g transform="translate(321.622882 106.578909)scale(0.07 -0.07)">
       <use xlink:href="#Euclid-30"/>
       <use xlink:href="#Euclid-2e" x="49.999985"/>
       <use xlink:href="#Euclid-31" x="77.799973"/>
       <use xlink:href="#Euclid-30" x="127.799957"/>
      </g>
     </g>
    </g>
    <g id="text_21">
     <!-- 光纤百公里故障概率 -->
     <g transform="translate(237.481 117.515472)scale(0.07 -0.07)">
      <use xlink:href="#SimSun-5149"/>
      <use xlink:href="#SimSun-7ea4" x="100"/>
      <use xlink:href="#SimSun-767e" x="200"/>
      <use xlink:href="#SimSun-516c" x="300"/>
      <use xlink:href="#SimSun-91cc" x="400"/>
      <use xlink:href="#SimSun-6545" x="500"/>
      <use xlink:href="#SimSun-969c" x="600"/>
      <use xlink:href="#SimSun-6982" x="700"/>
      <use xlink:href="#SimSun-7387" x="800"/>
     </g>
    </g>
   </g>
   <g id="matplotlib.axis_4">
    <g id="ytick_4">
     <g id="line2d_22">
      <g>
       <use xlink:href="#ma6bd8abe21" x="204.22975" y="93.755905" style="stroke: #000000; stroke-width: 0.8"/>
      </g>
     </g>
     <g id="text_22">
      <!-- 0.0 -->
      <g transform="translate(191.783969 96.185124)scale(0.07 -0.07)">
       <use xlink:href="#Euclid-30"/>
       <use xlink:href="#Euclid-2e" x="49.999985"/>
       <use xlink:href="#Euclid-30" x="77.799973"/>
      </g>
     </g>
    </g>
    <g id="ytick_5">
     <g id="line2d_23">
      <g>
       <use xlink:href="#ma6bd8abe21" x="204.22975" y="65.277112" style="stroke: #000000; stroke-width: 0.8"/>
      </g>
     </g>
     <g id="text_23">
      <!-- 0.2 -->
      <g transform="translate(191.783969 67.706331)scale(0.07 -0.07)">
       <use xlink:href="#Euclid-30"/>
       <use xlink:href="#Euclid-2e" x="49.999985"/>
       <use xlink:href="#Euclid-32" x="77.799973"/>
      </g>
     </g>
    </g>
    <g id="ytick_6">
     <g id="line2d_24">
      <g>
       <use xlink:href="#ma6bd8abe21" x="204.22975" y="36.79832" style="stroke: #000000; stroke-width: 0.8"/>
      </g>
     </g>
     <g id="text_24">
      <!-- 0.4 -->
      <g transform="translate(191.783969 39.227538)scale(0.07 -0.07)">
       <use xlink:href="#Euclid-30"/>
       <use xlink:href="#Euclid-2e" x="49.999985"/>
       <use xlink:href="#Euclid-34" x="77.799973"/>
      </g>
     </g>
    </g>
    <g id="ytick_7">
     <g id="line2d_25">
      <g>
       <use xlink:href="#ma6bd8abe21" x="204.22975" y="8.319527" style="stroke: #000000; stroke-width: 0.8"/>
      </g>
     </g>
     <g id="text_25">
      <!-- 0.6 -->
      <g transform="translate(191.783969 10.748746)scale(0.07 -0.07)">
       <use xlink:href="#Euclid-30"/>
       <use xlink:href="#Euclid-2e" x="49.999985"/>
       <use xlink:href="#Euclid-36" x="77.799973"/>
      </g>
     </g>
    </g>
    <g id="text_26">
     <!-- 故障出现概率 -->
     <g transform="translate(186.881625 70.110236)rotate(-90)scale(0.07 -0.07)">
      <use xlink:href="#SimSun-6545"/>
      <use xlink:href="#SimSun-969c" x="100"/>
      <use xlink:href="#SimSun-51fa" x="200"/>
      <use xlink:href="#SimSun-73b0" x="300"/>
      <use xlink:href="#SimSun-6982" x="400"/>
      <use xlink:href="#SimSun-7387" x="500"/>
     </g>
    </g>
   </g>
   <g id="line2d_26">
    <path d="M 210.116227 93.755905 
L 221.889182 80.234895 
L 233.662136 68.046386 
L 245.435091 57.047995 
L 257.208045 47.114127 
L 268.981 38.133839 
L 280.753955 30.008989 
L 292.526909 22.65262 
L 304.299864 15.987568 
L 316.072818 9.945242 
L 327.845773 4.464567 
" clip-path="url(#pfa2f42e9e3)" style="fill: none; stroke: #000000; stroke-width: 0.5; stroke-linecap: square"/>
    <g clip-path="url(#pfa2f42e9e3)">
     <use xlink:href="#m9cd04de905" x="210.116227" y="93.755905" style="stroke: #000000"/>
     <use xlink:href="#m9cd04de905" x="221.889182" y="80.234895" style="stroke: #000000"/>
     <use xlink:href="#m9cd04de905" x="233.662136" y="68.046386" style="stroke: #000000"/>
     <use xlink:href="#m9cd04de905" x="245.435091" y="57.047995" style="stroke: #000000"/>
     <use xlink:href="#m9cd04de905" x="257.208045" y="47.114127" style="stroke: #000000"/>
     <use xlink:href="#m9cd04de905" x="268.981" y="38.133839" style="stroke: #000000"/>
     <use xlink:href="#m9cd04de905" x="280.753955" y="30.008989" style="stroke: #000000"/>
     <use xlink:href="#m9cd04de905" x="292.526909" y="22.65262" style="stroke: #000000"/>
     <use xlink:href="#m9cd04de905" x="304.299864" y="15.987568" style="stroke: #000000"/>
     <use xlink:href="#m9cd04de905" x="316.072818" y="9.945242" style="stroke: #000000"/>
     <use xlink:href="#m9cd04de905" x="327.845773" y="4.464567" style="stroke: #000000"/>
    </g>
   </g>
   <g id="line2d_27">
    <path d="M 210.116227 93.755905 
L 221.889182 93.755905 
L 233.662136 93.755905 
L 245.435091 93.755905 
L 257.208045 93.755905 
L 268.981 93.755905 
L 280.753955 93.755905 
L 292.526909 93.755905 
L 304.299864 93.755905 
L 316.072818 93.755905 
L 327.845773 93.755905 
" clip-path="url(#pfa2f42e9e3)" style="fill: none; stroke: #000000; stroke-width: 0.5; stroke-linecap: square"/>
    <g clip-path="url(#pfa2f42e9e3)">
     <use xlink:href="#me3a68d42cc" x="210.116227" y="93.755905" style="stroke: #000000; stroke-linejoin: miter"/>
     <use xlink:href="#me3a68d42cc" x="221.889182" y="93.755905" style="stroke: #000000; stroke-linejoin: miter"/>
     <use xlink:href="#me3a68d42cc" x="233.662136" y="93.755905" style="stroke: #000000; stroke-linejoin: miter"/>
     <use xlink:href="#me3a68d42cc" x="245.435091" y="93.755905" style="stroke: #000000; stroke-linejoin: miter"/>
     <use xlink:href="#me3a68d42cc" x="257.208045" y="93.755905" style="stroke: #000000; stroke-linejoin: miter"/>
     <use xlink:href="#me3a68d42cc" x="268.981" y="93.755905" style="stroke: #000000; stroke-linejoin: miter"/>
     <use xlink:href="#me3a68d42cc" x="280.753955" y="93.755905" style="stroke: #000000; stroke-linejoin: miter"/>
     <use xlink:href="#me3a68d42cc" x="292.526909" y="93.755905" style="stroke: #000000; stroke-linejoin: miter"/>
     <use xlink:href="#me3a68d42cc" x="304.299864" y="93.755905" style="stroke: #000000; stroke-linejoin: miter"/>
     <use xlink:href="#me3a68d42cc" x="316.072818" y="93.755905" style="stroke: #000000; stroke-linejoin: miter"/>
     <use xlink:href="#me3a68d42cc" x="327.845773" y="93.755905" style="stroke: #000000; stroke-linejoin: miter"/>
    </g>
   </g>
   <g id="line2d_28">
    <path d="M 210.116227 93.755905 
L 221.889182 86.109227 
L 233.662136 78.822705 
L 245.435091 71.881959 
L 257.208045 65.273067 
L 268.981 58.982561 
L 280.753955 52.997412 
L 292.526909 47.305019 
L 304.299864 41.893202 
L 316.072818 36.750189 
L 327.845773 31.864604 
" clip-path="url(#pfa2f42e9e3)" style="fill: none; stroke: #000000; stroke-width: 0.5; stroke-linecap: square"/>
    <g clip-path="url(#pfa2f42e9e3)">
     <use xlink:href="#m36108d287e" x="210.116227" y="93.755905" style="stroke: #000000"/>
     <use xlink:href="#m36108d287e" x="221.889182" y="86.109227" style="stroke: #000000"/>
     <use xlink:href="#m36108d287e" x="233.662136" y="78.822705" style="stroke: #000000"/>
     <use xlink:href="#m36108d287e" x="245.435091" y="71.881959" style="stroke: #000000"/>
     <use xlink:href="#m36108d287e" x="257.208045" y="65.273067" style="stroke: #000000"/>
     <use xlink:href="#m36108d287e" x="268.981" y="58.982561" style="stroke: #000000"/>
     <use xlink:href="#m36108d287e" x="280.753955" y="52.997412" style="stroke: #000000"/>
     <use xlink:href="#m36108d287e" x="292.526909" y="47.305019" style="stroke: #000000"/>
     <use xlink:href="#m36108d287e" x="304.299864" y="41.893202" style="stroke: #000000"/>
     <use xlink:href="#m36108d287e" x="316.072818" y="36.750189" style="stroke: #000000"/>
     <use xlink:href="#m36108d287e" x="327.845773" y="31.864604" style="stroke: #000000"/>
    </g>
   </g>
   <g id="patch_8">
    <path d="M 204.22975 98.220472 
L 204.22975 -0 
" style="fill: none; stroke: #000000; stroke-width: 0.5; stroke-linejoin: miter; stroke-linecap: square"/>
   </g>
   <g id="patch_9">
    <path d="M 333.73225 98.220472 
L 333.73225 -0 
" style="fill: none; stroke: #000000; stroke-width: 0.5; stroke-linejoin: miter; stroke-linecap: square"/>
   </g>
   <g id="patch_10">
    <path d="M 204.22975 98.220472 
L 333.73225 98.220472 
" style="fill: none; stroke: #000000; stroke-width: 0.5; stroke-linejoin: miter; stroke-linecap: square"/>
   </g>
   <g id="patch_11">
    <path d="M 204.22975 -0 
L 333.73225 -0 
" style="fill: none; stroke: #000000; stroke-width: 0.5; stroke-linejoin: miter; stroke-linecap: square"/>
   </g>
   <g id="legend_2">
    <g id="line2d_29">
     <path d="M 210.52975 8.75 
L 217.52975 8.75 
L 224.52975 8.75 
" style="fill: none; stroke: #000000; stroke-width: 0.5; stroke-linecap: square"/>
     <g>
      <use xlink:href="#m9cd04de905" x="217.52975" y="8.75" style="stroke: #000000"/>
     </g>
    </g>
    <g id="text_27">
     <!-- C-MPC -->
     <g transform="translate(230.12975 11.2)scale(0.07 -0.07)">
      <use xlink:href="#Euclid-43"/>
      <use xlink:href="#Euclid-2d" x="72.199982"/>
      <use xlink:href="#Euclid-4d" x="105.499969"/>
      <use xlink:href="#Euclid-50" x="197.09996"/>
      <use xlink:href="#Euclid-43" x="265.099945"/>
     </g>
    </g>
    <g id="line2d_30">
     <path d="M 210.52975 18.508437 
L 217.52975 18.508437 
L 224.52975 18.508437 
" style="fill: none; stroke: #000000; stroke-width: 0.5; stroke-linecap: square"/>
     <g>
      <use xlink:href="#me3a68d42cc" x="217.52975" y="18.508437" style="stroke: #000000; stroke-linejoin: miter"/>
     </g>
    </g>
    <g id="text_28">
     <!-- DCD -->
     <g transform="translate(230.12975 20.958437)scale(0.07 -0.07)">
      <use xlink:href="#Euclid-44"/>
      <use xlink:href="#Euclid-43" x="76.399994"/>
      <use xlink:href="#Euclid-44" x="148.599976"/>
     </g>
    </g>
    <g id="line2d_31">
     <path d="M 210.52975 28.266875 
L 217.52975 28.266875 
L 224.52975 28.266875 
" style="fill: none; stroke: #000000; stroke-width: 0.5; stroke-linecap: square"/>
     <g>
      <use xlink:href="#m36108d287e" x="217.52975" y="28.266875" style="stroke: #000000"/>
     </g>
    </g>
    <g id="text_29">
     <!-- SCD -->
     <g transform="translate(230.12975 30.716875)scale(0.07 -0.07)">
      <use xlink:href="#Euclid-53"/>
      <use xlink:href="#Euclid-43" x="55.499985"/>
      <use xlink:href="#Euclid-44" x="127.699966"/>
     </g>
    </g>
   </g>
  </g>
 </g>
 <defs>
  <clipPath id="p8647acda55">
   <rect x="22.92625" y="-0" width="129.5025" height="98.220472"/>
  </clipPath>
  <clipPath id="pfa2f42e9e3">
   <rect x="204.22975" y="-0" width="129.5025" height="98.220472"/>
  </clipPath>
 </defs>
</svg>
