<?xml version="1.0" encoding="utf-8" standalone="no"?>
<!DOCTYPE svg PUBLIC "-//W3C//DTD SVG 1.1//EN"
  "http://www.w3.org/Graphics/SVG/1.1/DTD/svg11.dtd">
<svg xmlns:xlink="http://www.w3.org/1999/xlink" width="331.786469pt" height="134.375414pt" viewBox="0 0 331.786469 134.375414" xmlns="http://www.w3.org/2000/svg" version="1.1">
 <metadata>
  <rdf:RDF xmlns:dc="http://purl.org/dc/elements/1.1/" xmlns:cc="http://creativecommons.org/ns#" xmlns:rdf="http://www.w3.org/1999/02/22-rdf-syntax-ns#">
   <cc:Work>
    <dc:type rdf:resource="http://purl.org/dc/dcmitype/StillImage"/>
    <dc:date>2022-03-04T17:17:46.622534</dc:date>
    <dc:format>image/svg+xml</dc:format>
    <dc:creator>
     <cc:Agent>
      <dc:title>Matplotlib v3.5.0, https://matplotlib.org/</dc:title>
     </cc:Agent>
    </dc:creator>
   </cc:Work>
  </rdf:RDF>
 </metadata>
 <defs>
  <style type="text/css">*{stroke-linejoin: round; stroke-linecap: butt}</style>
 </defs>
 <g id="figure_1">
  <g id="patch_1">
   <path d="M 0 134.375414 
L 331.786469 134.375414 
L 331.786469 0 
L 0 0 
z
" style="fill: #ffffff"/>
  </g>
  <g id="axes_1">
   <g id="patch_2">
    <path d="M 20.980469 98.220472 
L 150.482969 98.220472 
L 150.482969 0 
L 20.980469 0 
z
" style="fill: #ffffff"/>
   </g>
   <g id="patch_3">
    <path d="M 26.866946 98.927094 
L 30.545994 98.927094 
L 30.545994 70.66221 
L 26.866946 70.66221 
z
" clip-path="url(#pcf75a37249)" style="fill: url(#h0e310777ea); stroke: #000000; stroke-width: 0.5; stroke-linejoin: miter"/>
   </g>
   <g id="patch_4">
    <path d="M 63.657429 98.927094 
L 67.336477 98.927094 
L 67.336477 49.463547 
L 63.657429 49.463547 
z
" clip-path="url(#pcf75a37249)" style="fill: url(#h0e310777ea); stroke: #000000; stroke-width: 0.5; stroke-linejoin: miter"/>
   </g>
   <g id="patch_5">
    <path d="M 100.447912 98.927094 
L 104.12696 98.927094 
L 104.12696 49.463547 
L 100.447912 49.463547 
z
" clip-path="url(#pcf75a37249)" style="fill: url(#h0e310777ea); stroke: #000000; stroke-width: 0.5; stroke-linejoin: miter"/>
   </g>
   <g id="patch_6">
    <path d="M 137.238395 98.927094 
L 140.917443 98.927094 
L 140.917443 70.66221 
L 137.238395 70.66221 
z
" clip-path="url(#pcf75a37249)" style="fill: url(#h0e310777ea); stroke: #000000; stroke-width: 0.5; stroke-linejoin: miter"/>
   </g>
   <g id="patch_7">
    <path d="M 30.545994 98.927094 
L 34.225043 98.927094 
L 34.225043 70.66221 
L 30.545994 70.66221 
z
" clip-path="url(#pcf75a37249)" style="fill: url(#hecce50a1f2); stroke: #000000; stroke-width: 0.5; stroke-linejoin: miter"/>
   </g>
   <g id="patch_8">
    <path d="M 67.336477 98.927094 
L 71.015526 98.927094 
L 71.015526 49.463547 
L 67.336477 49.463547 
z
" clip-path="url(#pcf75a37249)" style="fill: url(#hecce50a1f2); stroke: #000000; stroke-width: 0.5; stroke-linejoin: miter"/>
   </g>
   <g id="patch_9">
    <path d="M 104.12696 98.927094 
L 107.806009 98.927094 
L 107.806009 14.132442 
L 104.12696 14.132442 
z
" clip-path="url(#pcf75a37249)" style="fill: url(#hecce50a1f2); stroke: #000000; stroke-width: 0.5; stroke-linejoin: miter"/>
   </g>
   <g id="patch_10">
    <path d="M 140.917443 98.927094 
L 144.596491 98.927094 
L 144.596491 63.595989 
L 140.917443 63.595989 
z
" clip-path="url(#pcf75a37249)" style="fill: url(#hecce50a1f2); stroke: #000000; stroke-width: 0.5; stroke-linejoin: miter"/>
   </g>
   <g id="matplotlib.axis_1">
    <g id="xtick_1">
     <g id="line2d_1">
      <defs>
       <path id="m987840351c" d="M 0 0 
L 0 3.5 
" style="stroke: #000000; stroke-width: 0.8"/>
      </defs>
      <g>
       <use xlink:href="#m987840351c" x="30.545994" y="98.220472" style="stroke: #000000; stroke-width: 0.8"/>
      </g>
     </g>
     <g id="text_1">
      <!-- C-MPC -->
      <g transform="translate(18.740604 110.078909)scale(0.07 -0.07)">
       <defs>
        <path id="Euclid-43" d="M 4256 1542 
Q 4256 1606 4192 1606 
L 4154 1606 
Q 4096 1606 4096 1542 
Q 4096 1235 3984 966 
Q 3872 698 3680 493 
Q 3488 288 3225 169 
Q 2963 51 2662 51 
Q 2298 51 1978 214 
Q 1658 378 1434 666 
Q 1190 986 1100 1379 
Q 1011 1773 1011 2189 
Q 1011 2605 1100 2998 
Q 1190 3392 1434 3712 
Q 1658 4000 1974 4160 
Q 2291 4320 2656 4320 
Q 2944 4320 3193 4192 
Q 3443 4064 3632 3849 
Q 3821 3635 3933 3347 
Q 4045 3059 4058 2739 
Q 4070 2682 4122 2682 
L 4192 2682 
Q 4256 2682 4256 2746 
L 4256 4454 
Q 4256 4518 4192 4518 
L 4173 4518 
Q 4134 4518 4122 4486 
L 3757 3962 
Q 3539 4218 3244 4368 
Q 2950 4518 2592 4518 
Q 2144 4518 1734 4339 
Q 1325 4160 1011 3834 
Q 691 3501 524 3075 
Q 358 2650 358 2189 
Q 358 1728 524 1302 
Q 691 877 1011 538 
Q 1325 211 1734 35 
Q 2144 -141 2592 -141 
Q 2938 -141 3242 -6 
Q 3546 128 3770 355 
Q 3994 582 4125 889 
Q 4256 1197 4256 1542 
z
" transform="scale(0.015625)"/>
        <path id="Euclid-2d" d="M 1766 1190 
L 1766 1562 
L 70 1562 
L 70 1190 
L 1766 1190 
z
" transform="scale(0.015625)"/>
        <path id="Euclid-4d" d="M 5613 0 
L 5613 198 
Q 5472 198 5312 201 
Q 5152 205 5069 237 
Q 5011 256 4982 310 
Q 4954 365 4954 429 
L 4954 3949 
Q 4954 4013 4982 4067 
Q 5011 4122 5069 4141 
Q 5152 4173 5312 4176 
Q 5472 4179 5613 4179 
L 5613 4371 
L 4698 4371 
L 4448 4371 
Q 4371 4371 4339 4301 
L 2925 646 
L 1510 4301 
Q 1491 4371 1408 4371 
L 986 4371 
L 243 4371 
L 243 4179 
Q 378 4179 541 4176 
Q 704 4173 787 4141 
Q 845 4122 870 4067 
Q 896 4013 896 3949 
L 896 602 
Q 896 403 736 301 
Q 627 230 499 214 
Q 371 198 243 198 
L 243 0 
Q 608 19 986 19 
Q 1357 19 1734 0 
L 1734 198 
Q 1606 198 1478 214 
Q 1350 230 1242 301 
Q 1158 352 1116 432 
Q 1075 512 1075 602 
L 1075 4141 
L 2650 70 
Q 2682 0 2752 0 
Q 2810 0 2848 70 
L 4442 4192 
L 4442 429 
Q 4442 365 4416 310 
Q 4390 256 4333 237 
Q 4250 205 4086 201 
Q 3923 198 3782 198 
L 3782 0 
Q 4243 19 4698 19 
Q 5152 19 5613 0 
z
" transform="scale(0.015625)"/>
        <path id="Euclid-50" d="M 3987 3181 
Q 3987 3430 3865 3648 
Q 3744 3866 3546 4026 
Q 3322 4205 3046 4288 
Q 2771 4371 2483 4371 
L 224 4371 
L 224 4179 
Q 365 4179 525 4176 
Q 685 4173 768 4141 
Q 826 4122 854 4067 
Q 883 4013 883 3949 
L 883 429 
Q 883 365 854 310 
Q 826 256 768 237 
Q 685 205 525 201 
Q 365 198 224 198 
L 224 0 
Q 1165 38 2106 0 
L 2106 198 
Q 1965 198 1805 201 
Q 1645 205 1562 237 
Q 1504 256 1475 310 
Q 1446 365 1446 429 
L 1446 2016 
L 2483 2016 
Q 2771 2016 3046 2099 
Q 3322 2182 3546 2362 
Q 3744 2509 3865 2723 
Q 3987 2938 3987 3181 
z
M 3328 3181 
Q 3328 2982 3293 2790 
Q 3258 2598 3117 2458 
Q 2963 2304 2752 2246 
Q 2541 2189 2317 2189 
L 1434 2189 
L 1434 3949 
Q 1434 4000 1440 4054 
Q 1446 4109 1485 4141 
Q 1530 4173 1610 4176 
Q 1690 4179 1760 4179 
L 2317 4179 
Q 2541 4179 2752 4121 
Q 2963 4064 3117 3910 
Q 3264 3770 3296 3574 
Q 3328 3379 3328 3181 
z
" transform="scale(0.015625)"/>
       </defs>
       <use xlink:href="#Euclid-43"/>
       <use xlink:href="#Euclid-2d" x="72.199982"/>
       <use xlink:href="#Euclid-4d" x="105.499969"/>
       <use xlink:href="#Euclid-50" x="197.09996"/>
       <use xlink:href="#Euclid-43" x="265.099945"/>
      </g>
     </g>
    </g>
    <g id="xtick_2">
     <g id="line2d_2">
      <g>
       <use xlink:href="#m987840351c" x="67.336477" y="98.220472" style="stroke: #000000; stroke-width: 0.8"/>
      </g>
     </g>
     <g id="text_2">
      <!-- TDCP -->
      <g transform="translate(57.22804 110.078909)scale(0.07 -0.07)">
       <defs>
        <path id="Euclid-54" d="M 4378 2899 
L 4256 4339 
L 358 4339 
L 230 2899 
L 390 2899 
Q 403 3034 419 3184 
Q 435 3334 460 3472 
Q 486 3610 531 3728 
Q 576 3846 646 3917 
Q 794 4064 995 4102 
Q 1197 4141 1402 4141 
L 1690 4141 
Q 1760 4141 1843 4137 
Q 1926 4134 1965 4102 
Q 2010 4070 2016 4016 
Q 2022 3962 2022 3910 
L 2022 429 
Q 2022 358 1977 304 
Q 1933 250 1862 237 
Q 1805 224 1712 214 
Q 1619 205 1513 201 
Q 1408 198 1293 198 
Q 1184 198 1088 198 
L 1088 0 
Q 2304 38 3520 0 
L 3520 198 
Q 3424 198 3309 198 
Q 3200 198 3094 201 
Q 2989 205 2896 214 
Q 2803 224 2746 237 
Q 2675 250 2633 304 
Q 2592 358 2592 429 
L 2592 3910 
Q 2592 3962 2598 4016 
Q 2605 4070 2643 4102 
Q 2688 4134 2768 4137 
Q 2848 4141 2918 4141 
L 3206 4141 
Q 3411 4141 3616 4102 
Q 3821 4064 3968 3917 
Q 4038 3846 4080 3728 
Q 4122 3610 4150 3472 
Q 4179 3334 4192 3184 
Q 4205 3034 4218 2899 
L 4378 2899 
z
" transform="scale(0.015625)"/>
        <path id="Euclid-44" d="M 4518 2144 
Q 4518 2579 4377 2985 
Q 4237 3392 3949 3718 
Q 3680 4026 3328 4198 
Q 2976 4371 2573 4371 
L 224 4371 
L 224 4179 
Q 365 4179 525 4176 
Q 685 4173 768 4141 
Q 826 4122 854 4067 
Q 883 4013 883 3949 
L 883 429 
Q 883 365 854 310 
Q 826 256 768 237 
Q 685 205 525 201 
Q 365 198 224 198 
L 224 0 
L 2573 0 
Q 2970 0 3325 166 
Q 3680 333 3949 627 
Q 4237 941 4377 1331 
Q 4518 1722 4518 2144 
z
M 3878 2144 
Q 3878 1773 3817 1408 
Q 3757 1043 3533 742 
Q 3328 474 3033 336 
Q 2739 198 2406 198 
L 1760 198 
Q 1690 198 1610 201 
Q 1530 205 1485 237 
Q 1446 269 1440 320 
Q 1434 371 1434 429 
L 1434 3949 
Q 1434 4000 1440 4054 
Q 1446 4109 1485 4141 
Q 1530 4173 1610 4176 
Q 1690 4179 1760 4179 
L 2406 4179 
Q 2746 4179 3040 4028 
Q 3334 3878 3533 3603 
Q 3757 3290 3817 2909 
Q 3878 2528 3878 2144 
z
" transform="scale(0.015625)"/>
       </defs>
       <use xlink:href="#Euclid-54"/>
       <use xlink:href="#Euclid-44" x="72.199982"/>
       <use xlink:href="#Euclid-43" x="148.599976"/>
       <use xlink:href="#Euclid-50" x="220.799957"/>
      </g>
     </g>
    </g>
    <g id="xtick_3">
     <g id="line2d_3">
      <g>
       <use xlink:href="#m987840351c" x="104.12696" y="98.220472" style="stroke: #000000; stroke-width: 0.8"/>
      </g>
     </g>
     <g id="text_3">
      <!-- SCD -->
      <g transform="translate(96.983132 110.078909)scale(0.07 -0.07)">
       <defs>
        <path id="Euclid-53" d="M 3187 1184 
Q 3187 1414 3120 1625 
Q 3053 1837 2928 2009 
Q 2803 2182 2624 2307 
Q 2445 2432 2227 2483 
L 1395 2688 
Q 1254 2720 1139 2797 
Q 1024 2874 941 2982 
Q 858 3091 810 3222 
Q 762 3354 762 3501 
Q 762 3667 826 3820 
Q 890 3974 1005 4090 
Q 1254 4339 1594 4339 
Q 1882 4339 2106 4243 
Q 2330 4147 2490 3968 
Q 2650 3789 2742 3539 
Q 2835 3290 2848 2982 
Q 2861 2931 2912 2931 
L 2944 2931 
Q 3008 2931 3008 2989 
L 3008 4454 
Q 3008 4518 2944 4518 
L 2925 4518 
Q 2893 4518 2874 4486 
L 2611 4070 
Q 2438 4282 2185 4400 
Q 1933 4518 1594 4518 
Q 1350 4518 1120 4422 
Q 890 4326 717 4154 
Q 544 3974 451 3747 
Q 358 3520 358 3277 
Q 358 3066 425 2867 
Q 493 2669 617 2509 
Q 742 2349 915 2233 
Q 1088 2118 1299 2067 
L 2131 1869 
Q 2278 1830 2396 1744 
Q 2515 1658 2601 1539 
Q 2688 1421 2733 1273 
Q 2778 1126 2778 973 
Q 2778 595 2534 320 
Q 2419 192 2268 121 
Q 2118 51 1952 51 
Q 1626 51 1360 140 
Q 1094 230 908 403 
Q 723 576 620 822 
Q 518 1069 518 1382 
Q 518 1446 454 1446 
L 416 1446 
Q 358 1446 358 1382 
L 358 -83 
Q 358 -141 416 -141 
L 442 -141 
Q 467 -141 493 -115 
L 749 307 
Q 960 90 1264 -25 
Q 1568 -141 1952 -141 
Q 2202 -141 2429 -38 
Q 2656 64 2829 250 
Q 3008 442 3097 682 
Q 3187 922 3187 1184 
z
" transform="scale(0.015625)"/>
       </defs>
       <use xlink:href="#Euclid-53"/>
       <use xlink:href="#Euclid-43" x="55.499985"/>
       <use xlink:href="#Euclid-44" x="127.699966"/>
      </g>
     </g>
    </g>
    <g id="xtick_4">
     <g id="line2d_4">
      <g>
       <use xlink:href="#m987840351c" x="140.917443" y="98.220472" style="stroke: #000000; stroke-width: 0.8"/>
      </g>
     </g>
     <g id="text_4">
      <!-- STCP -->
      <g transform="translate(131.540724 110.078909)scale(0.07 -0.07)">
       <use xlink:href="#Euclid-53"/>
       <use xlink:href="#Euclid-54" x="55.499985"/>
       <use xlink:href="#Euclid-43" x="127.699966"/>
       <use xlink:href="#Euclid-50" x="199.899948"/>
      </g>
     </g>
    </g>
    <g id="text_5">
     <!-- 不同控制器部署算法 -->
     <g transform="translate(54.231719 121.015472)scale(0.07 -0.07)">
      <defs>
       <path id="SimSun-4e0d" d="M 3375 3175 
L 3375 775 
Q 3375 25 3400 -375 
L 2975 -550 
Q 3000 400 3000 1100 
L 3000 3300 
Q 2000 1775 400 850 
L 350 950 
Q 1175 1550 1937 2462 
Q 2700 3375 3175 4600 
L 1225 4600 
Q 900 4600 625 4525 
L 400 4750 
L 5150 4750 
L 5525 5125 
L 6050 4600 
L 3675 4600 
Q 3450 4175 3175 3600 
L 3600 3350 
L 3375 3175 
z
M 3900 3100 
L 3975 3175 
Q 5575 2125 5737 1875 
Q 5900 1625 5900 1475 
Q 5900 1375 5825 1237 
Q 5750 1100 5700 1100 
Q 5600 1100 5400 1500 
Q 5100 2025 3900 3100 
z
" transform="scale(0.015625)"/>
       <path id="SimSun-540c" d="M 1650 3725 
L 4075 3725 
L 4400 4050 
L 4875 3575 
L 2375 3575 
Q 2100 3575 1875 3500 
L 1650 3725 
z
M 2475 2600 
L 2475 1400 
L 4000 1400 
L 4000 2600 
L 2475 2600 
z
M 2125 2950 
L 2475 2750 
L 3975 2750 
L 4150 3000 
L 4525 2700 
L 4325 2525 
L 4325 1600 
Q 4325 1275 4350 950 
L 4000 825 
L 4000 1250 
L 2475 1250 
L 2475 875 
L 2125 750 
Q 2150 1175 2150 1787 
Q 2150 2400 2125 2950 
z
M 4175 125 
Q 4700 50 4987 37 
Q 5275 25 5275 400 
L 5275 4650 
L 1275 4650 
L 1275 -425 
L 875 -575 
Q 925 250 925 750 
L 925 3900 
Q 925 4450 900 5050 
L 1275 4800 
L 5250 4800 
L 5425 5050 
L 5825 4725 
L 5625 4575 
L 5625 250 
Q 5650 -350 5025 -575 
Q 5025 -250 4175 0 
L 4175 125 
z
" transform="scale(0.015625)"/>
       <path id="SimSun-63a7" d="M 2625 1875 
L 4825 1875 
L 5125 2175 
L 5575 1725 
L 4200 1725 
L 4200 50 
L 5325 50 
L 5650 375 
L 6125 -100 
L 2950 -100 
Q 2625 -100 2350 -175 
L 2125 50 
L 3850 50 
L 3850 1725 
L 3100 1725 
L 2825 1675 
L 2625 1875 
z
M 3775 3100 
Q 3000 2350 2325 2000 
L 2275 2075 
Q 3150 2775 3600 3575 
L 4025 3175 
L 3775 3100 
z
M 4350 3300 
L 4400 3375 
Q 5150 3075 5425 2887 
Q 5700 2700 5712 2500 
Q 5725 2300 5637 2200 
Q 5550 2100 5525 2100 
Q 5425 2100 5275 2400 
Q 5075 2775 4350 3300 
z
M 5225 3300 
L 5450 3875 
L 2925 3875 
Q 2925 3650 2900 3512 
Q 2875 3375 2762 3325 
Q 2650 3275 2600 3275 
Q 2550 3275 2475 3312 
Q 2400 3350 2400 3375 
Q 2400 3450 2550 3625 
Q 2750 3875 2825 4325 
L 2925 4325 
L 2925 4025 
L 5450 4025 
L 5650 4275 
L 6050 3875 
Q 5750 3875 5300 3250 
L 5225 3300 
z
M 3525 5000 
L 3575 5075 
Q 4100 4850 4287 4725 
Q 4475 4600 4437 4425 
Q 4400 4250 4337 4200 
Q 4275 4150 4225 4150 
Q 4150 4150 4075 4325 
Q 3950 4575 3525 5000 
z
M 2475 2675 
L 1650 2175 
L 1650 0 
Q 1625 -400 1175 -625 
Q 1175 -350 400 -100 
L 400 0 
Q 950 -100 1125 -75 
Q 1300 -50 1300 300 
L 1300 2000 
Q 600 1600 525 1450 
L 225 1900 
Q 525 1975 1300 2300 
L 1300 3700 
L 775 3700 
L 475 3650 
L 275 3850 
L 1300 3850 
Q 1300 4750 1275 5225 
L 1900 4950 
L 1650 4750 
L 1650 3850 
L 1850 3850 
L 2100 4100 
L 2500 3700 
L 1650 3700 
L 1650 2425 
L 2425 2775 
L 2475 2675 
z
" transform="scale(0.015625)"/>
       <path id="SimSun-5236" d="M 4200 850 
Q 4225 1375 4225 2462 
Q 4225 3550 4200 4275 
L 4725 4025 
L 4525 3875 
L 4525 1575 
Q 4525 1400 4550 1050 
L 4200 850 
z
M 5350 4450 
Q 5350 4850 5325 5225 
L 5850 4975 
L 5675 4800 
L 5675 125 
Q 5700 -400 5200 -625 
Q 5150 -225 4375 -100 
L 4375 0 
Q 4850 -25 5100 -25 
Q 5350 -25 5350 225 
L 5350 4450 
z
M 1925 3900 
L 1925 4275 
Q 1925 4875 1900 5200 
L 2425 4975 
L 2225 4800 
L 2225 3900 
L 2800 3900 
L 3075 4200 
L 3525 3750 
L 2225 3750 
L 2225 3000 
L 3125 3000 
L 3425 3300 
L 3875 2850 
L 2225 2850 
L 2225 2175 
L 3050 2175 
L 3225 2425 
L 3600 2150 
L 3400 1975 
L 3400 750 
Q 3425 300 2925 125 
Q 2975 400 2400 575 
L 2400 675 
Q 2775 625 2937 625 
Q 3100 625 3100 875 
L 3100 2025 
L 2225 2025 
L 2225 300 
Q 2225 -125 2250 -450 
L 1900 -625 
Q 1925 225 1925 475 
L 1925 2025 
L 1050 2025 
L 1050 250 
L 725 75 
Q 750 725 750 1300 
Q 750 1875 725 2375 
L 1075 2175 
L 1925 2175 
L 1925 2850 
L 1100 2850 
Q 775 2850 500 2775 
L 275 3000 
L 1925 3000 
L 1925 3750 
L 1025 3750 
Q 775 3325 525 3050 
L 450 3075 
Q 700 3600 825 4000 
Q 950 4400 975 4675 
L 1450 4425 
Q 1275 4350 1075 3900 
L 1925 3900 
z
" transform="scale(0.015625)"/>
       <path id="SimSun-5668" d="M 1475 4625 
L 1475 3650 
L 2475 3650 
L 2475 4625 
L 1475 4625 
z
M 1125 3075 
Q 1150 3575 1150 4062 
Q 1150 4550 1125 5000 
L 1475 4775 
L 2450 4775 
L 2625 5000 
L 3025 4675 
L 2800 4525 
Q 2800 3625 2825 3350 
L 2475 3200 
L 2475 3500 
L 1475 3500 
L 1475 3250 
L 1125 3075 
z
M 5250 1200 
Q 5250 150 5275 -225 
L 4900 -375 
L 4900 25 
L 3775 25 
L 3775 -350 
L 3425 -475 
Q 3450 50 3450 562 
Q 3450 1075 3425 1550 
L 3775 1375 
L 4825 1375 
L 4875 1425 
Q 4025 1900 3600 2525 
L 2850 2525 
Q 2200 1750 1425 1375 
L 2475 1375 
L 2650 1600 
L 3025 1300 
L 2850 1150 
Q 2850 100 2875 -225 
L 2525 -350 
L 2525 25 
L 1550 25 
L 1550 -300 
L 1200 -425 
Q 1225 0 1225 475 
Q 1225 950 1225 1275 
Q 725 1100 275 1000 
L 250 1075 
Q 950 1325 1475 1662 
Q 2000 2000 2450 2525 
L 1250 2525 
Q 925 2525 650 2450 
L 425 2675 
L 2525 2675 
Q 2750 3025 2925 3400 
L 3400 3075 
Q 3150 2975 2925 2675 
L 4500 2675 
Q 4375 3025 4000 3275 
L 4050 3350 
Q 4525 3225 4650 3125 
Q 4775 3025 4775 2950 
Q 4775 2825 4650 2675 
L 5150 2675 
L 5500 3025 
L 6000 2525 
L 3750 2525 
Q 4175 2125 4737 1850 
Q 5300 1575 6125 1550 
L 6125 1450 
Q 5725 1400 5650 1100 
L 5275 1225 
L 5250 1200 
z
M 1550 1225 
L 1550 175 
L 2525 175 
L 2525 1225 
L 1550 1225 
z
M 3775 1225 
L 3775 175 
L 4900 175 
L 4900 1225 
L 3775 1225 
z
M 3925 4625 
L 3925 3650 
L 4900 3650 
L 4900 4625 
L 3925 4625 
z
M 3575 3200 
Q 3600 3650 3600 4112 
Q 3600 4575 3575 5000 
L 3925 4775 
L 4875 4775 
L 5050 5000 
L 5425 4700 
L 5225 4525 
Q 5225 3700 5250 3375 
L 4900 3250 
L 4900 3500 
L 3925 3500 
L 3925 3325 
L 3575 3200 
z
" transform="scale(0.015625)"/>
       <path id="SimSun-90e8" d="M 4025 -650 
L 4025 3650 
Q 4025 4250 4000 4800 
L 4350 4525 
L 5475 4525 
L 5700 4750 
L 6050 4400 
L 5825 4225 
L 5075 2600 
Q 5525 2200 5725 1812 
Q 5925 1425 5925 1087 
Q 5925 750 5725 512 
Q 5525 275 5175 175 
Q 5050 525 4475 675 
L 4475 775 
Q 4975 700 5187 700 
Q 5400 700 5475 875 
Q 5550 1050 5550 1200 
Q 5550 1375 5475 1712 
Q 5400 2050 4925 2600 
L 5500 4375 
L 4350 4375 
L 4350 -475 
L 4025 -650 
z
M 1350 1625 
L 1350 375 
L 2825 375 
L 2825 1625 
L 1350 1625 
z
M 575 4175 
L 2050 4175 
Q 2000 4475 1925 4675 
Q 1850 4875 1675 5100 
L 1725 5175 
Q 2375 4800 2412 4587 
Q 2450 4375 2200 4175 
L 3025 4175 
L 3300 4475 
L 3700 4025 
L 1275 4025 
Q 1075 4025 800 3950 
L 575 4175 
z
M 2325 2575 
Q 2725 3500 2775 3900 
L 3300 3575 
L 3075 3450 
Q 2850 3125 2500 2575 
L 3275 2575 
L 3575 2875 
L 3975 2425 
L 1025 2425 
Q 825 2425 550 2350 
L 325 2575 
L 2325 2575 
z
M 1000 -450 
Q 1025 175 1025 775 
Q 1025 1375 1000 2000 
L 1375 1775 
L 2800 1775 
L 3050 2025 
L 3375 1700 
L 3150 1525 
Q 3150 250 3175 -175 
L 2825 -350 
L 2825 225 
L 1350 225 
L 1350 -300 
L 1000 -450 
z
M 1150 3800 
Q 1600 3475 1725 3300 
Q 1850 3125 1812 2975 
Q 1775 2825 1687 2750 
Q 1600 2675 1575 2675 
Q 1500 2675 1475 2850 
Q 1425 3075 1350 3275 
Q 1275 3475 1100 3725 
L 1150 3800 
z
" transform="scale(0.015625)"/>
       <path id="SimSun-7f72" d="M 2300 675 
L 2300 0 
L 4600 0 
L 4600 675 
L 2300 675 
z
M 1925 -600 
Q 1950 125 1950 1125 
Q 1025 700 275 525 
L 250 600 
Q 1150 950 1950 1375 
L 1950 1800 
L 2325 1625 
Q 2900 1950 3425 2275 
L 1175 2275 
Q 850 2275 575 2200 
L 350 2425 
L 2825 2425 
L 2825 3025 
L 1925 3025 
Q 1600 3025 1325 2950 
L 1100 3175 
L 2825 3175 
Q 2825 3575 2800 3825 
L 3350 3600 
L 3175 3425 
L 3175 3175 
L 3550 3175 
L 3875 3500 
L 4325 3025 
L 3175 3025 
L 3175 2425 
L 3625 2425 
Q 4525 3125 4875 3650 
L 5250 3175 
L 5000 3150 
Q 4500 2750 4075 2425 
L 5275 2425 
L 5625 2750 
L 6050 2275 
L 3950 2275 
Q 3350 1900 2775 1600 
L 4550 1600 
L 4750 1850 
L 5175 1525 
L 4950 1350 
Q 4950 400 4950 137 
Q 4950 -125 4975 -425 
L 4600 -550 
L 4600 -150 
L 2300 -150 
L 2300 -450 
L 1925 -600 
z
M 2300 1350 
L 2300 825 
L 4600 825 
L 4600 1450 
L 2550 1450 
L 2300 1350 
z
M 1550 4825 
L 1550 3975 
L 2500 3975 
L 2500 4825 
L 1550 4825 
z
M 2825 4825 
L 2825 3975 
L 3750 3975 
L 3750 4825 
L 2825 4825 
z
M 4075 4825 
L 4075 3975 
L 5125 3975 
L 5125 4825 
L 4075 4825 
z
M 5450 4375 
Q 5450 4025 5475 3675 
L 5125 3550 
L 5125 3825 
L 1550 3825 
L 1550 3725 
L 1200 3575 
Q 1225 4125 1225 4487 
Q 1225 4850 1200 5200 
L 1575 4975 
L 5075 4975 
L 5250 5200 
L 5650 4925 
L 5450 4750 
L 5450 4375 
z
" transform="scale(0.015625)"/>
       <path id="SimSun-7b97" d="M 2675 1525 
Q 2650 1125 2600 750 
L 3825 750 
L 3825 1525 
L 2675 1525 
z
M 4900 2075 
Q 4900 1875 4925 1425 
L 4550 1275 
L 4550 1525 
L 4175 1525 
L 4175 775 
L 5300 775 
L 5650 1100 
L 6100 625 
L 4175 625 
Q 4175 -225 4200 -475 
L 3800 -650 
Q 3825 100 3825 600 
L 2575 600 
Q 2400 50 1837 -250 
Q 1275 -550 625 -650 
L 600 -575 
Q 1325 -325 1687 -62 
Q 2050 200 2200 600 
L 1125 600 
Q 800 600 525 525 
L 300 750 
L 2225 750 
Q 2275 1100 2300 1525 
L 1850 1525 
L 1850 1325 
L 1500 1200 
Q 1525 1975 1512 2787 
Q 1500 3600 1475 3775 
L 1850 3575 
L 4525 3575 
L 4675 3800 
L 5075 3525 
L 4900 3375 
L 4900 2075 
z
M 1850 3425 
L 1850 2975 
L 4550 2975 
L 4550 3425 
L 1850 3425 
z
M 1850 2825 
L 1850 2350 
L 4550 2350 
L 4550 2825 
L 1850 2825 
z
M 1850 2200 
L 1850 1675 
L 4550 1675 
L 4550 2200 
L 1850 2200 
z
M 1575 5275 
L 2075 5000 
Q 1925 4925 1837 4825 
Q 1750 4725 1600 4500 
L 2700 4500 
L 3000 4800 
L 3400 4350 
L 2125 4350 
Q 2650 4075 2587 3887 
Q 2525 3700 2462 3662 
Q 2400 3625 2350 3625 
Q 2275 3625 2250 3712 
Q 2225 3800 2200 3975 
Q 2150 4125 1950 4350 
L 1525 4350 
Q 1275 3975 1050 3725 
Q 825 3475 475 3225 
L 425 3300 
Q 650 3525 950 3950 
Q 1250 4375 1575 5275 
z
M 4000 5250 
L 4450 4950 
Q 4325 4925 4200 4775 
Q 4075 4625 3975 4475 
L 5325 4475 
L 5625 4750 
L 6000 4325 
L 4675 4325 
Q 5300 4125 5300 3937 
Q 5300 3750 5212 3675 
Q 5125 3600 5100 3600 
Q 5050 3600 4987 3712 
Q 4925 3825 4850 3962 
Q 4775 4100 4500 4325 
L 3900 4325 
Q 3725 4150 3575 3975 
Q 3400 3775 3225 3625 
L 3150 3675 
Q 3450 4050 3712 4562 
Q 3975 5075 4000 5250 
z
" transform="scale(0.015625)"/>
       <path id="SimSun-6cd5" d="M 3800 3850 
Q 3800 4925 3775 5275 
L 4375 4975 
L 4125 4725 
L 4125 3850 
L 5100 3850 
L 5375 4125 
L 5775 3700 
L 4125 3700 
L 4125 2350 
L 5450 2350 
L 5750 2650 
L 6175 2200 
L 3825 2200 
L 4225 1925 
Q 4000 1825 3750 1450 
Q 3500 1075 2600 125 
L 5225 300 
Q 4900 750 4525 1175 
L 4575 1250 
Q 5025 925 5287 725 
Q 5550 525 5712 337 
Q 5875 150 5875 0 
Q 5875 -150 5775 -300 
Q 5675 -450 5650 -450 
Q 5575 -450 5525 -300 
Q 5425 -50 5300 175 
Q 3900 25 3175 -150 
Q 2450 -325 2350 -450 
L 2100 125 
Q 2425 125 2962 875 
Q 3500 1625 3700 2200 
L 2775 2200 
Q 2450 2200 2175 2125 
L 1950 2350 
L 3800 2350 
L 3800 3700 
L 3250 3700 
Q 2925 3700 2650 3625 
L 2425 3850 
L 3800 3850 
z
M 2375 4150 
Q 1400 1500 1312 1187 
Q 1225 875 1237 425 
Q 1250 -25 1275 -200 
Q 1275 -300 1150 -300 
Q 1050 -300 900 -250 
Q 750 -200 750 -25 
Q 750 100 825 350 
Q 900 600 900 750 
Q 900 925 787 1025 
Q 675 1125 300 1225 
L 300 1325 
Q 750 1275 862 1287 
Q 975 1300 1112 1512 
Q 1250 1725 2275 4175 
L 2375 4150 
z
M 325 3600 
Q 1200 3150 1200 2862 
Q 1200 2575 1062 2475 
Q 925 2375 825 2725 
Q 700 3050 275 3525 
L 325 3600 
z
M 900 5050 
Q 1600 4700 1662 4525 
Q 1725 4350 1725 4275 
Q 1725 4150 1637 4050 
Q 1550 3950 1500 3950 
Q 1425 3950 1350 4200 
Q 1225 4525 850 4975 
L 900 5050 
z
" transform="scale(0.015625)"/>
      </defs>
      <use xlink:href="#SimSun-4e0d"/>
      <use xlink:href="#SimSun-540c" x="100"/>
      <use xlink:href="#SimSun-63a7" x="200"/>
      <use xlink:href="#SimSun-5236" x="300"/>
      <use xlink:href="#SimSun-5668" x="400"/>
      <use xlink:href="#SimSun-90e8" x="500"/>
      <use xlink:href="#SimSun-7f72" x="600"/>
      <use xlink:href="#SimSun-7b97" x="700"/>
      <use xlink:href="#SimSun-6cd5" x="800"/>
     </g>
    </g>
   </g>
   <g id="matplotlib.axis_2">
    <g id="ytick_1">
     <g id="line2d_5">
      <defs>
       <path id="m20f39acc77" d="M 0 0 
L 3.5 0 
" style="stroke: #000000; stroke-width: 0.8"/>
      </defs>
      <g>
       <use xlink:href="#m20f39acc77" x="20.980469" y="91.860873" style="stroke: #000000; stroke-width: 0.8"/>
      </g>
     </g>
     <g id="text_6">
      <!-- 1 -->
      <g transform="translate(13.980469 94.290092)scale(0.07 -0.07)">
       <defs>
        <path id="Euclid-31" d="M 2682 0 
L 2682 198 
Q 2598 198 2502 198 
Q 2406 198 2313 201 
Q 2221 205 2144 214 
Q 2067 224 2016 237 
Q 1952 250 1917 304 
Q 1882 358 1882 429 
L 1882 4198 
Q 1882 4269 1811 4269 
L 1734 4269 
Q 1510 4032 1203 3942 
Q 896 3853 570 3853 
L 570 3661 
Q 794 3661 1008 3699 
Q 1222 3738 1408 3827 
L 1408 429 
Q 1408 358 1373 304 
Q 1338 250 1274 237 
Q 1222 224 1142 214 
Q 1062 205 972 201 
Q 883 198 787 198 
Q 691 198 608 198 
L 608 0 
Q 1645 38 2682 0 
z
" transform="scale(0.015625)"/>
       </defs>
       <use xlink:href="#Euclid-31"/>
      </g>
     </g>
    </g>
    <g id="ytick_2">
     <g id="line2d_6">
      <g>
       <use xlink:href="#m20f39acc77" x="20.980469" y="77.728431" style="stroke: #000000; stroke-width: 0.8"/>
      </g>
     </g>
     <g id="text_7">
      <!-- 3 -->
      <g transform="translate(13.980469 80.15765)scale(0.07 -0.07)">
       <defs>
        <path id="Euclid-33" d="M 2918 1094 
Q 2918 1338 2812 1558 
Q 2707 1779 2522 1939 
Q 2374 2067 2204 2144 
Q 2035 2221 1850 2253 
Q 2042 2317 2205 2425 
Q 2368 2534 2486 2681 
Q 2605 2829 2675 3008 
Q 2746 3187 2746 3392 
Q 2746 3590 2643 3750 
Q 2541 3910 2387 4019 
Q 2208 4147 1997 4208 
Q 1786 4269 1562 4269 
Q 1350 4269 1148 4208 
Q 947 4147 790 4032 
Q 634 3917 538 3753 
Q 442 3590 442 3386 
Q 442 3226 544 3146 
Q 646 3066 768 3066 
Q 890 3066 992 3146 
Q 1094 3226 1094 3386 
Q 1094 3571 963 3654 
Q 832 3738 698 3706 
Q 813 3891 1046 4000 
Q 1280 4109 1562 4109 
Q 1830 4109 2003 3904 
Q 2093 3802 2121 3670 
Q 2150 3539 2150 3392 
Q 2150 3194 2108 3005 
Q 2067 2816 1984 2669 
Q 1901 2522 1776 2429 
Q 1651 2336 1485 2323 
Q 1395 2310 1306 2310 
Q 1216 2310 1126 2298 
Q 1101 2298 1081 2278 
Q 1062 2259 1069 2234 
L 1069 2214 
Q 1069 2157 1126 2157 
L 1562 2157 
Q 1722 2157 1856 2073 
Q 1990 1990 2080 1856 
Q 2189 1690 2227 1494 
Q 2266 1299 2266 1094 
Q 2266 890 2227 694 
Q 2189 499 2080 333 
Q 1990 198 1856 118 
Q 1722 38 1562 38 
Q 1235 38 960 169 
Q 685 301 557 531 
Q 627 518 704 534 
Q 781 550 841 595 
Q 902 640 940 710 
Q 979 781 979 883 
Q 979 1062 867 1148 
Q 755 1235 621 1235 
Q 493 1235 381 1148 
Q 269 1062 269 883 
Q 269 640 377 451 
Q 486 262 668 131 
Q 851 0 1084 -70 
Q 1318 -141 1562 -141 
Q 1830 -141 2076 -51 
Q 2323 38 2522 218 
Q 2707 384 2812 614 
Q 2918 845 2918 1094 
z
" transform="scale(0.015625)"/>
       </defs>
       <use xlink:href="#Euclid-33"/>
      </g>
     </g>
    </g>
    <g id="ytick_3">
     <g id="line2d_7">
      <g>
       <use xlink:href="#m20f39acc77" x="20.980469" y="63.595989" style="stroke: #000000; stroke-width: 0.8"/>
      </g>
     </g>
     <g id="text_8">
      <!-- 5 -->
      <g transform="translate(13.980469 66.025208)scale(0.07 -0.07)">
       <defs>
        <path id="Euclid-35" d="M 2867 1286 
Q 2867 1555 2780 1811 
Q 2694 2067 2522 2272 
Q 2355 2464 2134 2579 
Q 1914 2694 1664 2694 
Q 1408 2694 1203 2608 
Q 998 2522 845 2362 
L 845 3616 
Q 1101 3533 1402 3533 
Q 1760 3533 2080 3696 
Q 2400 3859 2605 4154 
Q 2618 4166 2618 4205 
Q 2618 4269 2554 4269 
Q 2547 4269 2540 4265 
Q 2534 4262 2528 4262 
Q 2099 4058 1632 4058 
Q 1165 4058 736 4262 
Q 730 4262 723 4265 
Q 717 4269 710 4269 
Q 646 4256 646 4198 
L 646 2112 
Q 646 2042 723 2042 
L 749 2042 
Q 787 2042 806 2080 
Q 941 2304 1155 2425 
Q 1370 2547 1664 2547 
Q 1818 2547 1946 2448 
Q 2074 2349 2157 2195 
Q 2266 1990 2282 1760 
Q 2298 1530 2298 1286 
Q 2298 1043 2262 809 
Q 2227 576 2099 384 
Q 1990 224 1824 131 
Q 1658 38 1472 38 
Q 1133 38 873 243 
Q 614 448 525 762 
Q 589 736 665 742 
Q 742 749 803 787 
Q 864 826 905 893 
Q 947 960 947 1056 
Q 947 1216 848 1293 
Q 749 1370 634 1370 
Q 518 1370 419 1293 
Q 320 1216 320 1056 
Q 320 813 409 595 
Q 499 378 652 214 
Q 806 51 1017 -45 
Q 1229 -141 1472 -141 
Q 1754 -141 2006 -32 
Q 2259 77 2458 275 
Q 2656 480 2761 739 
Q 2867 998 2867 1286 
z
" transform="scale(0.015625)"/>
       </defs>
       <use xlink:href="#Euclid-35"/>
      </g>
     </g>
    </g>
    <g id="ytick_4">
     <g id="line2d_8">
      <g>
       <use xlink:href="#m20f39acc77" x="20.980469" y="49.463547" style="stroke: #000000; stroke-width: 0.8"/>
      </g>
     </g>
     <g id="text_9">
      <!-- 7 -->
      <g transform="translate(13.980469 51.892766)scale(0.07 -0.07)">
       <defs>
        <path id="Euclid-37" d="M 3098 4000 
L 3098 4122 
L 1894 4122 
Q 1773 4122 1632 4122 
Q 1498 4122 1363 4125 
Q 1229 4128 1113 4137 
Q 998 4147 922 4160 
Q 838 4173 774 4217 
Q 710 4262 723 4333 
L 563 4333 
L 358 3008 
L 518 3008 
Q 531 3085 544 3174 
Q 557 3264 576 3347 
Q 595 3430 620 3497 
Q 646 3565 678 3597 
Q 691 3610 819 3616 
Q 947 3622 1123 3625 
Q 1299 3629 1498 3629 
Q 1702 3629 1856 3629 
L 2624 3629 
L 2029 2790 
Q 1613 2208 1369 1539 
Q 1126 870 1126 154 
Q 1126 6 1219 -70 
Q 1312 -147 1421 -147 
Q 1530 -147 1622 -70 
Q 1715 6 1715 154 
Q 1715 499 1724 844 
Q 1734 1190 1779 1520 
Q 1824 1850 1920 2154 
Q 2016 2458 2195 2707 
L 3085 3962 
Q 3098 3987 3098 4000 
z
" transform="scale(0.015625)"/>
       </defs>
       <use xlink:href="#Euclid-37"/>
      </g>
     </g>
    </g>
    <g id="ytick_5">
     <g id="line2d_9">
      <g>
       <use xlink:href="#m20f39acc77" x="20.980469" y="35.331105" style="stroke: #000000; stroke-width: 0.8"/>
      </g>
     </g>
     <g id="text_10">
      <!-- 9 -->
      <g transform="translate(13.980469 37.760324)scale(0.07 -0.07)">
       <defs>
        <path id="Euclid-39" d="M 2918 2067 
Q 2918 2477 2860 2893 
Q 2803 3309 2592 3674 
Q 2438 3942 2188 4105 
Q 1939 4269 1632 4269 
Q 1325 4269 1097 4166 
Q 870 4064 666 3846 
Q 448 3616 358 3379 
Q 269 3142 269 2829 
Q 269 2522 352 2285 
Q 435 2048 640 1818 
Q 832 1600 1043 1497 
Q 1254 1395 1549 1395 
Q 1850 1395 2045 1574 
Q 2240 1754 2349 2035 
Q 2342 1651 2313 1292 
Q 2285 934 2118 608 
Q 1990 365 1785 201 
Q 1581 38 1325 38 
Q 1101 38 931 92 
Q 762 147 672 275 
Q 794 256 902 326 
Q 1011 397 1011 563 
Q 1011 710 921 784 
Q 832 858 717 858 
Q 608 858 518 784 
Q 429 710 429 563 
Q 429 378 499 246 
Q 570 115 691 28 
Q 813 -58 976 -99 
Q 1139 -141 1325 -141 
Q 1677 -141 1968 44 
Q 2259 230 2458 512 
Q 2701 858 2809 1254 
Q 2918 1651 2918 2067 
z
M 2336 2848 
Q 2330 2842 2330 2822 
Q 2349 2573 2304 2339 
Q 2259 2106 2160 1930 
Q 2061 1754 1907 1645 
Q 1754 1536 1555 1536 
Q 1357 1536 1222 1625 
Q 1088 1715 979 1901 
Q 877 2080 857 2310 
Q 838 2541 838 2829 
Q 838 3110 857 3337 
Q 877 3565 998 3750 
Q 1114 3936 1264 4022 
Q 1414 4109 1632 4109 
Q 1837 4109 1993 3961 
Q 2150 3814 2227 3603 
Q 2278 3475 2300 3276 
Q 2323 3078 2336 2848 
z
" transform="scale(0.015625)"/>
       </defs>
       <use xlink:href="#Euclid-39"/>
      </g>
     </g>
    </g>
    <g id="ytick_6">
     <g id="line2d_10">
      <g>
       <use xlink:href="#m20f39acc77" x="20.980469" y="21.198663" style="stroke: #000000; stroke-width: 0.8"/>
      </g>
     </g>
     <g id="text_11">
      <!-- 11 -->
      <g transform="translate(10.480469 23.627882)scale(0.07 -0.07)">
       <use xlink:href="#Euclid-31"/>
       <use xlink:href="#Euclid-31" x="49.999985"/>
      </g>
     </g>
    </g>
    <g id="ytick_7">
     <g id="line2d_11">
      <g>
       <use xlink:href="#m20f39acc77" x="20.980469" y="7.066221" style="stroke: #000000; stroke-width: 0.8"/>
      </g>
     </g>
     <g id="text_12">
      <!-- 13 -->
      <g transform="translate(10.480469 9.49544)scale(0.07 -0.07)">
       <use xlink:href="#Euclid-31"/>
       <use xlink:href="#Euclid-33" x="49.999985"/>
      </g>
     </g>
    </g>
    <g id="text_13">
     <!-- 控制器部署个数 -->
     <g transform="translate(5.578125 73.610236)rotate(-90)scale(0.07 -0.07)">
      <defs>
       <path id="SimSun-4e2a" d="M 2975 -650 
Q 3000 350 3000 750 
L 3000 2400 
Q 3000 2850 2975 3475 
L 3575 3150 
L 3375 3000 
L 3375 500 
Q 3375 75 3400 -400 
L 2975 -650 
z
M 3525 4975 
L 3300 4825 
Q 3975 3800 4712 3287 
Q 5450 2775 6125 2675 
L 6125 2575 
Q 5725 2550 5550 2250 
Q 4800 2650 4275 3200 
Q 3750 3750 3225 4675 
Q 2650 3675 2000 3075 
Q 1350 2475 275 2025 
L 250 2125 
Q 1325 2650 2037 3575 
Q 2750 4500 3000 5275 
L 3525 4975 
z
" transform="scale(0.015625)"/>
       <path id="SimSun-6570" d="M 1875 1525 
Q 1675 1200 1500 900 
Q 1825 825 2275 725 
Q 2500 975 2725 1525 
L 1875 1525 
z
M 850 4900 
Q 1325 4600 1425 4450 
Q 1525 4300 1525 4225 
Q 1525 4100 1437 3975 
Q 1350 3850 1300 3850 
Q 1225 3850 1150 4100 
Q 1050 4450 775 4850 
L 850 4900 
z
M 3000 4975 
L 3450 4675 
Q 3250 4625 3100 4425 
Q 2925 4225 2525 3825 
L 2450 3875 
Q 2925 4625 3000 4975 
z
M 1875 5250 
L 2425 5000 
L 2225 4825 
L 2225 3675 
L 2850 3675 
L 3125 3950 
L 3550 3525 
L 2225 3525 
L 2225 3300 
Q 2800 3175 2937 3062 
Q 3075 2950 3075 2775 
Q 3075 2700 3050 2587 
Q 3025 2475 2975 2475 
Q 2925 2475 2800 2650 
Q 2600 2925 2225 3175 
L 2225 2400 
L 1925 2200 
L 2275 2050 
Q 2150 2000 1950 1675 
L 2725 1675 
L 2900 1900 
L 3275 1575 
L 3050 1450 
Q 2800 875 2600 650 
Q 3000 550 3137 437 
Q 3275 325 3275 150 
Q 3275 -25 3200 -25 
Q 3125 -25 3025 75 
Q 2750 275 2400 425 
Q 1525 -275 325 -500 
L 300 -425 
Q 1450 -50 2100 550 
Q 1600 725 1125 800 
Q 1225 950 1525 1525 
L 1200 1525 
Q 875 1525 600 1450 
L 375 1675 
L 1575 1675 
Q 1675 1925 1775 2275 
L 1900 2225 
L 1900 3250 
Q 1225 2475 350 2050 
L 300 2125 
Q 1225 2775 1700 3525 
L 1250 3525 
Q 925 3525 650 3450 
L 425 3675 
L 1900 3675 
Q 1900 4575 1875 5250 
z
M 3925 3525 
Q 4050 2075 4525 1100 
Q 4925 1950 5025 3525 
L 3925 3525 
z
M 4050 5250 
L 4625 4925 
Q 4425 4850 4325 4625 
Q 4225 4400 3950 3675 
L 5375 3675 
L 5675 3975 
L 6125 3525 
L 5400 3525 
Q 5250 1675 4750 775 
Q 5325 75 6100 -100 
L 6100 -200 
Q 5625 -275 5600 -500 
Q 4950 -50 4525 525 
Q 3700 -275 2550 -650 
L 2500 -575 
Q 3650 -50 4325 800 
Q 3850 1975 3825 3375 
Q 3575 2725 3100 2150 
L 3025 2200 
Q 3625 3200 4050 5250 
z
" transform="scale(0.015625)"/>
      </defs>
      <use xlink:href="#SimSun-63a7"/>
      <use xlink:href="#SimSun-5236" x="100"/>
      <use xlink:href="#SimSun-5668" x="200"/>
      <use xlink:href="#SimSun-90e8" x="300"/>
      <use xlink:href="#SimSun-7f72" x="400"/>
      <use xlink:href="#SimSun-4e2a" x="500"/>
      <use xlink:href="#SimSun-6570" x="600"/>
     </g>
    </g>
   </g>
   <g id="patch_11">
    <path d="M 20.980469 98.220472 
L 20.980469 0 
" style="fill: none; stroke: #000000; stroke-width: 0.5; stroke-linejoin: miter; stroke-linecap: square"/>
   </g>
   <g id="patch_12">
    <path d="M 150.482969 98.220472 
L 150.482969 0 
" style="fill: none; stroke: #000000; stroke-width: 0.5; stroke-linejoin: miter; stroke-linecap: square"/>
   </g>
   <g id="patch_13">
    <path d="M 20.980469 98.220472 
L 150.482969 98.220472 
" style="fill: none; stroke: #000000; stroke-width: 0.5; stroke-linejoin: miter; stroke-linecap: square"/>
   </g>
   <g id="patch_14">
    <path d="M 20.980469 0 
L 150.482969 0 
" style="fill: none; stroke: #000000; stroke-width: 0.5; stroke-linejoin: miter; stroke-linecap: square"/>
   </g>
   <g id="text_14">
    <!-- (a) NSF网络控制器部署个数 -->
    <g transform="translate(41.981719 133.47307)scale(0.07 -0.07)">
     <defs>
      <path id="SimSun-28" d="M 2900 5025 
Q 2325 4425 2037 3737 
Q 1750 3050 1750 2300 
Q 1750 1525 2037 850 
Q 2325 175 2900 -425 
L 2775 -550 
Q 2075 75 1725 787 
Q 1375 1500 1375 2300 
Q 1375 3075 1725 3787 
Q 2075 4500 2775 5150 
L 2900 5025 
z
" transform="scale(0.015625)"/>
      <path id="SimSun-61" d="M 1225 75 
Q 775 75 525 287 
Q 275 500 275 775 
Q 275 1225 662 1512 
Q 1050 1800 2200 1925 
L 2200 2225 
Q 2200 2475 2087 2637 
Q 1975 2800 1575 2800 
Q 1150 2800 975 2662 
Q 800 2525 850 2375 
Q 875 2325 875 2275 
Q 875 2225 837 2150 
Q 800 2075 650 2075 
Q 550 2075 487 2137 
Q 425 2200 425 2325 
Q 425 2550 750 2750 
Q 1075 2950 1550 2950 
Q 2050 2950 2300 2762 
Q 2550 2575 2550 2225 
L 2550 575 
Q 2550 375 2587 337 
Q 2625 300 2725 300 
Q 2850 300 2900 412 
Q 2950 525 2950 725 
L 3075 725 
Q 3075 375 2950 237 
Q 2825 100 2625 100 
Q 2450 100 2350 175 
Q 2250 250 2200 425 
Q 1950 250 1737 162 
Q 1525 75 1225 75 
z
M 700 850 
Q 700 625 837 437 
Q 975 250 1275 250 
Q 1500 250 1725 337 
Q 1950 425 2200 600 
L 2200 1775 
Q 1350 1675 1025 1437 
Q 700 1200 700 850 
z
" transform="scale(0.015625)"/>
      <path id="SimSun-29" d="M 275 5025 
L 400 5150 
Q 1100 4500 1450 3787 
Q 1800 3075 1800 2300 
Q 1800 1500 1450 787 
Q 1100 75 400 -550 
L 275 -425 
Q 850 175 1137 850 
Q 1425 1525 1425 2300 
Q 1425 3050 1137 3737 
Q 850 4425 275 5025 
z
" transform="scale(0.015625)"/>
      <path id="SimSun-20" d="M 0 0 
Q 0 0 0 0 
z
" transform="scale(0.015625)"/>
      <path id="SimSun-4e" d="M 2525 1100 
L 2575 1100 
L 2575 4025 
Q 2575 4125 2525 4175 
Q 2475 4225 2350 4225 
L 2150 4225 
L 2150 4375 
L 3150 4375 
L 3150 4225 
L 2950 4225 
Q 2850 4225 2787 4175 
Q 2725 4125 2725 4025 
L 2725 100 
L 2575 100 
L 675 3825 
L 625 3825 
L 625 450 
Q 625 350 687 300 
Q 750 250 850 250 
L 1050 250 
L 1050 100 
L 50 100 
L 50 250 
L 250 250 
Q 375 250 425 300 
Q 475 350 475 450 
L 475 4025 
Q 475 4125 425 4175 
Q 375 4225 250 4225 
L 100 4225 
L 100 4375 
L 825 4375 
L 2525 1100 
z
" transform="scale(0.015625)"/>
      <path id="SimSun-53" d="M 1500 2150 
Q 825 2450 575 2675 
Q 325 2900 325 3375 
Q 325 3750 637 4087 
Q 950 4425 1525 4425 
Q 1775 4425 2000 4350 
Q 2225 4250 2325 4250 
Q 2400 4250 2462 4287 
Q 2525 4325 2575 4425 
L 2675 3400 
L 2550 3350 
Q 2325 3875 2087 4062 
Q 1850 4250 1475 4250 
Q 1000 4250 825 3987 
Q 650 3725 650 3425 
Q 650 3150 812 2987 
Q 975 2825 1700 2500 
Q 2300 2250 2562 1937 
Q 2825 1625 2825 1200 
Q 2825 750 2512 400 
Q 2200 50 1600 50 
Q 1350 50 1150 150 
Q 925 225 800 225 
Q 725 225 650 175 
Q 575 125 475 50 
L 275 1275 
L 425 1325 
Q 600 700 912 462 
Q 1225 225 1625 225 
Q 2050 225 2262 475 
Q 2475 725 2475 1200 
Q 2475 1450 2237 1687 
Q 2000 1925 1500 2150 
z
" transform="scale(0.015625)"/>
      <path id="SimSun-46" d="M 1350 250 
L 1350 100 
L 150 100 
L 150 250 
L 325 250 
Q 450 250 500 300 
Q 550 350 550 450 
L 550 4025 
Q 550 4125 500 4175 
Q 450 4225 325 4225 
L 175 4225 
L 175 4375 
L 2775 4375 
L 3075 3475 
L 2950 3425 
Q 2750 3825 2475 4025 
Q 2200 4225 1875 4225 
L 1175 4225 
Q 1075 4225 1012 4175 
Q 950 4125 950 4025 
L 950 2425 
L 1775 2425 
Q 2025 2425 2137 2537 
Q 2250 2650 2250 2900 
L 2250 3025 
L 2400 3025 
L 2400 1575 
L 2250 1575 
L 2250 1675 
Q 2250 1975 2137 2125 
Q 2025 2275 1775 2275 
L 950 2275 
L 950 450 
Q 950 350 1012 300 
Q 1075 250 1175 250 
L 1350 250 
z
" transform="scale(0.015625)"/>
      <path id="SimSun-7f51" d="M 2400 2725 
Q 2750 2225 2850 2025 
Q 2950 1825 2925 1612 
Q 2900 1400 2825 1337 
Q 2750 1275 2725 1275 
Q 2625 1275 2575 1600 
Q 2475 2000 2275 2375 
Q 1900 1575 1375 925 
L 1300 975 
Q 1725 1675 2075 2675 
Q 1775 3225 1375 3750 
L 1450 3800 
Q 1875 3375 2200 2975 
Q 2400 3475 2525 4100 
L 3000 3775 
L 2825 3625 
Q 2575 3075 2400 2725 
z
M 4250 2575 
Q 4700 2025 4812 1787 
Q 4925 1550 4900 1375 
Q 4875 1200 4800 1112 
Q 4725 1025 4700 1025 
Q 4600 1025 4500 1375 
Q 4375 1800 4100 2250 
Q 3600 1325 3000 775 
L 2950 850 
Q 3550 1600 3900 2525 
Q 3500 3175 3100 3700 
L 3175 3750 
Q 3675 3225 4025 2800 
Q 4275 3450 4375 4100 
L 4850 3775 
Q 4725 3675 4575 3337 
Q 4425 3000 4250 2575 
z
M 4350 25 
L 4350 125 
Q 4900 100 5075 112 
Q 5250 125 5225 450 
L 5225 4600 
L 1125 4600 
L 1125 -275 
L 750 -475 
Q 775 500 775 2525 
Q 775 4550 750 5000 
L 1125 4750 
L 5175 4750 
L 5350 5025 
L 5775 4725 
L 5575 4550 
L 5575 175 
Q 5600 -250 5050 -475 
Q 5025 -125 4350 25 
z
" transform="scale(0.015625)"/>
      <path id="SimSun-7edc" d="M 2950 -500 
Q 2975 125 2975 650 
L 2975 1725 
Q 2675 1575 2100 1400 
L 2075 1475 
Q 3200 1950 3950 2725 
Q 3550 3350 3350 4050 
Q 2900 3225 2450 2775 
L 2375 2825 
Q 3075 3875 3425 5200 
L 3925 4875 
L 3700 4775 
Q 3550 4475 3450 4275 
L 4925 4275 
L 5125 4525 
L 5525 4125 
L 5300 4025 
Q 4800 3200 4400 2700 
Q 5075 2150 6100 1975 
L 6100 1900 
Q 5775 1850 5675 1600 
Q 4750 2000 4175 2500 
Q 3650 2050 3050 1750 
L 3300 1625 
L 4875 1625 
L 5075 1825 
L 5450 1500 
L 5250 1400 
L 5250 400 
Q 5250 -75 5275 -275 
L 4925 -425 
L 4925 0 
L 3300 0 
L 3300 -350 
L 2950 -500 
z
M 3300 1475 
L 3300 150 
L 4925 150 
L 4925 1475 
L 3300 1475 
z
M 3425 4125 
Q 3725 3375 4175 2925 
Q 4550 3400 4925 4125 
L 3425 4125 
z
M 875 1800 
Q 1375 1875 2350 2025 
L 2375 1925 
Q 1700 1775 1337 1637 
Q 975 1500 775 1325 
L 450 1800 
Q 700 1850 1012 2237 
Q 1325 2625 1625 3175 
Q 1225 3125 1000 3062 
Q 775 3000 575 2875 
L 350 3325 
Q 575 3325 937 3987 
Q 1300 4650 1475 5225 
L 1950 4900 
L 1675 4725 
Q 1200 4000 700 3275 
L 1700 3300 
Q 1900 3650 2075 4050 
L 2500 3700 
L 2275 3575 
Q 1550 2550 875 1800 
z
M 275 450 
Q 500 475 987 575 
Q 1475 675 2425 925 
L 2450 825 
Q 1825 625 1250 387 
Q 675 150 550 -25 
L 275 450 
z
" transform="scale(0.015625)"/>
     </defs>
     <use xlink:href="#SimSun-28"/>
     <use xlink:href="#SimSun-61" x="50"/>
     <use xlink:href="#SimSun-29" x="100"/>
     <use xlink:href="#SimSun-20" x="150"/>
     <use xlink:href="#SimSun-4e" x="200"/>
     <use xlink:href="#SimSun-53" x="250"/>
     <use xlink:href="#SimSun-46" x="300"/>
     <use xlink:href="#SimSun-7f51" x="350"/>
     <use xlink:href="#SimSun-7edc" x="450"/>
     <use xlink:href="#SimSun-63a7" x="550"/>
     <use xlink:href="#SimSun-5236" x="650"/>
     <use xlink:href="#SimSun-5668" x="750"/>
     <use xlink:href="#SimSun-90e8" x="850"/>
     <use xlink:href="#SimSun-7f72" x="950"/>
     <use xlink:href="#SimSun-4e2a" x="1050"/>
     <use xlink:href="#SimSun-6570" x="1150"/>
    </g>
   </g>
   <g id="legend_1">
    <g id="patch_15">
     <path d="M 27.280469 11.2 
L 41.280469 11.2 
L 41.280469 6.3 
L 27.280469 6.3 
z
" style="fill: url(#h0e310777ea); stroke: #000000; stroke-width: 0.5; stroke-linejoin: miter"/>
    </g>
    <g id="text_15">
     <!-- p=0.02 -->
     <g transform="translate(46.880469 11.2)scale(0.07 -0.07)">
      <defs>
       <path id="Euclid-70" d="M 3328 1376 
Q 3328 1664 3229 1929 
Q 3130 2195 2938 2400 
Q 2752 2605 2505 2717 
Q 2259 2829 1984 2829 
Q 1715 2829 1488 2713 
Q 1261 2598 1101 2406 
L 1101 2829 
L 179 2758 
L 179 2560 
Q 288 2560 409 2553 
Q 531 2547 595 2509 
Q 653 2477 665 2409 
Q 678 2342 678 2272 
L 678 -819 
Q 678 -877 662 -931 
Q 646 -986 595 -1011 
Q 531 -1043 409 -1046 
Q 288 -1050 179 -1050 
L 179 -1242 
Q 896 -1216 1619 -1242 
L 1619 -1050 
Q 1510 -1050 1388 -1046 
Q 1267 -1043 1203 -1011 
Q 1152 -986 1136 -931 
Q 1120 -877 1120 -819 
L 1120 326 
Q 1261 141 1456 35 
Q 1651 -70 1894 -70 
Q 2182 -70 2444 38 
Q 2707 147 2906 352 
Q 3110 557 3219 822 
Q 3328 1088 3328 1376 
z
M 2797 1376 
Q 2797 1126 2733 889 
Q 2669 653 2522 448 
Q 2400 282 2233 176 
Q 2067 70 1875 70 
Q 1619 70 1424 224 
Q 1229 378 1120 621 
L 1120 2150 
Q 1235 2381 1456 2525 
Q 1677 2669 1952 2669 
Q 2131 2669 2281 2563 
Q 2432 2458 2541 2298 
Q 2675 2093 2736 1859 
Q 2797 1626 2797 1376 
z
" transform="scale(0.015625)"/>
       <path id="Euclid-3d" d="M 4608 2221 
Q 4608 2272 4569 2310 
Q 4531 2349 4480 2349 
L 486 2349 
Q 435 2349 396 2310 
Q 358 2272 358 2221 
Q 358 2170 396 2131 
Q 435 2093 486 2093 
L 4480 2093 
Q 4531 2093 4569 2131 
Q 4608 2170 4608 2221 
z
M 4608 979 
Q 4608 1030 4569 1068 
Q 4531 1107 4480 1107 
L 486 1107 
Q 435 1107 396 1068 
Q 358 1030 358 979 
Q 358 928 396 889 
Q 435 851 486 851 
L 4480 851 
Q 4531 851 4569 889 
Q 4608 928 4608 979 
z
" transform="scale(0.015625)"/>
       <path id="Euclid-30" d="M 2938 2042 
Q 2938 2477 2880 2905 
Q 2822 3334 2598 3706 
Q 2438 3974 2169 4121 
Q 1901 4269 1594 4269 
Q 1286 4269 1017 4121 
Q 749 3974 589 3706 
Q 365 3334 307 2905 
Q 250 2477 250 2042 
Q 250 1619 307 1196 
Q 365 774 589 410 
Q 749 147 1017 3 
Q 1286 -141 1594 -141 
Q 1901 -141 2169 3 
Q 2438 147 2598 410 
Q 2822 774 2880 1196 
Q 2938 1619 2938 2042 
z
M 2406 2144 
Q 2406 1939 2403 1708 
Q 2400 1478 2387 1260 
Q 2374 1043 2345 848 
Q 2317 653 2266 518 
Q 2182 294 2003 147 
Q 1824 0 1594 0 
Q 1363 0 1184 147 
Q 1005 294 922 518 
Q 870 653 841 848 
Q 813 1043 800 1260 
Q 787 1478 784 1708 
Q 781 1939 781 2144 
Q 781 2336 784 2544 
Q 787 2752 800 2953 
Q 813 3155 841 3334 
Q 870 3514 922 3642 
Q 1011 3846 1190 3984 
Q 1370 4122 1594 4122 
Q 1818 4122 1997 3984 
Q 2176 3846 2266 3642 
Q 2317 3514 2345 3334 
Q 2374 3155 2387 2953 
Q 2400 2752 2403 2544 
Q 2406 2336 2406 2144 
z
" transform="scale(0.015625)"/>
       <path id="Euclid-2e" d="M 1222 339 
Q 1222 480 1123 579 
Q 1024 678 883 678 
Q 742 678 643 579 
Q 544 480 544 339 
Q 544 198 643 99 
Q 742 0 883 0 
Q 1024 0 1123 99 
Q 1222 198 1222 339 
z
" transform="scale(0.015625)"/>
       <path id="Euclid-32" d="M 2867 1114 
L 2707 1114 
Q 2694 1037 2678 947 
Q 2662 858 2643 774 
Q 2624 691 2601 624 
Q 2579 557 2554 531 
Q 2541 518 2422 508 
Q 2304 499 2141 496 
Q 1978 493 1792 493 
Q 1606 493 1466 493 
L 819 493 
L 1555 1210 
Q 1741 1389 1968 1581 
Q 2195 1773 2396 1990 
Q 2598 2208 2732 2461 
Q 2867 2714 2867 3021 
Q 2867 3290 2768 3517 
Q 2669 3744 2489 3913 
Q 2310 4083 2057 4176 
Q 1805 4269 1504 4269 
Q 1261 4269 1043 4176 
Q 826 4083 666 3923 
Q 506 3763 413 3545 
Q 320 3328 320 3085 
Q 320 2918 425 2832 
Q 531 2746 653 2746 
Q 781 2746 886 2832 
Q 992 2918 992 3085 
Q 992 3181 950 3251 
Q 909 3322 848 3363 
Q 787 3405 710 3414 
Q 634 3424 563 3405 
Q 659 3693 896 3881 
Q 1133 4070 1440 4070 
Q 1651 4070 1808 3984 
Q 1965 3898 2070 3754 
Q 2176 3610 2230 3421 
Q 2285 3232 2285 3021 
Q 2285 2765 2198 2531 
Q 2112 2298 1971 2083 
Q 1830 1869 1654 1661 
Q 1478 1453 1299 1254 
L 333 173 
Q 320 147 320 134 
L 320 0 
L 2688 0 
L 2867 1114 
z
" transform="scale(0.015625)"/>
      </defs>
      <use xlink:href="#Euclid-70"/>
      <use xlink:href="#Euclid-3d" x="55.499985"/>
      <use xlink:href="#Euclid-30" x="133.299973"/>
      <use xlink:href="#Euclid-2e" x="183.299957"/>
      <use xlink:href="#Euclid-30" x="211.099945"/>
      <use xlink:href="#Euclid-32" x="261.09993"/>
     </g>
    </g>
    <g id="patch_16">
     <path d="M 27.280469 20.958438 
L 41.280469 20.958438 
L 41.280469 16.058438 
L 27.280469 16.058438 
z
" style="fill: url(#hecce50a1f2); stroke: #000000; stroke-width: 0.5; stroke-linejoin: miter"/>
    </g>
    <g id="text_16">
     <!-- p=0.03 -->
     <g transform="translate(46.880469 20.958438)scale(0.07 -0.07)">
      <use xlink:href="#Euclid-70"/>
      <use xlink:href="#Euclid-3d" x="55.499985"/>
      <use xlink:href="#Euclid-30" x="133.299973"/>
      <use xlink:href="#Euclid-2e" x="183.299957"/>
      <use xlink:href="#Euclid-30" x="211.099945"/>
      <use xlink:href="#Euclid-33" x="261.09993"/>
     </g>
    </g>
   </g>
  </g>
  <g id="axes_2">
   <g id="patch_17">
    <path d="M 202.283969 98.220472 
L 331.786469 98.220472 
L 331.786469 0 
L 202.283969 0 
z
" style="fill: #ffffff"/>
   </g>
   <g id="patch_18">
    <path d="M 208.170446 98.740157 
L 211.849494 98.740157 
L 211.849494 67.559055 
L 208.170446 67.559055 
z
" clip-path="url(#p6934e491a0)" style="fill: url(#h0e310777ea); stroke: #000000; stroke-width: 0.5; stroke-linejoin: miter"/>
   </g>
   <g id="patch_19">
    <path d="M 244.960929 98.740157 
L 248.639977 98.740157 
L 248.639977 51.968504 
L 244.960929 51.968504 
z
" clip-path="url(#p6934e491a0)" style="fill: url(#h0e310777ea); stroke: #000000; stroke-width: 0.5; stroke-linejoin: miter"/>
   </g>
   <g id="patch_20">
    <path d="M 281.751412 98.740157 
L 285.43046 98.740157 
L 285.43046 57.165354 
L 281.751412 57.165354 
z
" clip-path="url(#p6934e491a0)" style="fill: url(#h0e310777ea); stroke: #000000; stroke-width: 0.5; stroke-linejoin: miter"/>
   </g>
   <g id="patch_21">
    <path d="M 318.541895 98.740157 
L 322.220943 98.740157 
L 322.220943 67.559055 
L 318.541895 67.559055 
z
" clip-path="url(#p6934e491a0)" style="fill: url(#h0e310777ea); stroke: #000000; stroke-width: 0.5; stroke-linejoin: miter"/>
   </g>
   <g id="patch_22">
    <path d="M 211.849494 98.740157 
L 215.528543 98.740157 
L 215.528543 67.559055 
L 211.849494 67.559055 
z
" clip-path="url(#p6934e491a0)" style="fill: url(#hecce50a1f2); stroke: #000000; stroke-width: 0.5; stroke-linejoin: miter"/>
   </g>
   <g id="patch_23">
    <path d="M 248.639977 98.740157 
L 252.319026 98.740157 
L 252.319026 51.968504 
L 248.639977 51.968504 
z
" clip-path="url(#p6934e491a0)" style="fill: url(#hecce50a1f2); stroke: #000000; stroke-width: 0.5; stroke-linejoin: miter"/>
   </g>
   <g id="patch_24">
    <path d="M 285.43046 98.740157 
L 289.109509 98.740157 
L 289.109509 5.19685 
L 285.43046 5.19685 
z
" clip-path="url(#p6934e491a0)" style="fill: url(#hecce50a1f2); stroke: #000000; stroke-width: 0.5; stroke-linejoin: miter"/>
   </g>
   <g id="patch_25">
    <path d="M 322.220943 98.740157 
L 325.899991 98.740157 
L 325.899991 62.362204 
L 322.220943 62.362204 
z
" clip-path="url(#p6934e491a0)" style="fill: url(#hecce50a1f2); stroke: #000000; stroke-width: 0.5; stroke-linejoin: miter"/>
   </g>
   <g id="matplotlib.axis_3">
    <g id="xtick_5">
     <g id="line2d_12">
      <g>
       <use xlink:href="#m987840351c" x="211.849494" y="98.220472" style="stroke: #000000; stroke-width: 0.8"/>
      </g>
     </g>
     <g id="text_17">
      <!-- C-MPC -->
      <g transform="translate(200.044104 110.078909)scale(0.07 -0.07)">
       <use xlink:href="#Euclid-43"/>
       <use xlink:href="#Euclid-2d" x="72.199982"/>
       <use xlink:href="#Euclid-4d" x="105.499969"/>
       <use xlink:href="#Euclid-50" x="197.09996"/>
       <use xlink:href="#Euclid-43" x="265.099945"/>
      </g>
     </g>
    </g>
    <g id="xtick_6">
     <g id="line2d_13">
      <g>
       <use xlink:href="#m987840351c" x="248.639977" y="98.220472" style="stroke: #000000; stroke-width: 0.8"/>
      </g>
     </g>
     <g id="text_18">
      <!-- TDCP -->
      <g transform="translate(238.53154 110.078909)scale(0.07 -0.07)">
       <use xlink:href="#Euclid-54"/>
       <use xlink:href="#Euclid-44" x="72.199982"/>
       <use xlink:href="#Euclid-43" x="148.599976"/>
       <use xlink:href="#Euclid-50" x="220.799957"/>
      </g>
     </g>
    </g>
    <g id="xtick_7">
     <g id="line2d_14">
      <g>
       <use xlink:href="#m987840351c" x="285.43046" y="98.220472" style="stroke: #000000; stroke-width: 0.8"/>
      </g>
     </g>
     <g id="text_19">
      <!-- SCD -->
      <g transform="translate(278.286632 110.078909)scale(0.07 -0.07)">
       <use xlink:href="#Euclid-53"/>
       <use xlink:href="#Euclid-43" x="55.499985"/>
       <use xlink:href="#Euclid-44" x="127.699966"/>
      </g>
     </g>
    </g>
    <g id="xtick_8">
     <g id="line2d_15">
      <g>
       <use xlink:href="#m987840351c" x="322.220943" y="98.220472" style="stroke: #000000; stroke-width: 0.8"/>
      </g>
     </g>
     <g id="text_20">
      <!-- STCP -->
      <g transform="translate(312.844224 110.078909)scale(0.07 -0.07)">
       <use xlink:href="#Euclid-53"/>
       <use xlink:href="#Euclid-54" x="55.499985"/>
       <use xlink:href="#Euclid-43" x="127.699966"/>
       <use xlink:href="#Euclid-50" x="199.899948"/>
      </g>
     </g>
    </g>
    <g id="text_21">
     <!-- 不同控制器部署算法 -->
     <g transform="translate(235.535219 121.015472)scale(0.07 -0.07)">
      <use xlink:href="#SimSun-4e0d"/>
      <use xlink:href="#SimSun-540c" x="100"/>
      <use xlink:href="#SimSun-63a7" x="200"/>
      <use xlink:href="#SimSun-5236" x="300"/>
      <use xlink:href="#SimSun-5668" x="400"/>
      <use xlink:href="#SimSun-90e8" x="500"/>
      <use xlink:href="#SimSun-7f72" x="600"/>
      <use xlink:href="#SimSun-7b97" x="700"/>
      <use xlink:href="#SimSun-6cd5" x="800"/>
     </g>
    </g>
   </g>
   <g id="matplotlib.axis_4">
    <g id="ytick_8">
     <g id="line2d_16">
      <g>
       <use xlink:href="#m20f39acc77" x="202.283969" y="88.346456" style="stroke: #000000; stroke-width: 0.8"/>
      </g>
     </g>
     <g id="text_22">
      <!-- 2 -->
      <g transform="translate(195.283969 90.775675)scale(0.07 -0.07)">
       <use xlink:href="#Euclid-32"/>
      </g>
     </g>
    </g>
    <g id="ytick_9">
     <g id="line2d_17">
      <g>
       <use xlink:href="#m20f39acc77" x="202.283969" y="77.952755" style="stroke: #000000; stroke-width: 0.8"/>
      </g>
     </g>
     <g id="text_23">
      <!-- 4 -->
      <g transform="translate(195.283969 80.381974)scale(0.07 -0.07)">
       <defs>
        <path id="Euclid-34" d="M 3008 1062 
L 3008 1261 
L 2368 1261 
L 2368 4269 
Q 2368 4339 2298 4339 
L 2234 4339 
Q 2189 4339 2163 4301 
L 179 1261 
L 179 1062 
L 1875 1062 
L 1875 429 
Q 1875 365 1849 310 
Q 1824 256 1773 237 
Q 1690 205 1536 201 
Q 1382 198 1248 198 
L 1248 0 
Q 2125 38 2989 0 
L 2989 198 
Q 2861 198 2704 201 
Q 2547 205 2470 237 
Q 2419 256 2393 310 
Q 2368 365 2368 429 
L 2368 1062 
L 3008 1062 
z
M 1907 1261 
L 358 1261 
L 1907 3635 
L 1907 1261 
z
" transform="scale(0.015625)"/>
       </defs>
       <use xlink:href="#Euclid-34"/>
      </g>
     </g>
    </g>
    <g id="ytick_10">
     <g id="line2d_18">
      <g>
       <use xlink:href="#m20f39acc77" x="202.283969" y="67.559055" style="stroke: #000000; stroke-width: 0.8"/>
      </g>
     </g>
     <g id="text_24">
      <!-- 6 -->
      <g transform="translate(195.283969 69.988273)scale(0.07 -0.07)">
       <defs>
        <path id="Euclid-36" d="M 2918 1299 
Q 2918 1606 2835 1843 
Q 2752 2080 2547 2310 
Q 2355 2522 2144 2624 
Q 1933 2726 1638 2726 
Q 1344 2726 1145 2547 
Q 947 2368 838 2093 
Q 845 2477 880 2841 
Q 915 3206 1094 3526 
Q 1235 3776 1456 3942 
Q 1677 4109 1952 4109 
Q 2150 4109 2300 4041 
Q 2451 3974 2528 3846 
Q 2400 3872 2288 3798 
Q 2176 3725 2176 3558 
Q 2176 3411 2265 3337 
Q 2355 3264 2464 3264 
Q 2579 3264 2668 3337 
Q 2758 3411 2758 3558 
Q 2758 3904 2528 4086 
Q 2298 4269 1952 4269 
Q 1587 4269 1280 4086 
Q 973 3904 755 3616 
Q 499 3277 384 2880 
Q 269 2483 269 2067 
Q 269 1651 329 1235 
Q 390 819 608 448 
Q 762 179 1021 19 
Q 1280 -141 1594 -141 
Q 1894 -141 2112 -38 
Q 2330 64 2534 282 
Q 2746 512 2832 752 
Q 2918 992 2918 1299 
z
M 2349 1299 
Q 2349 1018 2326 794 
Q 2304 570 2195 384 
Q 2086 205 1942 121 
Q 1798 38 1594 38 
Q 1382 38 1216 179 
Q 1050 320 966 538 
Q 915 666 892 861 
Q 870 1056 858 1280 
L 858 1306 
Q 838 1555 883 1785 
Q 928 2016 1027 2192 
Q 1126 2368 1276 2477 
Q 1427 2586 1632 2586 
Q 1830 2586 1964 2496 
Q 2099 2406 2208 2227 
Q 2310 2048 2329 1817 
Q 2349 1587 2349 1299 
z
" transform="scale(0.015625)"/>
       </defs>
       <use xlink:href="#Euclid-36"/>
      </g>
     </g>
    </g>
    <g id="ytick_11">
     <g id="line2d_19">
      <g>
       <use xlink:href="#m20f39acc77" x="202.283969" y="57.165354" style="stroke: #000000; stroke-width: 0.8"/>
      </g>
     </g>
     <g id="text_25">
      <!-- 8 -->
      <g transform="translate(195.283969 59.594573)scale(0.07 -0.07)">
       <defs>
        <path id="Euclid-38" d="M 2918 1075 
Q 2918 1382 2764 1644 
Q 2611 1907 2355 2074 
L 1971 2323 
Q 2125 2400 2265 2499 
Q 2406 2598 2512 2723 
Q 2618 2848 2682 2995 
Q 2746 3142 2746 3315 
Q 2746 3533 2650 3709 
Q 2554 3885 2390 4009 
Q 2227 4134 2019 4201 
Q 1811 4269 1594 4269 
Q 1363 4269 1155 4185 
Q 947 4102 787 3958 
Q 627 3814 534 3619 
Q 442 3424 442 3194 
Q 442 2918 579 2688 
Q 717 2458 941 2310 
L 1197 2144 
Q 1005 2054 838 1936 
Q 672 1818 544 1670 
Q 416 1523 342 1347 
Q 269 1171 269 960 
Q 269 710 381 505 
Q 493 301 675 157 
Q 858 13 1098 -64 
Q 1338 -141 1594 -141 
Q 1862 -141 2102 -48 
Q 2342 45 2524 208 
Q 2707 371 2812 592 
Q 2918 813 2918 1075 
z
M 2458 3315 
Q 2458 3021 2278 2793 
Q 2099 2566 1824 2413 
L 1043 2918 
Q 902 3008 816 3142 
Q 730 3277 730 3437 
Q 730 3584 800 3709 
Q 870 3834 988 3923 
Q 1107 4013 1264 4061 
Q 1421 4109 1594 4109 
Q 1766 4109 1923 4048 
Q 2080 3987 2198 3881 
Q 2317 3776 2387 3629 
Q 2458 3482 2458 3315 
z
M 2598 851 
Q 2598 672 2518 521 
Q 2438 371 2297 265 
Q 2157 160 1974 99 
Q 1792 38 1594 38 
Q 1389 38 1206 108 
Q 1024 179 886 304 
Q 749 429 669 598 
Q 589 768 589 960 
Q 589 1318 803 1600 
Q 1018 1882 1344 2048 
L 2221 1485 
Q 2387 1376 2492 1209 
Q 2598 1043 2598 851 
z
" transform="scale(0.015625)"/>
       </defs>
       <use xlink:href="#Euclid-38"/>
      </g>
     </g>
    </g>
    <g id="ytick_12">
     <g id="line2d_20">
      <g>
       <use xlink:href="#m20f39acc77" x="202.283969" y="46.771653" style="stroke: #000000; stroke-width: 0.8"/>
      </g>
     </g>
     <g id="text_26">
      <!-- 10 -->
      <g transform="translate(191.783969 49.200872)scale(0.07 -0.07)">
       <use xlink:href="#Euclid-31"/>
       <use xlink:href="#Euclid-30" x="49.999985"/>
      </g>
     </g>
    </g>
    <g id="ytick_13">
     <g id="line2d_21">
      <g>
       <use xlink:href="#m20f39acc77" x="202.283969" y="36.377953" style="stroke: #000000; stroke-width: 0.8"/>
      </g>
     </g>
     <g id="text_27">
      <!-- 12 -->
      <g transform="translate(191.783969 38.807171)scale(0.07 -0.07)">
       <use xlink:href="#Euclid-31"/>
       <use xlink:href="#Euclid-32" x="49.999985"/>
      </g>
     </g>
    </g>
    <g id="ytick_14">
     <g id="line2d_22">
      <g>
       <use xlink:href="#m20f39acc77" x="202.283969" y="25.984252" style="stroke: #000000; stroke-width: 0.8"/>
      </g>
     </g>
     <g id="text_28">
      <!-- 14 -->
      <g transform="translate(191.783969 28.413471)scale(0.07 -0.07)">
       <use xlink:href="#Euclid-31"/>
       <use xlink:href="#Euclid-34" x="49.999985"/>
      </g>
     </g>
    </g>
    <g id="ytick_15">
     <g id="line2d_23">
      <g>
       <use xlink:href="#m20f39acc77" x="202.283969" y="15.590551" style="stroke: #000000; stroke-width: 0.8"/>
      </g>
     </g>
     <g id="text_29">
      <!-- 16 -->
      <g transform="translate(191.783969 18.01977)scale(0.07 -0.07)">
       <use xlink:href="#Euclid-31"/>
       <use xlink:href="#Euclid-36" x="49.999985"/>
      </g>
     </g>
    </g>
    <g id="ytick_16">
     <g id="line2d_24">
      <g>
       <use xlink:href="#m20f39acc77" x="202.283969" y="5.19685" style="stroke: #000000; stroke-width: 0.8"/>
      </g>
     </g>
     <g id="text_30">
      <!-- 18 -->
      <g transform="translate(191.783969 7.626069)scale(0.07 -0.07)">
       <use xlink:href="#Euclid-31"/>
       <use xlink:href="#Euclid-38" x="49.999985"/>
      </g>
     </g>
    </g>
    <g id="text_31">
     <!-- 控制器部署个数 -->
     <g transform="translate(186.881625 73.610236)rotate(-90)scale(0.07 -0.07)">
      <use xlink:href="#SimSun-63a7"/>
      <use xlink:href="#SimSun-5236" x="100"/>
      <use xlink:href="#SimSun-5668" x="200"/>
      <use xlink:href="#SimSun-90e8" x="300"/>
      <use xlink:href="#SimSun-7f72" x="400"/>
      <use xlink:href="#SimSun-4e2a" x="500"/>
      <use xlink:href="#SimSun-6570" x="600"/>
     </g>
    </g>
   </g>
   <g id="patch_26">
    <path d="M 202.283969 98.220472 
L 202.283969 0 
" style="fill: none; stroke: #000000; stroke-width: 0.5; stroke-linejoin: miter; stroke-linecap: square"/>
   </g>
   <g id="patch_27">
    <path d="M 331.786469 98.220472 
L 331.786469 0 
" style="fill: none; stroke: #000000; stroke-width: 0.5; stroke-linejoin: miter; stroke-linecap: square"/>
   </g>
   <g id="patch_28">
    <path d="M 202.283969 98.220472 
L 331.786469 98.220472 
" style="fill: none; stroke: #000000; stroke-width: 0.5; stroke-linejoin: miter; stroke-linecap: square"/>
   </g>
   <g id="patch_29">
    <path d="M 202.283969 0 
L 331.786469 0 
" style="fill: none; stroke: #000000; stroke-width: 0.5; stroke-linejoin: miter; stroke-linecap: square"/>
   </g>
   <g id="text_32">
    <!-- (b) USNET网络控制器部署个数 -->
    <g transform="translate(219.785219 133.47307)scale(0.07 -0.07)">
     <defs>
      <path id="SimSun-62" d="M 875 2325 
Q 1000 2600 1275 2762 
Q 1550 2925 1800 2925 
Q 2325 2925 2587 2562 
Q 2850 2200 2850 1500 
Q 2850 800 2512 437 
Q 2175 75 1675 75 
Q 1425 75 1212 162 
Q 1000 250 850 400 
L 625 100 
L 525 100 
L 525 4025 
Q 525 4125 475 4175 
Q 425 4225 300 4225 
L 150 4225 
L 150 4375 
L 375 4375 
Q 500 4375 625 4425 
Q 750 4475 875 4575 
L 875 2325 
z
M 875 925 
Q 875 650 1062 450 
Q 1250 250 1625 250 
Q 2075 250 2262 562 
Q 2450 875 2450 1500 
Q 2450 2100 2287 2412 
Q 2125 2725 1775 2725 
Q 1475 2725 1250 2550 
Q 1025 2375 875 1925 
L 875 925 
z
" transform="scale(0.015625)"/>
      <path id="SimSun-55" d="M 1625 250 
Q 2000 250 2262 500 
Q 2525 750 2525 1125 
L 2525 4025 
Q 2525 4125 2475 4175 
Q 2425 4225 2300 4225 
L 2150 4225 
L 2150 4375 
L 3050 4375 
L 3050 4225 
L 2900 4225 
Q 2800 4225 2737 4175 
Q 2675 4125 2675 4025 
L 2675 1125 
Q 2675 625 2337 337 
Q 2000 50 1575 50 
Q 1125 50 787 300 
Q 450 550 450 1100 
L 450 4025 
Q 450 4125 400 4175 
Q 350 4225 225 4225 
L 100 4225 
L 100 4375 
L 1200 4375 
L 1200 4225 
L 1075 4225 
Q 975 4225 912 4175 
Q 850 4125 850 4025 
L 850 1100 
Q 850 600 1062 425 
Q 1275 250 1625 250 
z
" transform="scale(0.015625)"/>
      <path id="SimSun-45" d="M 200 4225 
L 200 4375 
L 2650 4375 
L 2925 3525 
L 2800 3475 
Q 2600 3850 2375 4037 
Q 2150 4225 1875 4225 
L 1175 4225 
Q 1075 4225 1012 4175 
Q 950 4125 950 4025 
L 950 2475 
L 1675 2475 
Q 1925 2475 2037 2600 
Q 2150 2725 2150 2975 
L 2150 3125 
L 2300 3125 
L 2300 1650 
L 2150 1650 
L 2150 1750 
Q 2150 2025 2037 2175 
Q 1925 2325 1675 2325 
L 950 2325 
L 950 450 
Q 950 350 1012 300 
Q 1075 250 1175 250 
L 1825 250 
Q 2200 250 2462 462 
Q 2725 675 2875 1125 
L 3000 1075 
L 2725 100 
L 175 100 
L 175 250 
L 325 250 
Q 450 250 500 300 
Q 550 350 550 450 
L 550 4025 
Q 550 4125 500 4175 
Q 450 4225 325 4225 
L 200 4225 
z
" transform="scale(0.015625)"/>
      <path id="SimSun-54" d="M 2225 100 
L 925 100 
L 925 250 
L 1150 250 
Q 1275 250 1325 300 
Q 1375 350 1375 450 
L 1375 3950 
Q 1375 4150 1350 4175 
Q 1325 4200 1150 4200 
Q 800 4200 662 4075 
Q 525 3950 325 3400 
L 175 3425 
L 400 4375 
L 2775 4375 
L 2975 3425 
L 2850 3400 
Q 2650 3925 2537 4062 
Q 2425 4200 2075 4200 
Q 1825 4200 1800 4175 
Q 1775 4150 1775 3925 
L 1775 450 
Q 1775 350 1837 300 
Q 1900 250 2000 250 
L 2225 250 
L 2225 100 
z
" transform="scale(0.015625)"/>
     </defs>
     <use xlink:href="#SimSun-28"/>
     <use xlink:href="#SimSun-62" x="50"/>
     <use xlink:href="#SimSun-29" x="100"/>
     <use xlink:href="#SimSun-20" x="150"/>
     <use xlink:href="#SimSun-55" x="200"/>
     <use xlink:href="#SimSun-53" x="250"/>
     <use xlink:href="#SimSun-4e" x="300"/>
     <use xlink:href="#SimSun-45" x="350"/>
     <use xlink:href="#SimSun-54" x="400"/>
     <use xlink:href="#SimSun-7f51" x="450"/>
     <use xlink:href="#SimSun-7edc" x="550"/>
     <use xlink:href="#SimSun-63a7" x="650"/>
     <use xlink:href="#SimSun-5236" x="750"/>
     <use xlink:href="#SimSun-5668" x="850"/>
     <use xlink:href="#SimSun-90e8" x="950"/>
     <use xlink:href="#SimSun-7f72" x="1050"/>
     <use xlink:href="#SimSun-4e2a" x="1150"/>
     <use xlink:href="#SimSun-6570" x="1250"/>
    </g>
   </g>
   <g id="legend_2">
    <g id="patch_30">
     <path d="M 208.583969 11.2 
L 222.583969 11.2 
L 222.583969 6.3 
L 208.583969 6.3 
z
" style="fill: url(#h0e310777ea); stroke: #000000; stroke-width: 0.5; stroke-linejoin: miter"/>
    </g>
    <g id="text_33">
     <!-- p=0.02 -->
     <g transform="translate(228.183969 11.2)scale(0.07 -0.07)">
      <use xlink:href="#Euclid-70"/>
      <use xlink:href="#Euclid-3d" x="55.499985"/>
      <use xlink:href="#Euclid-30" x="133.299973"/>
      <use xlink:href="#Euclid-2e" x="183.299957"/>
      <use xlink:href="#Euclid-30" x="211.099945"/>
      <use xlink:href="#Euclid-32" x="261.09993"/>
     </g>
    </g>
    <g id="patch_31">
     <path d="M 208.583969 20.958438 
L 222.583969 20.958438 
L 222.583969 16.058438 
L 208.583969 16.058438 
z
" style="fill: url(#hecce50a1f2); stroke: #000000; stroke-width: 0.5; stroke-linejoin: miter"/>
    </g>
    <g id="text_34">
     <!-- p=0.03 -->
     <g transform="translate(228.183969 20.958438)scale(0.07 -0.07)">
      <use xlink:href="#Euclid-70"/>
      <use xlink:href="#Euclid-3d" x="55.499985"/>
      <use xlink:href="#Euclid-30" x="133.299973"/>
      <use xlink:href="#Euclid-2e" x="183.299957"/>
      <use xlink:href="#Euclid-30" x="211.099945"/>
      <use xlink:href="#Euclid-33" x="261.09993"/>
     </g>
    </g>
   </g>
  </g>
 </g>
 <defs>
  <clipPath id="pcf75a37249">
   <rect x="20.980469" y="0" width="129.5025" height="98.220472"/>
  </clipPath>
  <clipPath id="p6934e491a0">
   <rect x="202.283969" y="0" width="129.5025" height="98.220472"/>
  </clipPath>
 </defs>
 <defs>
  <pattern id="h0e310777ea" patternUnits="userSpaceOnUse" x="0" y="0" width="72" height="72">
   <rect x="0" y="0" width="73" height="73" fill="#ffffff"/>
   <path d="M -36 36 
L 36 -36 
M -34.285714 37.714286 
L 37.714286 -34.285714 
M -32.571429 39.428571 
L 39.428571 -32.571429 
M -30.857143 41.142857 
L 41.142857 -30.857143 
M -29.142857 42.857143 
L 42.857143 -29.142857 
M -27.428571 44.571429 
L 44.571429 -27.428571 
M -25.714286 46.285714 
L 46.285714 -25.714286 
M -24 48 
L 48 -24 
M -22.285714 49.714286 
L 49.714286 -22.285714 
M -20.571429 51.428571 
L 51.428571 -20.571429 
M -18.857143 53.142857 
L 53.142857 -18.857143 
M -17.142857 54.857143 
L 54.857143 -17.142857 
M -15.428571 56.571429 
L 56.571429 -15.428571 
M -13.714286 58.285714 
L 58.285714 -13.714286 
M -12 60 
L 60 -12 
M -10.285714 61.714286 
L 61.714286 -10.285714 
M -8.571429 63.428571 
L 63.428571 -8.571429 
M -6.857143 65.142857 
L 65.142857 -6.857143 
M -5.142857 66.857143 
L 66.857143 -5.142857 
M -3.428571 68.571429 
L 68.571429 -3.428571 
M -1.714286 70.285714 
L 70.285714 -1.714286 
M 0 72 
L 72 0 
M 1.714286 73.714286 
L 73.714286 1.714286 
M 3.428571 75.428571 
L 75.428571 3.428571 
M 5.142857 77.142857 
L 77.142857 5.142857 
M 6.857143 78.857143 
L 78.857143 6.857143 
M 8.571429 80.571429 
L 80.571429 8.571429 
M 10.285714 82.285714 
L 82.285714 10.285714 
M 12 84 
L 84 12 
M 13.714286 85.714286 
L 85.714286 13.714286 
M 15.428571 87.428571 
L 87.428571 15.428571 
M 17.142857 89.142857 
L 89.142857 17.142857 
M 18.857143 90.857143 
L 90.857143 18.857143 
M 20.571429 92.571429 
L 92.571429 20.571429 
M 22.285714 94.285714 
L 94.285714 22.285714 
M 24 96 
L 96 24 
M 25.714286 97.714286 
L 97.714286 25.714286 
M 27.428571 99.428571 
L 99.428571 27.428571 
M 29.142857 101.142857 
L 101.142857 29.142857 
M 30.857143 102.857143 
L 102.857143 30.857143 
M 32.571429 104.571429 
L 104.571429 32.571429 
M 34.285714 106.285714 
L 106.285714 34.285714 
M 36 108 
L 108 36 
" style="fill: #000000; stroke: #000000; stroke-width: 1.0; stroke-linecap: butt; stroke-linejoin: miter"/>
  </pattern>
  <pattern id="hecce50a1f2" patternUnits="userSpaceOnUse" x="0" y="0" width="72" height="72">
   <rect x="0" y="0" width="73" height="73" fill="#ffffff"/>
   <path style="fill: #000000; stroke: #000000; stroke-width: 1.0; stroke-linecap: butt; stroke-linejoin: miter"/>
  </pattern>
 </defs>
</svg>
